<svg width="519" height="282" viewBox="0 0 519 282" fill="none" xmlns="http://www.w3.org/2000/svg">
<g clip-path="url(#clip0_417_2395)">
<path d="M415.061 203.81C415.236 203.75 415.397 203.655 415.535 203.53C415.672 203.405 415.782 203.253 415.858 203.083C415.934 202.914 415.974 202.731 415.976 202.545C415.978 202.36 415.942 202.175 415.87 202.004C415.798 201.833 415.692 201.679 415.558 201.551C415.424 201.423 415.265 201.323 415.091 201.259C414.916 201.195 414.731 201.168 414.546 201.179C414.361 201.19 414.18 201.239 414.015 201.323L411.531 202.348C411.205 202.492 410.947 202.756 410.809 203.084C410.672 203.413 410.665 203.782 410.79 204.115C410.93 204.445 411.192 204.706 411.522 204.845C411.851 204.983 412.222 204.988 412.555 204.857L415.061 203.81ZM420.007 201.628L422.469 200.494C422.632 200.419 422.778 200.312 422.899 200.18C423.02 200.048 423.113 199.893 423.174 199.725C423.235 199.557 423.262 199.378 423.253 199.199C423.244 199.02 423.2 198.845 423.123 198.683C423.051 198.521 422.946 198.375 422.816 198.255C422.686 198.134 422.532 198.042 422.365 197.983C422.198 197.923 422.021 197.899 421.844 197.911C421.667 197.922 421.494 197.97 421.336 198.05L418.896 199.163C418.569 199.31 418.315 199.582 418.188 199.917C418.061 200.253 418.073 200.625 418.22 200.952C418.289 201.117 418.39 201.268 418.518 201.393C418.646 201.519 418.798 201.617 418.965 201.682C419.132 201.747 419.31 201.778 419.489 201.773C419.668 201.767 419.844 201.725 420.007 201.65V201.628ZM407.543 206.755C407.86 206.619 408.113 206.368 408.251 206.051C408.389 205.735 408.401 205.378 408.284 205.053C408.156 204.717 407.903 204.445 407.577 204.294C407.251 204.143 406.879 204.126 406.541 204.246C405.713 204.573 404.863 204.857 404.035 205.162C403.703 205.286 403.434 205.535 403.283 205.856C403.133 206.176 403.115 206.543 403.232 206.877C403.349 207.211 403.592 207.486 403.909 207.643C404.226 207.799 404.592 207.825 404.928 207.715L407.478 206.777L407.543 206.755ZM427.329 198.159L429.747 196.938C430.05 196.764 430.273 196.48 430.372 196.146C430.47 195.811 430.436 195.451 430.275 195.141C430.115 194.832 429.841 194.596 429.512 194.483C429.182 194.371 428.821 194.39 428.505 194.538L426.108 195.759C425.949 195.838 425.808 195.948 425.692 196.082C425.576 196.216 425.488 196.372 425.433 196.541C425.378 196.709 425.358 196.887 425.373 197.064C425.388 197.241 425.438 197.413 425.52 197.57C425.679 197.891 425.959 198.136 426.298 198.25C426.637 198.365 427.008 198.34 427.329 198.181V198.159ZM399.895 209.395C400.207 209.254 400.454 209 400.586 208.684C400.718 208.367 400.726 208.013 400.607 207.691C400.488 207.37 400.251 207.106 399.945 206.952C399.639 206.798 399.286 206.767 398.958 206.864L396.408 207.671C396.22 207.703 396.04 207.774 395.881 207.881C395.722 207.987 395.587 208.127 395.486 208.289C395.385 208.451 395.319 208.634 395.293 208.823C395.268 209.013 395.282 209.206 395.337 209.39C395.391 209.573 395.484 209.743 395.609 209.888C395.734 210.033 395.888 210.15 396.061 210.231C396.235 210.312 396.423 210.355 396.615 210.358C396.806 210.36 396.995 210.322 397.171 210.246L399.655 209.46L399.895 209.395ZM434.519 194.32L436.873 192.989C437.029 192.904 437.167 192.79 437.278 192.651C437.389 192.513 437.471 192.354 437.52 192.183C437.569 192.012 437.583 191.833 437.561 191.657C437.54 191.481 437.484 191.31 437.396 191.156C437.218 190.848 436.926 190.623 436.583 190.529C436.241 190.435 435.875 190.48 435.565 190.654L433.212 191.942C433.056 192.026 432.918 192.141 432.807 192.279C432.696 192.417 432.613 192.577 432.564 192.747C432.516 192.918 432.502 193.097 432.523 193.273C432.544 193.45 432.601 193.62 432.689 193.774C432.771 193.932 432.884 194.072 433.022 194.186C433.159 194.299 433.318 194.384 433.489 194.435C433.659 194.486 433.839 194.502 434.016 194.482C434.193 194.462 434.364 194.407 434.519 194.32ZM441.557 190.305H441.71L444.02 188.909C444.17 188.817 444.301 188.697 444.405 188.555C444.508 188.412 444.583 188.251 444.625 188.08C444.666 187.909 444.673 187.731 444.646 187.557C444.619 187.383 444.558 187.216 444.467 187.066C444.375 186.915 444.255 186.784 444.113 186.68C443.971 186.576 443.809 186.502 443.638 186.46C443.467 186.419 443.29 186.411 443.116 186.438C442.942 186.465 442.775 186.527 442.625 186.618L440.337 187.993C440.054 188.173 439.848 188.453 439.759 188.778C439.671 189.102 439.706 189.448 439.858 189.748C440.011 190.048 440.269 190.28 440.583 190.399C440.898 190.518 441.245 190.516 441.557 190.393V190.305ZM392.137 211.773C392.432 211.647 392.672 211.419 392.812 211.13C392.952 210.841 392.983 210.512 392.9 210.202C392.854 210.03 392.775 209.869 392.667 209.727C392.56 209.586 392.425 209.467 392.271 209.378C392.117 209.289 391.947 209.231 391.771 209.207C391.595 209.184 391.416 209.196 391.244 209.242L388.651 209.897C388.309 209.989 388.016 210.212 387.837 210.518C387.658 210.824 387.606 211.189 387.692 211.533C387.73 211.707 387.803 211.873 387.907 212.018C388.011 212.163 388.144 212.286 388.297 212.378C388.45 212.47 388.621 212.529 388.798 212.553C388.975 212.576 389.155 212.563 389.326 212.514L391.941 211.838L392.137 211.773ZM448.378 186.138C448.452 186.121 448.52 186.083 448.574 186.029C449.358 185.549 450.099 185.048 450.753 184.546C450.9 184.449 451.026 184.324 451.124 184.178C451.222 184.032 451.29 183.868 451.324 183.696C451.359 183.523 451.359 183.346 451.324 183.173C451.29 183.001 451.222 182.837 451.123 182.691C451.028 182.543 450.905 182.415 450.76 182.314C450.615 182.214 450.452 182.144 450.279 182.107C450.107 182.07 449.929 182.069 449.756 182.102C449.583 182.134 449.418 182.201 449.271 182.299L447.092 183.76C446.792 183.957 446.581 184.263 446.503 184.614C446.426 184.965 446.489 185.332 446.678 185.637C446.854 185.911 447.122 186.113 447.434 186.205C447.747 186.298 448.082 186.274 448.378 186.138ZM384.271 213.584C384.588 213.458 384.846 213.216 384.993 212.908C385.14 212.6 385.164 212.247 385.062 211.921C384.96 211.595 384.739 211.32 384.442 211.151C384.146 210.982 383.797 210.931 383.465 211.009L380.828 211.555C380.479 211.628 380.173 211.837 379.977 212.135C379.782 212.433 379.711 212.797 379.782 213.147C379.816 213.319 379.883 213.483 379.981 213.629C380.078 213.775 380.203 213.9 380.349 213.998C380.495 214.095 380.659 214.162 380.83 214.196C381.002 214.23 381.179 214.229 381.351 214.194L384.01 213.671L384.271 213.584ZM455.133 181.644C455.214 181.617 455.289 181.572 455.351 181.513C456.113 181.011 456.854 180.488 457.53 179.964C457.676 179.864 457.801 179.735 457.897 179.586C457.992 179.437 458.058 179.27 458.088 179.095C458.118 178.92 458.114 178.741 458.074 178.568C458.034 178.395 457.96 178.232 457.857 178.088C457.651 177.797 457.338 177.6 456.987 177.538C456.636 177.477 456.275 177.557 455.983 177.761C455.264 178.284 454.523 178.786 453.804 179.288C453.51 179.491 453.308 179.802 453.242 180.154C453.177 180.506 453.254 180.869 453.455 181.164C453.633 181.43 453.899 181.624 454.206 181.712C454.513 181.8 454.842 181.776 455.133 181.644ZM376.317 215.067C376.596 214.949 376.827 214.741 376.973 214.476C377.119 214.211 377.172 213.904 377.124 213.605C377.097 213.43 377.036 213.261 376.944 213.109C376.851 212.957 376.729 212.826 376.585 212.722C376.441 212.618 376.277 212.545 376.104 212.505C375.931 212.466 375.752 212.462 375.577 212.493L372.94 212.885C372.75 212.89 372.562 212.935 372.39 213.017C372.218 213.099 372.066 213.216 371.942 213.362C371.819 213.507 371.728 213.677 371.674 213.86C371.621 214.043 371.607 214.235 371.633 214.424C371.66 214.613 371.726 214.794 371.827 214.956C371.928 215.118 372.062 215.256 372.221 215.362C372.379 215.468 372.558 215.539 372.746 215.571C372.934 215.603 373.126 215.595 373.31 215.547C374.204 215.547 375.097 215.285 375.991 215.154L376.317 215.067ZM461.713 176.866H461.975L464.154 175.23C464.295 175.125 464.414 174.993 464.504 174.841C464.593 174.689 464.652 174.521 464.677 174.347C464.701 174.172 464.69 173.995 464.646 173.824C464.601 173.654 464.522 173.494 464.415 173.354C464.312 173.21 464.181 173.089 464.029 172.997C463.878 172.906 463.71 172.846 463.534 172.821C463.359 172.797 463.181 172.808 463.01 172.855C462.84 172.901 462.68 172.982 462.542 173.092L460.362 174.685C460.217 174.788 460.093 174.921 459.999 175.073C459.906 175.226 459.844 175.396 459.817 175.573C459.791 175.751 459.8 175.931 459.845 176.105C459.89 176.278 459.97 176.441 460.079 176.583C460.281 176.805 460.552 176.954 460.848 177.005C461.144 177.057 461.448 177.008 461.713 176.866ZM368.299 216.136C368.563 216.018 368.783 215.819 368.928 215.569C369.073 215.318 369.135 215.028 369.105 214.74C369.066 214.384 368.889 214.059 368.611 213.834C368.334 213.609 367.978 213.503 367.623 213.54L364.987 213.78C364.809 213.794 364.636 213.842 364.477 213.923C364.318 214.004 364.177 214.116 364.062 214.252C363.946 214.388 363.859 214.545 363.804 214.715C363.75 214.885 363.73 215.064 363.745 215.242C363.758 215.419 363.807 215.593 363.888 215.752C363.969 215.911 364.08 216.052 364.216 216.167C364.352 216.283 364.509 216.371 364.679 216.425C364.848 216.48 365.027 216.5 365.205 216.485C366.098 216.485 367.013 216.332 367.906 216.223C368.041 216.217 368.174 216.188 368.299 216.136ZM468.163 172.067L468.469 171.892L470.648 170.19C470.791 170.08 470.911 169.943 471.001 169.786C471.091 169.629 471.149 169.456 471.172 169.277C471.195 169.098 471.183 168.916 471.136 168.741C471.089 168.567 471.008 168.403 470.898 168.26C470.788 168.116 470.651 167.996 470.494 167.906C470.338 167.816 470.165 167.758 469.986 167.734C469.807 167.711 469.625 167.723 469.45 167.77C469.276 167.818 469.113 167.899 468.97 168.009L466.791 169.667C466.511 169.89 466.331 170.215 466.29 170.571C466.249 170.927 466.351 171.284 466.573 171.565C466.744 171.814 466.995 171.997 467.284 172.084C467.573 172.172 467.883 172.158 468.163 172.045V172.067ZM360.236 216.725C360.528 216.601 360.766 216.379 360.911 216.096C361.055 215.814 361.096 215.49 361.025 215.181C360.955 214.872 360.779 214.597 360.527 214.405C360.276 214.212 359.964 214.115 359.648 214.129H356.968C356.79 214.135 356.616 214.175 356.454 214.248C356.292 214.322 356.146 214.426 356.025 214.556C355.904 214.685 355.809 214.838 355.746 215.004C355.684 215.17 355.655 215.348 355.66 215.525C355.666 215.703 355.707 215.878 355.78 216.04C355.853 216.202 355.957 216.347 356.087 216.469C356.216 216.591 356.368 216.685 356.535 216.748C356.701 216.811 356.878 216.84 357.055 216.834H359.757C359.922 216.814 360.084 216.77 360.236 216.703V216.725ZM474.439 166.94C474.562 166.901 474.674 166.833 474.766 166.743L476.945 164.976C477.08 164.861 477.19 164.721 477.27 164.562C477.349 164.404 477.397 164.232 477.409 164.055C477.421 163.878 477.398 163.701 477.341 163.533C477.284 163.365 477.193 163.211 477.076 163.078C476.844 162.808 476.514 162.64 476.159 162.611C475.804 162.583 475.452 162.696 475.18 162.926L473.132 164.671C472.943 164.892 472.83 165.167 472.81 165.457C472.789 165.747 472.863 166.036 473.019 166.281C473.176 166.525 473.407 166.713 473.678 166.816C473.95 166.919 474.247 166.932 474.526 166.853L474.439 166.94ZM480.562 161.595C480.697 161.543 480.822 161.47 480.932 161.377L482.959 159.544C483.208 159.291 483.347 158.95 483.347 158.595C483.347 158.24 483.208 157.899 482.959 157.646C482.703 157.395 482.358 157.255 482 157.255C481.642 157.255 481.298 157.395 481.041 157.646L479.059 159.435C478.925 159.553 478.816 159.697 478.737 159.858C478.659 160.019 478.614 160.194 478.604 160.372C478.594 160.551 478.619 160.729 478.678 160.898C478.738 161.067 478.83 161.222 478.95 161.355C479.152 161.572 479.421 161.714 479.714 161.757C480.007 161.801 480.306 161.744 480.562 161.595ZM352.152 216.812C352.445 216.701 352.689 216.489 352.841 216.215C352.993 215.941 353.044 215.622 352.984 215.314C352.924 215.006 352.758 214.729 352.514 214.532C352.27 214.336 351.964 214.231 351.651 214.238H348.971C348.78 214.214 348.587 214.23 348.404 214.286C348.22 214.343 348.051 214.438 347.907 214.564C347.763 214.691 347.647 214.848 347.568 215.023C347.489 215.198 347.449 215.388 347.449 215.58C347.449 215.772 347.489 215.962 347.568 216.137C347.647 216.312 347.763 216.468 347.907 216.595C348.051 216.722 348.22 216.817 348.404 216.873C348.587 216.929 348.78 216.946 348.971 216.921C349.886 216.921 350.779 216.921 351.695 216.921C351.853 216.918 352.009 216.881 352.152 216.812ZM486.533 156.162C486.673 156.091 486.805 156.003 486.925 155.901L488.886 154.003C489.135 153.75 489.274 153.409 489.274 153.054C489.274 152.699 489.135 152.358 488.886 152.105C488.63 151.854 488.285 151.714 487.927 151.714C487.569 151.714 487.225 151.854 486.968 152.105L485.051 153.981C484.848 154.204 484.725 154.49 484.703 154.791C484.681 155.092 484.76 155.393 484.928 155.644C485.096 155.895 485.343 156.082 485.63 156.176C485.917 156.27 486.227 156.265 486.511 156.162H486.533ZM344.09 216.463C344.312 216.361 344.503 216.203 344.644 216.004C344.786 215.805 344.872 215.572 344.896 215.329C344.92 214.971 344.804 214.618 344.572 214.345C344.34 214.072 344.01 213.9 343.654 213.867L340.996 213.649C340.638 213.618 340.283 213.729 340.006 213.957C339.729 214.186 339.552 214.514 339.514 214.871C339.484 215.226 339.595 215.579 339.823 215.853C340.052 216.127 340.379 216.299 340.734 216.332L343.436 216.572C343.66 216.593 343.885 216.555 344.09 216.463ZM492.263 150.447C492.426 150.373 492.574 150.269 492.699 150.141C493.941 148.854 494.573 148.134 494.573 148.134C494.7 148.004 494.799 147.849 494.865 147.679C494.931 147.51 494.962 147.328 494.956 147.146C494.95 146.965 494.908 146.786 494.831 146.621C494.755 146.455 494.646 146.307 494.511 146.185C494.376 146.064 494.218 145.97 494.046 145.911C493.874 145.852 493.692 145.828 493.51 145.841C493.329 145.853 493.152 145.903 492.99 145.986C492.828 146.069 492.685 146.183 492.569 146.323L490.76 148.265C490.51 148.522 490.37 148.866 490.37 149.225C490.37 149.584 490.51 149.928 490.76 150.185C490.963 150.369 491.214 150.492 491.484 150.539C491.755 150.585 492.033 150.553 492.285 150.447H492.263ZM336.027 215.612C336.237 215.52 336.42 215.376 336.557 215.192C336.695 215.009 336.782 214.793 336.812 214.565C336.836 214.389 336.826 214.21 336.781 214.037C336.736 213.865 336.658 213.704 336.551 213.562C336.444 213.42 336.309 213.301 336.156 213.211C336.003 213.121 335.833 213.062 335.657 213.038L333.02 212.645C332.665 212.59 332.302 212.679 332.012 212.892C331.722 213.105 331.528 213.424 331.473 213.78C331.418 214.136 331.507 214.499 331.719 214.789C331.932 215.08 332.251 215.274 332.606 215.329L335.308 215.722C335.56 215.744 335.814 215.706 336.049 215.612H336.027ZM328.052 214.282C328.294 214.154 328.492 213.955 328.618 213.712C328.745 213.47 328.796 213.194 328.763 212.922C328.729 212.65 328.615 212.394 328.433 212.189C328.252 211.984 328.013 211.839 327.747 211.773C326.875 211.62 326.026 211.424 325.154 211.227C324.807 211.157 324.447 211.226 324.15 211.418C323.854 211.611 323.644 211.913 323.567 212.258C323.49 212.604 323.552 212.966 323.738 213.267C323.925 213.568 324.222 213.783 324.566 213.867L327.224 214.434C327.516 214.472 327.813 214.418 328.074 214.282H328.052ZM320.164 212.471C320.356 212.388 320.526 212.262 320.662 212.104C320.798 211.945 320.896 211.757 320.949 211.555C320.994 211.384 321.006 211.206 320.982 211.031C320.959 210.856 320.901 210.688 320.811 210.535C320.722 210.383 320.604 210.25 320.463 210.144C320.322 210.038 320.161 209.961 319.99 209.918L317.419 209.22C317.248 209.167 317.069 209.149 316.892 209.166C316.714 209.184 316.542 209.237 316.386 209.322C316.229 209.408 316.091 209.524 315.98 209.664C315.87 209.804 315.788 209.964 315.741 210.136C315.646 210.484 315.691 210.854 315.867 211.168C316.042 211.482 316.333 211.715 316.678 211.816L319.292 212.536C319.59 212.609 319.902 212.586 320.186 212.471H320.164ZM312.428 210.289C312.602 210.209 312.758 210.094 312.885 209.952C313.012 209.809 313.109 209.642 313.169 209.46C313.273 209.119 313.24 208.75 313.078 208.433C312.915 208.115 312.635 207.873 312.298 207.758L309.77 206.908C309.432 206.795 309.063 206.819 308.742 206.973C308.421 207.128 308.172 207.402 308.049 207.737C307.991 207.906 307.967 208.085 307.978 208.263C307.989 208.441 308.036 208.616 308.115 208.776C308.194 208.936 308.304 209.079 308.438 209.197C308.573 209.314 308.729 209.404 308.898 209.46L311.47 210.333C311.642 210.377 311.821 210.387 311.997 210.36C312.173 210.334 312.342 210.273 312.494 210.18L312.428 210.289ZM304.846 207.409C305.17 207.262 305.427 206.997 305.565 206.668C305.693 206.335 305.685 205.965 305.542 205.638C305.399 205.311 305.133 205.054 304.802 204.922L302.318 203.919C302.153 203.851 301.977 203.817 301.799 203.817C301.622 203.818 301.445 203.854 301.281 203.923C301.117 203.992 300.969 204.092 300.844 204.219C300.719 204.346 300.62 204.496 300.553 204.661C300.422 204.994 300.427 205.365 300.565 205.695C300.703 206.025 300.965 206.288 301.294 206.428L303.778 207.409C303.946 207.483 304.128 207.521 304.312 207.521C304.495 207.521 304.677 207.483 304.846 207.409ZM297.393 204.246C297.549 204.186 297.691 204.095 297.811 203.979C297.93 203.863 298.026 203.724 298.091 203.57C298.238 203.243 298.249 202.871 298.123 202.535C297.996 202.2 297.742 201.928 297.415 201.781L294.996 200.646C294.675 200.509 294.313 200.502 293.987 200.626C293.66 200.75 293.394 200.996 293.245 201.312C293.096 201.628 293.074 201.99 293.185 202.321C293.297 202.653 293.532 202.928 293.841 203.09L296.304 204.246C296.474 204.325 296.659 204.368 296.846 204.372C297.034 204.376 297.22 204.34 297.393 204.268V204.246ZM290.137 200.69C290.421 200.571 290.653 200.354 290.791 200.079C290.874 199.922 290.926 199.749 290.943 199.572C290.959 199.394 290.941 199.215 290.888 199.045C290.835 198.875 290.75 198.716 290.636 198.579C290.522 198.442 290.382 198.329 290.224 198.247L287.871 196.981C287.715 196.89 287.542 196.832 287.362 196.809C287.183 196.786 287.001 196.8 286.827 196.849C286.652 196.898 286.49 196.981 286.349 197.094C286.207 197.207 286.09 197.348 286.004 197.507C285.918 197.666 285.865 197.841 285.848 198.021C285.83 198.201 285.849 198.383 285.903 198.556C285.958 198.729 286.046 198.889 286.163 199.027C286.28 199.165 286.424 199.278 286.585 199.359L288.982 200.646C289.158 200.742 289.353 200.798 289.552 200.809C289.752 200.82 289.952 200.787 290.137 200.712V200.69ZM283.077 196.741C283.342 196.635 283.565 196.443 283.709 196.196C283.886 195.885 283.935 195.517 283.845 195.171C283.756 194.825 283.535 194.527 283.23 194.341L280.942 192.967C280.638 192.78 280.273 192.722 279.926 192.803C279.579 192.885 279.278 193.101 279.089 193.403C278.902 193.711 278.843 194.08 278.924 194.431C279.006 194.781 279.222 195.086 279.525 195.279L281.857 196.676C282.039 196.785 282.244 196.85 282.457 196.866C282.669 196.881 282.881 196.846 283.077 196.763V196.741ZM276.213 192.378C276.462 192.275 276.674 192.1 276.823 191.876C276.92 191.729 276.987 191.564 277.02 191.391C277.053 191.217 277.051 191.039 277.015 190.867C276.978 190.694 276.908 190.531 276.808 190.386C276.707 190.24 276.579 190.117 276.431 190.022C275.69 189.52 274.949 189.04 274.252 188.516C273.964 188.383 273.639 188.355 273.333 188.438C273.027 188.52 272.759 188.708 272.577 188.968C272.396 189.228 272.311 189.544 272.338 189.86C272.365 190.176 272.503 190.473 272.727 190.698L274.906 192.203C275.078 192.364 275.29 192.475 275.52 192.525C275.751 192.575 275.99 192.562 276.213 192.487V192.378ZM269.567 187.775C269.791 187.682 269.987 187.531 270.134 187.338C270.239 187.194 270.315 187.03 270.356 186.856C270.398 186.682 270.405 186.502 270.377 186.326C270.348 186.149 270.285 185.98 270.191 185.828C270.097 185.676 269.974 185.544 269.829 185.44L267.65 183.848C267.361 183.634 266.999 183.543 266.643 183.596C266.288 183.65 265.968 183.842 265.754 184.131C265.54 184.421 265.45 184.783 265.503 185.139C265.556 185.495 265.748 185.815 266.037 186.029L268.216 187.622C268.39 187.794 268.612 187.911 268.852 187.957C269.092 188.004 269.341 187.978 269.567 187.884V187.775ZM263.139 182.888C263.34 182.797 263.519 182.663 263.662 182.495C263.771 182.355 263.851 182.194 263.898 182.023C263.944 181.851 263.957 181.673 263.935 181.496C263.913 181.32 263.856 181.15 263.768 180.996C263.68 180.841 263.562 180.706 263.422 180.597L261.243 178.917C261.1 178.805 260.937 178.723 260.762 178.675C260.587 178.626 260.404 178.613 260.224 178.635C260.044 178.657 259.87 178.715 259.712 178.804C259.554 178.894 259.416 179.014 259.304 179.157C259.192 179.3 259.11 179.464 259.062 179.639C259.013 179.814 259 179.997 259.022 180.178C259.044 180.358 259.102 180.532 259.191 180.69C259.281 180.848 259.401 180.987 259.544 181.099L261.723 182.8C261.914 182.967 262.15 183.075 262.402 183.11C262.653 183.145 262.909 183.105 263.139 182.997V182.888ZM256.885 177.739C257.077 177.664 257.249 177.544 257.386 177.39C257.617 177.114 257.731 176.758 257.702 176.399C257.674 176.04 257.505 175.706 257.234 175.47L255.207 173.725C255.078 173.586 254.922 173.476 254.747 173.402C254.573 173.328 254.385 173.291 254.196 173.294C254.007 173.298 253.821 173.341 253.649 173.421C253.477 173.501 253.325 173.616 253.2 173.759C253.076 173.901 252.983 174.069 252.927 174.25C252.872 174.431 252.855 174.622 252.878 174.81C252.901 174.998 252.963 175.179 253.06 175.342C253.157 175.504 253.288 175.645 253.442 175.754L255.491 177.521C255.666 177.705 255.891 177.835 256.139 177.893C256.387 177.951 256.646 177.935 256.885 177.848V177.739ZM250.871 172.503C251.039 172.429 251.189 172.317 251.307 172.176C251.433 172.052 251.533 171.904 251.601 171.741C251.669 171.578 251.704 171.403 251.704 171.227C251.704 171.05 251.669 170.875 251.601 170.712C251.533 170.549 251.433 170.402 251.307 170.278L249.346 168.445C249.222 168.319 249.075 168.219 248.912 168.151C248.749 168.083 248.574 168.047 248.398 168.047C248.221 168.047 248.047 168.083 247.884 168.151C247.721 168.219 247.574 168.319 247.45 168.445C247.324 168.571 247.223 168.72 247.155 168.885C247.086 169.05 247.051 169.227 247.051 169.405C247.051 169.584 247.086 169.76 247.155 169.925C247.223 170.09 247.324 170.239 247.45 170.365L249.433 172.219C249.618 172.403 249.854 172.527 250.109 172.578C250.365 172.628 250.63 172.602 250.871 172.503ZM244.944 166.853C245.099 166.786 245.24 166.69 245.358 166.569C245.607 166.316 245.747 165.975 245.747 165.62C245.747 165.265 245.607 164.924 245.358 164.671L243.462 162.751C243.21 162.502 242.869 162.362 242.515 162.362C242.16 162.362 241.819 162.502 241.567 162.751C241.441 162.875 241.341 163.023 241.273 163.186C241.204 163.349 241.169 163.523 241.169 163.7C241.169 163.877 241.204 164.052 241.273 164.215C241.341 164.378 241.441 164.525 241.567 164.649L243.484 166.569C243.67 166.759 243.909 166.888 244.17 166.939C244.431 166.99 244.701 166.959 244.944 166.853ZM239.279 161.093C239.43 161.019 239.569 160.923 239.693 160.809C239.943 160.553 240.083 160.208 240.083 159.849C240.083 159.491 239.943 159.146 239.693 158.89L237.775 156.97C237.651 156.844 237.504 156.744 237.341 156.675C237.178 156.607 237.004 156.572 236.827 156.572C236.651 156.572 236.476 156.607 236.313 156.675C236.151 156.744 236.003 156.844 235.879 156.97C235.631 157.223 235.491 157.564 235.491 157.919C235.491 158.274 235.631 158.615 235.879 158.868L237.775 160.766C237.973 160.98 238.233 161.126 238.518 161.185C238.803 161.244 239.1 161.212 239.366 161.093H239.279ZM233.504 155.421C233.712 155.341 233.899 155.214 234.049 155.05C234.176 154.924 234.276 154.775 234.344 154.61C234.413 154.445 234.448 154.268 234.448 154.09C234.448 153.911 234.413 153.735 234.344 153.57C234.276 153.405 234.176 153.256 234.049 153.13L232.066 151.276C231.81 151.025 231.466 150.885 231.107 150.885C230.749 150.885 230.405 151.025 230.149 151.276C229.9 151.529 229.76 151.869 229.76 152.225C229.76 152.58 229.9 152.921 230.149 153.174L232.11 155.006C232.285 155.218 232.521 155.371 232.786 155.445C233.051 155.519 233.332 155.511 233.591 155.421H233.504ZM227.512 149.967C227.701 149.897 227.867 149.776 227.991 149.618C228.24 149.365 228.38 149.024 228.38 148.669C228.38 148.313 228.24 147.973 227.991 147.72L225.812 145.952C225.543 145.72 225.192 145.603 224.838 145.628C224.483 145.652 224.152 145.816 223.917 146.083C223.686 146.359 223.572 146.715 223.601 147.074C223.629 147.433 223.797 147.767 224.069 148.003L226.096 149.748C226.287 149.914 226.522 150.022 226.772 150.061C227.023 150.1 227.279 150.067 227.512 149.967ZM221.323 144.774C221.524 144.683 221.703 144.549 221.847 144.382C222.066 144.101 222.168 143.747 222.131 143.393C222.094 143.039 221.922 142.713 221.65 142.484C220.931 141.895 220.234 141.327 219.471 140.782C219.182 140.562 218.818 140.466 218.458 140.515C218.099 140.564 217.773 140.754 217.554 141.044C217.334 141.333 217.238 141.698 217.287 142.058C217.336 142.418 217.526 142.744 217.815 142.964L219.994 144.622C220.194 144.774 220.431 144.869 220.681 144.896C220.931 144.923 221.183 144.881 221.411 144.774H221.323ZM214.917 139.822C215.141 139.729 215.337 139.579 215.484 139.386C215.692 139.098 215.779 138.74 215.726 138.389C215.673 138.038 215.484 137.722 215.2 137.509L213.021 135.917C212.728 135.709 212.366 135.625 212.011 135.682C211.657 135.74 211.339 135.933 211.126 136.222C210.922 136.515 210.842 136.876 210.903 137.228C210.965 137.579 211.162 137.892 211.453 138.098L213.632 139.669C213.827 139.816 214.059 139.904 214.302 139.923C214.545 139.943 214.789 139.892 215.004 139.778L214.917 139.822ZM208.38 135.197C208.621 135.092 208.826 134.917 208.968 134.695C209.162 134.395 209.232 134.032 209.163 133.682C209.093 133.332 208.891 133.022 208.598 132.819L206.31 131.335C206.028 131.241 205.722 131.242 205.441 131.339C205.159 131.437 204.918 131.624 204.754 131.873C204.59 132.122 204.513 132.418 204.534 132.715C204.555 133.012 204.674 133.294 204.872 133.517L207.051 134.979C207.235 135.126 207.454 135.224 207.687 135.262C207.92 135.3 208.158 135.278 208.38 135.197ZM201.538 130.834C201.795 130.714 202.014 130.525 202.17 130.288C202.347 129.977 202.395 129.61 202.306 129.264C202.216 128.917 201.996 128.62 201.691 128.434L199.337 127.081C199.184 126.968 199.008 126.889 198.822 126.849C198.635 126.808 198.443 126.808 198.256 126.848C198.07 126.887 197.894 126.966 197.74 127.079C197.586 127.191 197.458 127.335 197.363 127.501C197.269 127.667 197.21 127.851 197.192 128.041C197.174 128.23 197.196 128.422 197.257 128.603C197.318 128.784 197.416 128.95 197.545 129.09C197.675 129.23 197.833 129.341 198.008 129.415L200.318 130.768C200.496 130.885 200.7 130.958 200.912 130.98C201.124 131.003 201.339 130.975 201.538 130.899V130.834ZM194.456 126.928C194.744 126.796 194.981 126.574 195.132 126.296C195.292 125.977 195.32 125.608 195.21 125.269C195.099 124.93 194.86 124.648 194.543 124.485L192.125 123.263C191.803 123.11 191.434 123.088 191.097 123.202C190.759 123.316 190.479 123.557 190.316 123.874C190.157 124.195 190.133 124.566 190.247 124.906C190.361 125.245 190.606 125.525 190.926 125.685L193.301 126.885C193.474 126.988 193.667 127.051 193.866 127.07C194.066 127.089 194.268 127.063 194.456 126.994V126.928ZM187.178 123.416C187.484 123.281 187.731 123.041 187.875 122.74C187.948 122.576 187.987 122.401 187.991 122.222C187.995 122.044 187.964 121.866 187.899 121.7C187.834 121.533 187.737 121.382 187.613 121.253C187.49 121.125 187.342 121.022 187.178 120.951L184.672 119.882C184.342 119.75 183.974 119.751 183.645 119.885C183.316 120.019 183.051 120.276 182.907 120.602C182.84 120.766 182.805 120.943 182.806 121.121C182.807 121.299 182.842 121.475 182.911 121.639C182.98 121.803 183.081 121.952 183.207 122.078C183.333 122.203 183.483 122.302 183.648 122.369L186.089 123.416C186.256 123.502 186.439 123.552 186.627 123.564C186.814 123.575 187.002 123.547 187.178 123.481V123.416ZM4.29282 196.305C4.52249 196.211 4.71927 196.052 4.85913 195.847L6.45004 193.665C6.66675 193.376 6.75967 193.012 6.70859 192.654C6.6575 192.296 6.46661 191.973 6.17764 191.756C5.8887 191.539 5.52551 191.446 5.16794 191.497C4.81036 191.548 4.48773 191.74 4.271 192.029L2.63675 194.21C2.43637 194.502 2.3562 194.86 2.41302 195.21C2.46988 195.559 2.65909 195.874 2.94156 196.087C3.12048 196.251 3.34061 196.364 3.57837 196.414C3.8161 196.464 4.06296 196.449 4.29282 196.37V196.305ZM179.573 120.449C179.742 120.378 179.895 120.274 180.022 120.143C180.149 120.012 180.249 119.856 180.314 119.685C180.432 119.358 180.421 118.997 180.283 118.677C180.146 118.357 179.892 118.102 179.573 117.962L177.002 117.067C176.827 117.003 176.64 116.975 176.453 116.986C176.266 116.996 176.083 117.045 175.916 117.129C175.749 117.212 175.6 117.329 175.48 117.473C175.359 117.616 175.269 117.782 175.215 117.962C175.104 118.303 175.13 118.675 175.289 118.997C175.448 119.319 175.727 119.566 176.065 119.685C176.893 119.969 177.743 120.253 178.571 120.58C178.91 120.659 179.266 120.613 179.573 120.449ZM9.21716 189.956C9.42142 189.871 9.60144 189.736 9.74039 189.564L11.418 187.382C11.6451 187.107 11.7542 186.752 11.7215 186.397C11.6888 186.041 11.5172 185.713 11.2438 185.484C10.9639 185.264 10.61 185.162 10.2564 185.199C9.90283 185.236 9.57715 185.408 9.34805 185.68L7.62653 187.862C7.40445 188.143 7.30267 188.5 7.34351 188.856C7.38437 189.212 7.56445 189.537 7.84436 189.76C8.03299 189.916 8.26102 190.017 8.50323 190.052C8.74545 190.086 8.99246 190.053 9.21716 189.956ZM172.012 117.962C172.191 117.881 172.352 117.763 172.483 117.617C172.614 117.47 172.714 117.298 172.775 117.111C172.87 116.767 172.828 116.399 172.657 116.085C172.486 115.772 172.2 115.537 171.86 115.431L169.223 114.689C169.053 114.643 168.875 114.632 168.7 114.656C168.525 114.679 168.357 114.737 168.205 114.827C168.053 114.916 167.92 115.035 167.814 115.176C167.709 115.317 167.632 115.478 167.589 115.649C167.495 115.993 167.541 116.361 167.716 116.671C167.892 116.982 168.183 117.211 168.526 117.307C169.376 117.525 170.247 117.765 171.097 118.027C171.4 118.115 171.725 118.092 172.012 117.962ZM14.3814 183.717C14.5747 183.633 14.7464 183.506 14.8828 183.346L16.6259 181.317C16.7644 181.188 16.8743 181.031 16.9483 180.856C17.0223 180.682 17.0589 180.494 17.0558 180.305C17.0526 180.115 17.0095 179.928 16.9297 179.757C16.8498 179.585 16.7348 179.432 16.5921 179.307C16.4494 179.183 16.2823 179.09 16.1014 179.034C15.9204 178.979 15.7299 178.962 15.542 178.985C15.3541 179.007 15.1732 179.07 15.0108 179.167C14.8484 179.264 14.7084 179.395 14.5995 179.55L12.8344 181.601C12.7167 181.733 12.6267 181.887 12.5695 182.055C12.5123 182.223 12.489 182.4 12.5011 182.577C12.5133 182.754 12.5605 182.926 12.6403 183.085C12.7199 183.243 12.8306 183.384 12.9653 183.499C13.1616 183.657 13.398 183.757 13.6484 183.788C13.8987 183.819 14.1526 183.779 14.3814 183.673V183.717ZM164.168 116.086C164.366 116 164.54 115.868 164.676 115.701C164.813 115.534 164.907 115.337 164.952 115.126C165.03 114.776 164.966 114.409 164.774 114.106C164.582 113.803 164.277 113.589 163.928 113.511L161.248 112.966C160.898 112.902 160.538 112.978 160.244 113.178C159.951 113.378 159.748 113.686 159.679 114.035C159.644 114.21 159.644 114.39 159.679 114.564C159.714 114.739 159.783 114.905 159.882 115.053C159.981 115.201 160.109 115.328 160.257 115.427C160.406 115.525 160.572 115.594 160.747 115.627C161.618 115.78 162.49 115.977 163.362 116.151C163.647 116.172 163.932 116.095 164.168 115.933V116.086ZM19.742 177.739C19.9201 177.671 20.0775 177.558 20.1995 177.412L22.0298 175.426C22.2787 175.173 22.4182 174.833 22.4182 174.477C22.4182 174.122 22.2787 173.781 22.0298 173.528C21.7734 173.278 21.4295 173.138 21.0712 173.138C20.7129 173.138 20.3687 173.278 20.1123 173.528L18.282 175.536C18.0331 175.789 17.8936 176.129 17.8936 176.485C17.8936 176.84 18.0331 177.181 18.282 177.434C18.4821 177.602 18.7282 177.707 18.9885 177.734C19.2487 177.762 19.5114 177.71 19.742 177.586V177.739ZM25.2766 171.827C25.4415 171.767 25.5907 171.67 25.7125 171.543C26.3227 170.889 26.9546 170.256 27.5865 169.601C27.8353 169.348 27.9748 169.008 27.9748 168.652C27.9748 168.297 27.8353 167.956 27.5865 167.703C27.33 167.453 26.9861 167.313 26.6278 167.313C26.2695 167.313 25.9253 167.453 25.6689 167.703L23.7732 169.667C23.5243 169.92 23.3848 170.261 23.3848 170.616C23.3848 170.971 23.5243 171.312 23.7732 171.565C23.9819 171.736 24.2384 171.839 24.5076 171.858C24.7768 171.878 25.0453 171.813 25.2766 171.674V171.827ZM156.214 114.493C156.427 114.402 156.613 114.258 156.754 114.075C156.895 113.891 156.987 113.675 157.021 113.446C157.071 113.093 156.979 112.735 156.767 112.449C156.555 112.163 156.239 111.973 155.887 111.919C154.972 111.788 154.079 111.657 153.164 111.57C152.989 111.548 152.812 111.562 152.642 111.61C152.473 111.658 152.315 111.739 152.177 111.849C152.039 111.958 151.924 112.094 151.839 112.248C151.754 112.403 151.701 112.572 151.682 112.748C151.639 113.103 151.739 113.462 151.959 113.744C152.18 114.026 152.503 114.209 152.859 114.253L155.495 114.58C155.738 114.618 155.987 114.588 156.214 114.493ZM31.0074 165.958C31.1508 165.891 31.2831 165.803 31.3997 165.696L33.3391 163.82C33.4926 163.706 33.6201 163.56 33.7131 163.393C33.8061 163.225 33.8627 163.04 33.8788 162.849C33.8949 162.658 33.8701 162.466 33.8065 162.285C33.7428 162.104 33.6418 161.939 33.5096 161.801C33.3774 161.662 33.2172 161.553 33.0399 161.481C32.8625 161.409 32.672 161.376 32.4807 161.383C32.2895 161.391 32.102 161.439 31.9307 161.524C31.7593 161.609 31.6082 161.73 31.487 161.878C30.8115 162.511 30.1577 163.122 29.5258 163.755C29.3993 163.88 29.2988 164.03 29.2303 164.195C29.1618 164.359 29.1266 164.536 29.1266 164.715C29.1266 164.893 29.1618 165.07 29.2303 165.234C29.2988 165.399 29.3993 165.549 29.5258 165.674C29.7182 165.861 29.961 165.988 30.2243 166.038C30.4876 166.089 30.7598 166.061 31.0074 165.958ZM148.174 113.599C148.404 113.5 148.603 113.34 148.749 113.136C148.895 112.932 148.982 112.692 149.002 112.442C149.02 112.085 148.898 111.734 148.662 111.465C148.426 111.196 148.094 111.03 147.738 111.002L145.014 110.85C144.659 110.838 144.314 110.966 144.053 111.207C143.792 111.448 143.637 111.782 143.62 112.137C143.611 112.314 143.637 112.492 143.697 112.66C143.757 112.827 143.849 112.981 143.969 113.113C144.088 113.245 144.232 113.351 144.393 113.427C144.553 113.503 144.728 113.546 144.905 113.555L147.564 113.708C147.773 113.729 147.984 113.691 148.174 113.599ZM36.8909 160.329C37.031 160.279 37.1575 160.197 37.2612 160.089L39.2442 158.301C39.3781 158.182 39.4872 158.038 39.5652 157.877C39.6433 157.717 39.6886 157.542 39.6988 157.363C39.7089 157.185 39.6836 157.006 39.6243 156.837C39.565 156.669 39.4729 156.513 39.3532 156.381C39.1122 156.121 38.7805 155.965 38.4273 155.945C38.0741 155.925 37.7267 156.042 37.4575 156.272L35.4527 158.104C35.3269 158.228 35.227 158.376 35.1588 158.539C35.0906 158.702 35.0553 158.876 35.0553 159.053C35.0553 159.23 35.0906 159.405 35.1588 159.568C35.227 159.731 35.3269 159.878 35.4527 160.002C35.6266 160.203 35.8574 160.346 36.1142 160.412C36.3711 160.478 36.6419 160.465 36.8909 160.373V160.329ZM140.111 113.38C140.35 113.272 140.553 113.097 140.696 112.877C140.839 112.656 140.916 112.4 140.918 112.137C140.918 111.778 140.775 111.434 140.522 111.18C140.268 110.927 139.925 110.784 139.567 110.784H136.843C136.665 110.79 136.491 110.83 136.329 110.904C136.167 110.977 136.022 111.081 135.9 111.211C135.779 111.341 135.684 111.493 135.621 111.659C135.559 111.826 135.53 112.003 135.535 112.18C135.538 112.357 135.576 112.531 135.647 112.693C135.718 112.855 135.82 113.001 135.948 113.123C136.076 113.245 136.226 113.34 136.391 113.403C136.556 113.466 136.732 113.495 136.908 113.489H139.588C139.768 113.485 139.945 113.448 140.111 113.38ZM42.9487 155.05C43.081 155.007 43.2005 154.932 43.2971 154.832L45.3456 153.108C45.6201 152.877 45.7916 152.546 45.8222 152.188C45.8529 151.83 45.7401 151.474 45.5089 151.199C45.2777 150.924 44.9469 150.753 44.5894 150.722C44.2318 150.691 43.8767 150.804 43.6022 151.036L41.5323 152.803C41.3391 153.024 41.2234 153.303 41.2027 153.597C41.182 153.89 41.2575 154.182 41.4176 154.429C41.5778 154.676 41.8138 154.863 42.0901 154.964C42.3663 155.064 42.6679 155.071 42.9487 154.984V155.05ZM49.1807 149.901C49.2944 149.857 49.3982 149.79 49.4858 149.705L51.6648 148.047C51.8079 147.938 51.928 147.802 52.0186 147.646C52.1091 147.491 52.1682 147.319 52.1925 147.141C52.2168 146.963 52.2058 146.781 52.1601 146.607C52.1143 146.433 52.035 146.27 51.9263 146.127C51.8175 145.984 51.6817 145.863 51.5265 145.773C51.3712 145.682 51.1997 145.623 51.0216 145.598C50.8436 145.574 50.6624 145.585 50.4886 145.631C50.3148 145.677 50.1518 145.756 50.0087 145.865L47.8297 147.545C47.6446 147.764 47.5339 148.037 47.5139 148.324C47.494 148.61 47.5659 148.896 47.7188 149.139C47.8717 149.382 48.0978 149.57 48.3646 149.675C48.6313 149.781 48.9249 149.799 49.2025 149.727L49.1807 149.901ZM131.984 113.751C132.243 113.645 132.461 113.458 132.606 113.219C132.751 112.979 132.815 112.699 132.79 112.42C132.782 112.242 132.738 112.068 132.66 111.908C132.582 111.748 132.473 111.605 132.338 111.488C132.204 111.372 132.047 111.284 131.877 111.231C131.707 111.177 131.529 111.159 131.352 111.177C130.436 111.177 129.543 111.308 128.628 111.417C128.452 111.43 128.28 111.479 128.124 111.561C127.967 111.642 127.829 111.755 127.717 111.892C127.605 112.028 127.522 112.186 127.472 112.356C127.423 112.525 127.408 112.703 127.429 112.879C127.468 113.236 127.645 113.563 127.922 113.792C128.199 114.02 128.554 114.131 128.911 114.1L131.635 113.817C131.77 113.799 131.902 113.763 132.027 113.708L131.984 113.751ZM55.5651 144.971L55.8265 144.796L58.0056 143.225C58.1597 143.125 58.2919 142.995 58.3939 142.842C58.496 142.689 58.5659 142.517 58.5993 142.336C58.6326 142.155 58.6286 141.969 58.5878 141.79C58.547 141.611 58.47 141.441 58.3617 141.293C58.2534 141.144 58.1161 141.019 57.9579 140.926C57.7998 140.832 57.6241 140.772 57.4419 140.749C57.2597 140.725 57.0748 140.739 56.8982 140.79C56.7216 140.841 56.5571 140.927 56.4149 141.044L54.2359 142.636C54.0906 142.738 53.9676 142.868 53.8741 143.019C53.7807 143.17 53.7187 143.338 53.6922 143.514C53.6657 143.689 53.6751 143.868 53.7198 144.04C53.7646 144.212 53.8438 144.372 53.9526 144.512C54.1361 144.765 54.4026 144.945 54.7054 145.021C55.0081 145.097 55.328 145.064 55.6087 144.927L55.5651 144.971ZM124.008 114.602C124.279 114.481 124.502 114.275 124.643 114.015C124.785 113.755 124.838 113.455 124.793 113.162C124.739 112.81 124.548 112.494 124.263 112.281C123.977 112.069 123.62 111.978 123.268 112.028L120.566 112.464C120.392 112.493 120.226 112.556 120.077 112.65C119.928 112.744 119.799 112.866 119.697 113.01C119.596 113.155 119.524 113.317 119.486 113.49C119.448 113.662 119.445 113.84 119.476 114.013C119.535 114.365 119.73 114.68 120.02 114.889C120.31 115.097 120.671 115.182 121.023 115.126L123.66 114.711L124.008 114.602ZM62.2112 140.236L62.429 140.106L64.6081 138.6C64.7968 138.526 64.9665 138.41 65.1044 138.261C65.2424 138.113 65.3451 137.935 65.405 137.741C65.4649 137.547 65.4805 137.342 65.4505 137.141C65.4204 136.94 65.3456 136.748 65.2316 136.581C65.1175 136.413 64.9671 136.273 64.7916 136.171C64.6161 136.069 64.42 136.008 64.2179 135.993C64.0157 135.977 63.8126 136.007 63.6236 136.081C63.4347 136.155 63.2648 136.27 63.1265 136.419L60.9474 137.946C60.6534 138.149 60.4515 138.46 60.3862 138.812C60.3209 139.163 60.3973 139.527 60.5987 139.822C60.785 140.058 61.0437 140.227 61.335 140.302C61.6263 140.377 61.9342 140.354 62.2112 140.236ZM116.033 116.064C116.323 115.943 116.561 115.723 116.704 115.444C116.848 115.164 116.888 114.843 116.817 114.537C116.784 114.363 116.716 114.197 116.617 114.051C116.518 113.904 116.39 113.779 116.241 113.683C116.093 113.587 115.926 113.523 115.752 113.493C115.577 113.463 115.399 113.47 115.227 113.511C114.333 113.686 113.44 113.904 112.547 114.122C112.376 114.163 112.215 114.237 112.073 114.341C111.932 114.444 111.812 114.575 111.72 114.725C111.629 114.875 111.569 115.042 111.542 115.215C111.516 115.389 111.524 115.566 111.566 115.737C111.649 116.083 111.865 116.382 112.167 116.57C112.468 116.758 112.832 116.819 113.179 116.74L115.793 116.129C115.876 116.121 115.957 116.099 116.033 116.064ZM68.9879 135.699H69.1621L71.4502 134.302C71.7561 134.117 71.976 133.817 72.0618 133.47C72.1475 133.122 72.0922 132.755 71.9077 132.448C71.8181 132.294 71.6985 132.16 71.5561 132.053C71.4137 131.946 71.2514 131.869 71.0786 131.827C70.9059 131.784 70.7263 131.776 70.5507 131.804C70.3749 131.832 70.2065 131.895 70.0556 131.99C69.2712 132.448 68.5087 132.928 67.746 133.408C67.4763 133.596 67.2842 133.876 67.206 134.196C67.1278 134.516 67.1689 134.853 67.3212 135.144C67.4735 135.436 67.7267 135.662 68.0335 135.78C68.3404 135.898 68.6797 135.9 68.9879 135.786V135.699ZM108.21 117.918C108.507 117.788 108.747 117.556 108.887 117.264C109.027 116.971 109.058 116.638 108.973 116.326C108.872 115.98 108.639 115.689 108.325 115.514C108.012 115.338 107.642 115.293 107.295 115.387L104.68 116.173C104.34 116.279 104.056 116.514 103.889 116.829C103.721 117.143 103.685 117.511 103.787 117.853C103.839 118.024 103.925 118.183 104.039 118.32C104.152 118.458 104.292 118.572 104.451 118.655C104.609 118.738 104.782 118.789 104.959 118.805C105.137 118.821 105.316 118.801 105.487 118.747L108.036 117.984L108.21 117.918ZM75.9607 131.575H76.0916L78.4448 130.288C78.7485 130.111 78.9716 129.823 79.0667 129.485C79.1618 129.146 79.1217 128.784 78.9545 128.475C78.7873 128.165 78.5062 127.933 78.1711 127.828C77.836 127.723 77.4731 127.752 77.1593 127.91L74.7842 129.219C74.6273 129.306 74.4889 129.422 74.3775 129.563C74.2661 129.703 74.1838 129.864 74.1352 130.037C74.0865 130.209 74.0726 130.39 74.0942 130.568C74.1159 130.746 74.1727 130.918 74.2613 131.074C74.4189 131.362 74.6762 131.584 74.985 131.696C75.2939 131.808 75.6329 131.804 75.9389 131.684L75.9607 131.575ZM100.475 120.493C100.783 120.353 101.028 120.104 101.161 119.793C101.294 119.482 101.306 119.132 101.194 118.813C101.138 118.646 101.049 118.492 100.932 118.36C100.816 118.228 100.675 118.12 100.517 118.043C100.359 117.966 100.187 117.921 100.012 117.911C99.8361 117.9 99.6602 117.925 99.4943 117.984L96.9229 118.9C96.7513 118.955 96.593 119.046 96.4579 119.166C96.3229 119.286 96.2142 119.432 96.1385 119.596C96.0628 119.76 96.0217 119.938 96.018 120.118C96.0143 120.299 96.0478 120.478 96.1167 120.645C96.1796 120.811 96.2746 120.964 96.3962 121.093C96.5179 121.223 96.6639 121.327 96.8258 121.4C96.9877 121.473 97.1623 121.513 97.3397 121.518C97.5172 121.524 97.694 121.494 97.86 121.431L100.366 120.536L100.475 120.493ZM83.0425 127.888C83.827 127.496 84.6334 127.081 85.4397 126.71C85.6003 126.633 85.7438 126.525 85.8626 126.392C85.9814 126.26 86.0728 126.105 86.1315 125.936C86.1902 125.768 86.2152 125.59 86.2049 125.412C86.1946 125.234 86.1492 125.06 86.0714 124.899C85.9159 124.586 85.6467 124.343 85.3186 124.222C84.9906 124.1 84.6286 124.108 84.3065 124.245L81.866 125.445C81.7072 125.523 81.5657 125.633 81.4498 125.767C81.3338 125.901 81.2458 126.057 81.1909 126.226C81.1361 126.395 81.1157 126.573 81.1306 126.75C81.1454 126.926 81.1954 127.098 81.2776 127.256C81.3497 127.421 81.4549 127.569 81.5867 127.691C81.7186 127.814 81.8745 127.907 82.0443 127.967C82.214 128.026 82.394 128.05 82.5733 128.036C82.7526 128.023 82.9272 127.972 83.0862 127.888H83.0425ZM92.8481 123.394C93.1531 123.239 93.3882 122.975 93.506 122.653C93.6237 122.332 93.6155 121.978 93.4828 121.663C93.3501 121.347 93.1031 121.094 92.7912 120.954C92.4793 120.813 92.1259 120.797 91.8022 120.907L89.9501 121.692L89.2963 121.976C88.9698 122.124 88.7143 122.394 88.584 122.728C88.4537 123.063 88.4591 123.435 88.5992 123.765C88.7426 124.09 89.0083 124.346 89.3386 124.477C89.6689 124.607 90.0375 124.602 90.3643 124.463L90.996 124.18L92.8263 123.394H92.8481Z" fill="url(#paint0_linear_417_2395)"/>
<path d="M488.21 147.348C488.164 148.26 488.389 149.165 488.857 149.948C489.325 150.732 490.015 151.358 490.839 151.748C491.664 152.137 492.585 152.273 493.487 152.137C494.389 152.001 495.229 151.6 495.903 150.984C496.576 150.368 497.051 149.566 497.268 148.68C497.485 147.793 497.433 146.862 497.12 146.005C496.807 145.147 496.247 144.402 495.51 143.865C494.773 143.327 493.894 143.021 492.983 142.985C491.775 142.943 490.6 143.377 489.707 144.192C488.815 145.008 488.278 146.141 488.21 147.348Z" fill="url(#paint1_linear_417_2395)"/>
<path d="M-0.0217953 193.73C-0.0686235 194.642 0.156462 195.547 0.624571 196.33C1.09268 197.114 1.78282 197.74 2.60729 198.13C3.43177 198.519 4.35318 198.655 5.25473 198.519C6.15628 198.383 6.99726 197.981 7.67049 197.366C8.34372 196.75 8.81899 195.948 9.03584 195.062C9.25269 194.175 9.2012 193.244 8.88821 192.386C8.57523 191.529 8.01468 190.784 7.27788 190.247C6.54108 189.709 5.66143 189.403 4.75041 189.367C3.5431 189.325 2.36751 189.759 1.47549 190.574C0.583466 191.39 0.0458612 192.523 -0.0217953 193.73Z" fill="url(#paint2_linear_417_2395)"/>
<path d="M341.281 200.493L348.12 212.339L356.103 207.731C356.89 208.432 357.725 209.077 358.602 209.663L356.213 218.6L369.387 222.154L371.776 213.217C372.828 213.159 373.874 213.019 374.904 212.796L379.518 220.789L391.35 213.957L386.736 205.965C387.444 205.184 388.089 204.349 388.665 203.466L397.599 205.866L401.126 192.669L392.192 190.27C392.124 189.218 391.982 188.171 391.769 187.139L399.751 182.53L392.912 170.684L384.929 175.292C384.148 174.584 383.312 173.937 382.43 173.36L384.818 164.423L371.626 160.88L369.237 169.817C368.186 169.884 367.141 170.025 366.109 170.237L361.462 162.189L349.63 169.02L354.244 177.012C353.544 177.799 352.9 178.634 352.315 179.511L343.381 177.111L339.873 190.297L348.807 192.697C348.875 193.749 349.017 194.795 349.23 195.828L341.281 200.493ZM349.207 208.512L345.182 201.541L352.542 197.292L352.282 196.232C351.866 194.713 351.646 193.146 351.629 191.571L351.602 190.478L343.394 188.289L345.437 180.585L353.656 182.793L354.225 181.86C355.026 180.504 355.997 179.258 357.115 178.15L357.869 177.363L353.614 169.994L360.502 166.018L364.756 173.386L365.815 173.128C367.333 172.715 368.899 172.497 370.473 172.479L371.546 172.464L373.744 164.242L381.437 166.325L379.129 174.661L380.081 175.22C381.431 176.031 382.677 177.003 383.791 178.116L384.56 178.881L391.92 174.632L395.902 181.528L388.542 185.777L388.822 186.699C389.231 188.22 389.45 189.785 389.475 191.36L389.473 192.445L397.692 194.652L395.637 202.338L387.351 200.144L386.812 201.085C385.998 202.431 385.027 203.676 383.921 204.794L383.157 205.563L387.412 212.931L380.524 216.908L376.27 209.539L375.222 209.817C373.702 210.221 372.137 210.439 370.564 210.465L369.461 210.472L367.263 218.694L359.58 216.631L361.778 208.409L360.856 207.858C359.499 207.057 358.252 206.084 357.146 204.962L356.358 204.207L349.207 208.512Z" fill="url(#paint3_linear_417_2395)" fill-opacity="0.5"/>
<path d="M362.415 191.527C362.415 193.132 362.891 194.701 363.781 196.036C364.672 197.37 365.938 198.411 367.419 199.025C368.9 199.639 370.53 199.8 372.103 199.487C373.675 199.174 375.119 198.401 376.253 197.266C377.387 196.131 378.159 194.684 378.471 193.11C378.784 191.536 378.624 189.904 378.01 188.421C377.397 186.938 376.358 185.671 375.025 184.779C373.692 183.887 372.124 183.411 370.521 183.411C369.457 183.411 368.403 183.621 367.419 184.029C366.436 184.437 365.542 185.035 364.789 185.788C364.037 186.542 363.44 187.436 363.032 188.421C362.625 189.406 362.415 190.461 362.415 191.527ZM375.751 191.527C375.751 192.568 375.442 193.585 374.864 194.45C374.286 195.315 373.465 195.989 372.504 196.386C371.543 196.784 370.486 196.887 369.467 196.682C368.448 196.477 367.512 195.974 366.778 195.237C366.045 194.499 365.546 193.561 365.346 192.539C365.146 191.518 365.253 190.46 365.654 189.5C366.055 188.539 366.731 187.72 367.598 187.145C368.464 186.569 369.482 186.265 370.521 186.269C371.897 186.298 373.207 186.863 374.172 187.846C375.137 188.828 375.68 190.149 375.686 191.527H375.751Z" fill="url(#paint4_linear_417_2395)" fill-opacity="0.5"/>
<path d="M316.458 156.926L312.945 163.009L317.04 165.374C316.928 165.904 316.853 166.442 316.816 166.982L312.268 168.236L314.094 175.009L318.65 173.785C318.952 174.235 319.285 174.663 319.647 175.066L317.269 179.185L323.345 182.693L325.723 178.574C326.253 178.686 326.791 178.761 327.331 178.797L328.568 183.366L335.347 181.561L334.121 176.973C334.577 176.679 335.005 176.345 335.402 175.975L339.516 178.35L343.028 172.266L338.971 169.924C339.094 169.395 339.169 168.857 339.195 168.315L343.781 167.083L341.955 160.31L337.38 161.523C337.078 161.073 336.745 160.645 336.383 160.242L338.761 156.123L332.685 152.615L330.307 156.734C329.777 156.622 329.24 156.547 328.699 156.511L327.481 151.954L320.645 153.726L321.853 158.302C321.403 158.604 320.975 158.938 320.572 159.301L316.458 156.926ZM314.941 162.474L316.991 158.922L320.765 161.101L321.151 160.694C321.722 160.145 322.354 159.665 323.035 159.262L323.52 158.988L322.389 154.758L326.339 153.713L327.513 157.867L328.078 157.891C328.87 157.89 329.658 157.99 330.424 158.187L330.953 158.316L333.135 154.538L336.626 156.553L334.444 160.332L334.839 160.737C335.387 161.307 335.867 161.939 336.268 162.62L336.553 163.086L340.77 161.969L341.84 165.912L337.612 167.048L337.598 167.594C337.59 168.386 337.49 169.173 337.3 169.941L337.159 170.49L340.933 172.669L338.883 176.221L335.109 174.042L334.715 174.419C334.15 174.974 333.517 175.455 332.831 175.851L332.354 176.155L333.485 180.385L329.535 181.43L328.404 177.2L327.847 177.206C327.057 177.198 326.27 177.099 325.502 176.91L324.954 176.769L322.772 180.548L319.224 178.5L321.406 174.721L321.03 174.327C320.476 173.763 319.996 173.13 319.601 172.444L319.308 171.948L315.099 173.095L314.029 169.152L318.257 168.016L318.263 167.44C318.263 166.648 318.363 165.86 318.561 165.093L318.71 164.574L314.941 162.474Z" fill="url(#paint5_linear_417_2395)"/>
<path d="M323.803 167.638C323.803 168.462 324.047 169.267 324.504 169.953C324.962 170.638 325.612 171.172 326.372 171.487C327.133 171.803 327.97 171.885 328.777 171.725C329.584 171.564 330.326 171.167 330.908 170.584C331.49 170.001 331.886 169.259 332.047 168.451C332.208 167.642 332.125 166.804 331.81 166.043C331.495 165.282 330.962 164.631 330.277 164.173C329.593 163.715 328.788 163.471 327.965 163.471C326.863 163.476 325.808 163.917 325.028 164.698C324.249 165.478 323.809 166.534 323.803 167.638ZM330.667 167.638C330.667 168.173 330.509 168.696 330.212 169.141C329.915 169.585 329.493 169.932 328.999 170.137C328.505 170.342 327.962 170.395 327.438 170.291C326.914 170.187 326.432 169.929 326.054 169.551C325.677 169.172 325.419 168.69 325.315 168.165C325.211 167.641 325.264 167.097 325.469 166.602C325.673 166.108 326.019 165.686 326.464 165.388C326.908 165.091 327.431 164.932 327.965 164.932C328.682 164.932 329.369 165.217 329.876 165.725C330.382 166.232 330.667 166.92 330.667 167.638Z" fill="url(#paint6_linear_417_2395)"/>
<path d="M480.824 105.722C482.179 105.728 483.522 105.466 484.776 104.952C486.03 104.437 487.171 103.68 488.132 102.723C489.093 101.767 489.857 100.63 490.379 99.3774C490.901 98.1251 491.171 96.782 491.174 95.425V87.7238C494.703 85.8679 497.656 83.0783 499.712 79.6586C501.767 76.2388 502.846 72.3201 502.832 68.3289C502.832 62.5003 500.521 56.9101 496.406 52.7866C492.292 48.6631 486.711 46.3437 480.889 46.3379C475.065 46.3437 469.482 48.6624 465.364 52.7853C461.246 56.9082 458.93 62.4983 458.924 68.3289C458.912 72.3223 459.994 76.2426 462.054 79.6626C464.113 83.0825 467.071 85.8708 470.604 87.7238V95.425C470.61 98.143 471.686 100.749 473.6 102.677C475.513 104.605 478.109 105.699 480.824 105.722ZM480.824 48.4977C486.075 48.5035 491.11 50.5947 494.823 54.3125C498.536 58.0303 500.625 63.0711 500.631 68.3289C500.651 72.0367 499.622 75.6743 497.663 78.8209C495.704 81.9675 492.895 84.4945 489.561 86.1094C489.38 86.1956 489.226 86.3315 489.118 86.5013C489.01 86.6711 488.952 86.868 488.951 87.0693V95.425C488.951 97.5832 488.095 99.653 486.571 101.179C485.046 102.705 482.979 103.563 480.824 103.563C478.668 103.563 476.601 102.705 475.076 101.179C473.552 99.653 472.696 97.5832 472.696 95.425V87.0693C472.695 86.868 472.637 86.6711 472.529 86.5013C472.421 86.3315 472.267 86.1956 472.086 86.1094C468.752 84.4945 465.943 81.9675 463.984 78.8209C462.025 75.6743 460.996 72.0367 461.016 68.3289C461.022 63.0711 463.111 58.0303 466.824 54.3125C470.537 50.5947 475.572 48.5035 480.824 48.4977Z" fill="url(#paint7_linear_417_2395)"/>
<path d="M481.238 89.8184C484.417 89.8916 487.575 89.2816 490.498 88.0295C490.625 87.9669 490.737 87.8799 490.83 87.7735C490.923 87.6671 490.993 87.5434 491.038 87.4095C491.082 87.2757 491.1 87.1343 491.09 86.9936C491.079 86.8528 491.041 86.7156 490.978 86.5896C490.917 86.4639 490.833 86.3516 490.728 86.2591C490.624 86.1667 490.502 86.0961 490.37 86.0514C490.239 86.0067 490.099 85.9888 489.96 85.9988C489.821 86.0088 489.686 86.0465 489.561 86.1096C483.901 88.2828 477.637 88.2828 471.977 86.1096C471.844 86.0613 471.702 86.04 471.561 86.0468C471.42 86.0537 471.281 86.0885 471.154 86.1494C471.026 86.2103 470.911 86.296 470.817 86.4015C470.723 86.5071 470.65 86.6303 470.604 86.7641C470.556 86.8958 470.535 87.0357 470.542 87.1757C470.549 87.3156 470.584 87.4527 470.645 87.5788C470.706 87.705 470.792 87.8176 470.897 87.91C471.002 88.0024 471.125 88.0727 471.258 88.1168C474.466 89.2393 477.839 89.8146 481.238 89.8184Z" fill="url(#paint8_linear_417_2395)"/>
<path d="M481.238 94.7052C484.417 94.7784 487.575 94.1683 490.498 92.9162C490.625 92.8536 490.737 92.7666 490.83 92.6602C490.923 92.5538 490.993 92.4301 491.038 92.2962C491.082 92.1624 491.1 92.021 491.09 91.8803C491.079 91.7396 491.041 91.6023 490.978 91.4763C490.917 91.3506 490.833 91.2383 490.728 91.1459C490.624 91.0534 490.502 90.9828 490.37 90.9381C490.239 90.8934 490.099 90.8755 489.96 90.8855C489.821 90.8955 489.686 90.9332 489.561 90.9964C483.904 93.1841 477.635 93.1841 471.977 90.9964C471.844 90.9481 471.702 90.9267 471.561 90.9335C471.42 90.9404 471.281 90.9752 471.154 91.0361C471.026 91.097 470.911 91.1827 470.817 91.2883C470.723 91.3938 470.65 91.517 470.604 91.6509C470.512 91.9201 470.53 92.2144 470.652 92.4711C470.774 92.7279 470.991 92.9267 471.258 93.0253C474.469 94.1314 477.841 94.699 481.238 94.7052Z" fill="url(#paint9_linear_417_2395)"/>
<path d="M481.238 99.6137C484.419 99.6869 487.578 99.0691 490.498 97.8029C490.625 97.7403 490.737 97.6533 490.83 97.5469C490.923 97.4405 490.993 97.3168 491.038 97.1829C491.082 97.0491 491.1 96.9077 491.09 96.767C491.079 96.6263 491.041 96.489 490.978 96.363C490.917 96.2374 490.833 96.125 490.728 96.0326C490.624 95.9402 490.502 95.8695 490.37 95.8248C490.239 95.7801 490.099 95.7622 489.96 95.7722C489.821 95.7822 489.686 95.8199 489.561 95.8831C483.904 98.0708 477.635 98.0708 471.977 95.8831C471.844 95.8348 471.702 95.8134 471.561 95.8203C471.42 95.8271 471.281 95.862 471.154 95.9229C471.026 95.9838 470.911 96.0695 470.817 96.175C470.723 96.2805 470.65 96.4038 470.604 96.5376C470.512 96.8068 470.53 97.1011 470.652 97.3578C470.774 97.6146 470.991 97.8134 471.258 97.912C474.468 99.024 477.84 99.5989 481.238 99.6137Z" fill="url(#paint10_linear_417_2395)"/>
<path d="M481.673 42.3454C481.957 42.3454 482.228 42.2328 482.428 42.0323C482.629 41.8319 482.741 41.5599 482.741 41.2764V31.3717C482.741 31.0882 482.629 30.8163 482.428 30.6158C482.228 30.4154 481.957 30.3027 481.673 30.3027C481.39 30.3027 481.119 30.4154 480.918 30.6158C480.718 30.8163 480.606 31.0882 480.606 31.3717V41.2764C480.606 41.5599 480.718 41.8319 480.918 42.0323C481.119 42.2328 481.39 42.3454 481.673 42.3454Z" fill="url(#paint11_linear_417_2395)"/>
<path d="M463.13 47.756C463.379 47.754 463.62 47.661 463.805 47.4942C463.915 47.4057 464.006 47.2958 464.072 47.1713C464.139 47.0467 464.179 46.9101 464.191 46.7695C464.203 46.6288 464.187 46.4872 464.143 46.3531C464.1 46.2189 464.029 46.0951 463.936 45.9889L457.573 38.4186C457.485 38.3086 457.375 38.2178 457.251 38.1514C457.127 38.085 456.99 38.0445 456.85 38.0323C456.709 38.02 456.568 38.0363 456.434 38.0802C456.3 38.1241 456.176 38.1947 456.07 38.2877C455.96 38.3762 455.869 38.486 455.803 38.6106C455.737 38.7351 455.696 38.8718 455.684 39.0124C455.672 39.153 455.688 39.2946 455.732 39.4288C455.776 39.5629 455.846 39.6868 455.939 39.793L462.302 47.3633C462.402 47.4862 462.529 47.5852 462.672 47.6531C462.815 47.721 462.971 47.7562 463.13 47.756Z" fill="url(#paint12_linear_417_2395)"/>
<path d="M454.131 61.0204C454.373 61.0217 454.609 60.9403 454.799 60.7896C454.989 60.6389 455.122 60.4279 455.176 60.1914C455.209 60.0538 455.213 59.9113 455.19 59.7719C455.167 59.6325 455.116 59.4991 455.041 59.3794C454.966 59.2598 454.869 59.1561 454.753 59.0746C454.638 58.993 454.508 58.9351 454.37 58.9042L444.739 56.7226C444.603 56.6869 444.461 56.6791 444.322 56.6996C444.183 56.7201 444.049 56.7684 443.929 56.8417C443.809 56.9151 443.705 57.0118 443.624 57.1263C443.542 57.2408 443.484 57.3706 443.453 57.508C443.421 57.6455 443.416 57.7881 443.44 57.9275C443.463 58.0668 443.513 58.2002 443.588 58.3199C443.663 58.4396 443.761 58.5432 443.876 58.6248C443.992 58.7064 444.122 58.7643 444.259 58.7951L453.891 60.9768L454.131 61.0204Z" fill="url(#paint13_linear_417_2395)"/>
<path d="M508.279 61.0207H508.606L518.237 58.8391C518.375 58.8082 518.505 58.7503 518.621 58.6687C518.736 58.5872 518.834 58.4836 518.909 58.3639C518.984 58.2442 519.034 58.1108 519.057 57.9714C519.08 57.832 519.076 57.6895 519.044 57.5519C519.013 57.4145 518.955 57.2847 518.873 57.1703C518.792 57.0558 518.687 56.959 518.567 56.8857C518.447 56.8124 518.314 56.764 518.175 56.7436C518.036 56.7231 517.894 56.7309 517.758 56.7665L508.127 58.9482C507.99 58.9788 507.86 59.0368 507.745 59.1187C507.631 59.2006 507.534 59.3047 507.461 59.4249C507.388 59.545 507.34 59.6787 507.319 59.818C507.299 59.9572 507.307 60.0992 507.342 60.2353C507.399 60.4465 507.52 60.6351 507.688 60.7755C507.855 60.916 508.062 61.0016 508.279 61.0207Z" fill="url(#paint14_linear_417_2395)"/>
<path d="M500.74 47.756C500.898 47.7562 501.055 47.721 501.198 47.6531C501.341 47.5852 501.468 47.4862 501.568 47.3633L507.931 39.793C508.024 39.6868 508.094 39.5629 508.138 39.4288C508.182 39.2946 508.198 39.153 508.186 39.0124C508.174 38.8718 508.133 38.7351 508.067 38.6106C508 38.486 507.91 38.3762 507.8 38.2877C507.694 38.1947 507.57 38.1241 507.436 38.0802C507.302 38.0363 507.161 38.02 507.02 38.0323C506.88 38.0445 506.743 38.085 506.619 38.1514C506.495 38.2178 506.385 38.3086 506.296 38.4186L499.89 45.9671C499.797 46.0732 499.727 46.1971 499.683 46.3313C499.639 46.4654 499.623 46.607 499.635 46.7476C499.647 46.8882 499.688 47.0249 499.754 47.1495C499.82 47.274 499.911 47.3839 500.021 47.4724C500.214 47.6573 500.472 47.7591 500.74 47.756Z" fill="url(#paint15_linear_417_2395)"/>
<path d="M193.062 150.097C193.015 151.171 193.288 152.235 193.845 153.153C194.403 154.072 195.22 154.804 196.193 155.258C197.167 155.711 198.253 155.866 199.314 155.701C200.375 155.536 201.363 155.06 202.154 154.333C202.944 153.605 203.501 152.659 203.755 151.615C204.008 150.57 203.946 149.474 203.577 148.465C203.208 147.455 202.548 146.578 201.681 145.945C200.814 145.311 199.778 144.949 198.705 144.905C197.994 144.873 197.283 144.982 196.613 145.226C195.944 145.469 195.329 145.843 194.805 146.326C194.28 146.809 193.856 147.39 193.557 148.037C193.258 148.685 193.09 149.385 193.062 150.097Z" fill="url(#paint16_linear_417_2395)"/>
<path d="M29.7656 191.309C29.7234 192.382 29.9999 193.444 30.5601 194.359C31.1204 195.275 31.9394 196.004 32.9134 196.455C33.8874 196.905 34.9728 197.056 36.0324 196.888C37.0921 196.721 38.0785 196.243 38.8669 195.515C39.6552 194.786 40.2102 193.84 40.4618 192.796C40.7133 191.752 40.6501 190.657 40.2801 189.649C39.9101 188.64 39.2497 187.765 38.3827 187.132C37.5158 186.5 36.481 186.139 35.4092 186.095C33.9714 186.041 32.5711 186.56 31.5137 187.537C30.4563 188.514 29.8279 189.87 29.7656 191.309Z" fill="url(#paint17_linear_417_2395)"/>
<path d="M486.271 174.466C486.208 176.023 486.607 177.564 487.418 178.893C488.229 180.223 489.416 181.282 490.829 181.936C492.241 182.59 493.816 182.81 495.353 182.567C496.89 182.325 498.321 181.632 499.465 180.576C500.609 179.519 501.414 178.147 501.778 176.632C502.143 175.117 502.05 173.528 501.513 172.066C500.975 170.604 500.016 169.334 498.758 168.418C497.499 167.502 495.997 166.98 494.442 166.918C492.359 166.835 490.329 167.584 488.797 168.999C487.264 170.414 486.356 172.381 486.271 174.466Z" fill="url(#paint18_linear_417_2395)"/>
<path d="M10.824 39.8585C5.20389 39.8585 0.647919 35.2971 0.647919 29.6702C0.647919 24.0434 5.20389 19.4819 10.824 19.4819C16.444 19.4819 21 24.0434 21 29.6702C21 35.2971 16.444 39.8585 10.824 39.8585Z" fill="url(#paint19_linear_417_2395)"/>
<path d="M382.637 247.246C382.603 248.04 382.805 248.826 383.218 249.505C383.63 250.183 384.235 250.724 384.955 251.059C385.675 251.393 386.477 251.506 387.262 251.384C388.046 251.261 388.776 250.908 389.359 250.37C389.943 249.831 390.354 249.131 390.54 248.359C390.726 247.587 390.679 246.776 390.405 246.031C390.131 245.285 389.642 244.638 389 244.17C388.358 243.703 387.592 243.437 386.799 243.406C385.739 243.365 384.705 243.746 383.925 244.466C383.145 245.185 382.682 246.185 382.637 247.246Z" fill="url(#paint20_linear_417_2395)"/>
<path d="M397.084 229.575C397.02 231.123 397.417 232.655 398.223 233.978C399.03 235.3 400.21 236.353 401.614 237.004C403.019 237.655 404.585 237.874 406.114 237.633C407.642 237.393 409.066 236.704 410.203 235.653C411.341 234.603 412.142 233.238 412.505 231.732C412.867 230.226 412.776 228.646 412.241 227.192C411.707 225.737 410.754 224.475 409.502 223.563C408.251 222.651 406.758 222.132 405.211 222.07C404.185 222.026 403.16 222.186 402.195 222.54C401.231 222.893 400.345 223.435 399.59 224.132C398.835 224.829 398.225 225.669 397.795 226.603C397.365 227.537 397.123 228.547 397.084 229.575Z" fill="url(#paint21_linear_417_2395)"/>
<path d="M66.6997 105.657C73.5234 105.667 80.2296 103.878 86.1434 100.47C92.0571 97.0613 96.9701 92.1535 100.388 86.2402C105.516 77.3145 106.9 66.7172 104.237 56.7714C101.574 46.8256 95.0803 38.3427 86.1804 33.1825C77.2661 28.0394 66.6781 26.6463 56.7393 29.3088C46.8005 31.9713 38.3226 38.4721 33.1648 47.385C28.0159 56.3166 26.6198 66.9297 29.2839 76.8913C31.9481 86.8529 38.4541 95.3476 47.3718 100.508C53.2486 103.9 59.9164 105.676 66.6997 105.657ZM66.8306 29.8227C73.3038 29.8197 79.6629 31.528 85.2651 34.7751C93.7143 39.6969 99.8779 47.7629 102.413 57.2152C104.947 66.6675 103.648 76.7397 98.797 85.2366C93.8806 93.7255 85.8043 99.9177 76.3372 102.457C66.8701 104.996 56.7837 103.676 48.2871 98.7847C39.8143 93.8624 33.634 85.7805 31.098 76.3073C28.5621 66.834 29.8771 56.7408 34.7554 48.2359C38.0227 42.6229 42.7053 37.9677 48.3344 34.7362C53.9636 31.5047 60.3418 29.8104 66.8306 29.8227Z" fill="url(#paint22_linear_417_2395)" fill-opacity="0.5"/>
<path d="M75.8955 90.0581C81.1034 90.0581 81.3429 85.4112 81.4955 82.335C81.4631 81.2602 81.6255 80.1885 81.9748 79.1717C82.7374 77.8845 84.5461 77.6227 86.6816 77.3391C87.9831 77.3323 89.2697 77.0621 90.4643 76.5448C91.6588 76.0274 92.7367 75.2735 93.6328 74.3284C95.0491 72.4085 95.4194 69.4851 94.7875 65.3618C93.3711 56.3298 96.3345 52.8828 98.2957 50.6139C99.4941 49.2176 100.649 47.8868 99.5815 46.076C93.6763 35.8441 88.098 37.4585 81.038 39.5311C77.0422 40.8942 72.8597 41.6301 68.6392 41.7127C63.6979 41.5852 58.7864 40.9046 53.9962 39.6838C47.4591 38.2221 42.2948 37.0658 38.1765 40.8837C37.0371 41.7747 36.1006 42.8985 35.429 44.1802C34.7574 45.462 34.3663 46.8723 34.2818 48.3173C34.1972 49.7622 34.4213 51.2086 34.9388 52.5601C35.4563 53.9116 36.2553 55.1372 37.283 56.1553C40.6605 59.9295 46.8925 61.8057 58.8117 62.7002C65.7846 63.202 67.2446 69.7251 67.2446 75.1138C67.2446 84.5603 70.4043 90.0581 75.8955 90.0581ZM88.6864 39.8801C91.9985 39.8801 94.8095 41.56 97.9908 47.0578C98.3395 47.6468 98.1869 47.9959 96.9013 49.4794C94.853 51.8574 91.4319 55.828 92.979 65.7109C93.5455 69.3106 93.2622 71.7977 92.1509 73.2812C90.6179 74.7753 88.5595 75.6059 86.4201 75.5938C84.0449 75.921 81.6044 76.2482 80.3841 78.299C79.8554 79.5687 79.6101 80.9387 79.6652 82.3132C79.469 86.022 79.1204 88.2909 75.8955 88.2909C69.7506 88.2909 69.0969 78.9971 69.0969 75.0047C69.0969 66.2781 65.4797 61.2167 58.9426 60.7585C47.5463 59.9513 41.6628 58.2496 38.634 54.8681C37.7898 54.0256 37.1347 53.0126 36.7122 51.8967C36.2897 50.7808 36.1097 49.5875 36.1839 48.3965C36.2581 47.2054 36.585 46.0438 37.1428 44.9891C37.7006 43.9345 38.4764 43.0109 39.4186 42.28C42.8179 39.1166 47.35 40.0983 53.6038 41.5164C58.5106 42.8057 63.5469 43.5376 68.6174 43.698C73.0133 43.6659 77.3758 42.9294 81.5391 41.5164C83.8316 40.6215 86.2369 40.0489 88.6864 39.8147V39.8801Z" fill="url(#paint23_linear_417_2395)" fill-opacity="0.5"/>
<path d="M43.82 80.8734C45.3889 80.8734 47.6115 78.4081 51.7735 73.194L52.8412 71.8632C53.1047 71.5728 53.2925 71.2216 53.3875 70.8409C53.4826 70.4602 53.4819 70.062 53.3859 69.6815C52.8194 67.4999 49.0279 65.9946 44.9749 64.3801L43.5367 63.8129C40.6604 62.6566 38.7865 62.5257 37.6534 63.442C36.1717 64.6419 36.5641 67.0199 36.9781 69.2888C37.1718 70.2294 37.2737 71.1865 37.2829 72.1468C37.0067 74.1239 37.4994 76.1317 38.6592 77.7556C39.8189 79.3795 41.5572 80.4956 43.5151 80.8734H43.82ZM39.6364 64.6856C40.7464 64.775 41.8313 65.0632 42.8395 65.5364L44.2996 66.1255C47.0887 67.2163 51.2724 68.8743 51.6211 70.1615C51.6211 70.1615 51.6209 70.3797 51.4247 70.6851L50.3352 72.0377C48.8535 73.8921 44.9313 78.8445 43.7982 79.0408C42.3126 78.7147 41.0048 77.8392 40.1362 76.5894C39.2676 75.3395 38.9025 73.8074 39.1135 72.2995C39.1268 71.1915 39.0097 70.0858 38.7648 69.0052C38.5033 67.4126 38.1546 65.4273 38.7648 64.9037C39.0137 64.713 39.3237 64.6199 39.6364 64.6419V64.6856Z" fill="url(#paint24_linear_417_2395)" fill-opacity="0.5"/>
<path d="M80.7111 102.537C80.787 101.496 80.6309 100.451 80.2541 99.4776C79.8772 98.5042 79.289 97.6268 78.532 96.9088C76.353 95.1198 72.9754 94.8798 68.3777 96.1452C66.8191 96.6968 65.1661 96.9308 63.5159 96.8334C61.8656 96.736 60.2515 96.3091 58.7684 95.578L57.8095 95.2071C55.9355 94.509 49.8996 97.5196 47.3937 98.8723L48.2653 100.487C51.8389 98.5886 56.2841 96.6688 57.1775 96.9306L58.0928 97.2796C59.776 98.1025 61.6053 98.5839 63.4752 98.6962C65.345 98.8085 67.2184 98.5495 68.9879 97.9341C72.8883 96.8433 75.8082 96.9742 77.4425 98.305C77.9789 98.8286 78.3952 99.4627 78.6624 100.163C78.9295 100.864 79.041 101.615 78.9895 102.363L80.7111 102.537Z" fill="url(#paint25_linear_417_2395)" fill-opacity="0.5"/>
<path d="M62.6906 37.0223C63.796 36.9661 64.8816 36.7073 65.8937 36.2587C69.0787 34.9425 72.5819 34.6008 75.9608 35.2769C77.2402 35.5251 78.5636 35.4094 79.7807 34.9428C80.9978 34.4762 82.0599 33.6774 82.8466 32.6371L81.3213 31.6118C80.7303 32.3621 79.9424 32.933 79.0458 33.2606C78.1491 33.5881 77.1788 33.6593 76.244 33.4662C72.5856 32.7588 68.8006 33.1301 65.3489 34.5352C64.4617 34.9521 63.4963 35.1752 62.5164 35.1897C58.8731 34.8773 55.3985 33.5132 52.5144 31.2627L51.3161 32.659C54.4901 35.1693 58.3327 36.687 62.3637 37.0223H62.6906Z" fill="url(#paint26_linear_417_2395)" fill-opacity="0.5"/>
<path d="M166.499 56.8753H185.457C185.65 56.8736 185.839 56.8227 186.007 56.7272C186.175 56.6318 186.315 56.495 186.416 56.3298C186.507 56.1627 186.555 55.9751 186.555 55.7844C186.555 55.5938 186.507 55.4062 186.416 55.239L176.872 38.833C176.782 38.6635 176.647 38.5225 176.481 38.426C176.315 38.3296 176.126 38.2817 175.935 38.2876C175.744 38.2887 175.558 38.3397 175.394 38.4354C175.229 38.5311 175.093 38.6681 174.998 38.833L165.562 55.3045C165.471 55.4716 165.423 55.6592 165.423 55.8499C165.423 56.0405 165.471 56.2281 165.562 56.3953C165.662 56.5511 165.802 56.6776 165.966 56.7619C166.131 56.8462 166.315 56.8853 166.499 56.8753ZM183.561 54.6936H168.308L175.869 41.6037L183.561 54.6936Z" fill="url(#paint27_linear_417_2395)"/>
</g>
<defs>
<linearGradient id="paint0_linear_417_2395" x1="494.957" y1="216.932" x2="309.744" y2="-80.563" gradientUnits="userSpaceOnUse">
<stop stop-color="#764BA2"/>
<stop offset="1" stop-color="#667EEA"/>
</linearGradient>
<linearGradient id="paint1_linear_417_2395" x1="497.4" y1="152.188" x2="486.343" y2="148.365" gradientUnits="userSpaceOnUse">
<stop stop-color="#764BA2"/>
<stop offset="1" stop-color="#667EEA"/>
</linearGradient>
<linearGradient id="paint2_linear_417_2395" x1="9.16772" y1="198.57" x2="-1.88903" y2="194.747" gradientUnits="userSpaceOnUse">
<stop stop-color="#764BA2"/>
<stop offset="1" stop-color="#667EEA"/>
</linearGradient>
<linearGradient id="paint3_linear_417_2395" x1="412.435" y1="201.784" x2="337.066" y2="216.938" gradientUnits="userSpaceOnUse">
<stop stop-color="#FF00CC"/>
<stop offset="1" stop-color="#333399"/>
</linearGradient>
<linearGradient id="paint4_linear_417_2395" x1="378.997" y1="199.643" x2="359.192" y2="192.956" gradientUnits="userSpaceOnUse">
<stop stop-color="#FF00CC"/>
<stop offset="1" stop-color="#333399"/>
</linearGradient>
<linearGradient id="paint5_linear_417_2395" x1="333.592" y1="188.609" x2="308.021" y2="159.118" gradientUnits="userSpaceOnUse">
<stop stop-color="#764BA2"/>
<stop offset="1" stop-color="#667EEA"/>
</linearGradient>
<linearGradient id="paint6_linear_417_2395" x1="332.127" y1="171.805" x2="322.118" y2="168.344" gradientUnits="userSpaceOnUse">
<stop stop-color="#764BA2"/>
<stop offset="1" stop-color="#667EEA"/>
</linearGradient>
<linearGradient id="paint7_linear_417_2395" x1="502.832" y1="105.722" x2="447.359" y2="91.5252" gradientUnits="userSpaceOnUse">
<stop stop-color="#764BA2"/>
<stop offset="1" stop-color="#667EEA"/>
</linearGradient>
<linearGradient id="paint8_linear_417_2395" x1="491.092" y1="89.8243" x2="484.88" y2="78.2797" gradientUnits="userSpaceOnUse">
<stop stop-color="#764BA2"/>
<stop offset="1" stop-color="#667EEA"/>
</linearGradient>
<linearGradient id="paint9_linear_417_2395" x1="491.092" y1="94.7111" x2="484.879" y2="83.1677" gradientUnits="userSpaceOnUse">
<stop stop-color="#764BA2"/>
<stop offset="1" stop-color="#667EEA"/>
</linearGradient>
<linearGradient id="paint10_linear_417_2395" x1="491.092" y1="99.6195" x2="484.824" y2="88.0403" gradientUnits="userSpaceOnUse">
<stop stop-color="#764BA2"/>
<stop offset="1" stop-color="#667EEA"/>
</linearGradient>
<linearGradient id="paint11_linear_417_2395" x1="482.741" y1="42.3454" x2="479.877" y2="42.1697" gradientUnits="userSpaceOnUse">
<stop stop-color="#764BA2"/>
<stop offset="1" stop-color="#667EEA"/>
</linearGradient>
<linearGradient id="paint12_linear_417_2395" x1="464.195" y1="47.756" x2="453.697" y2="44.575" gradientUnits="userSpaceOnUse">
<stop stop-color="#764BA2"/>
<stop offset="1" stop-color="#667EEA"/>
</linearGradient>
<linearGradient id="paint13_linear_417_2395" x1="455.205" y1="61.0204" x2="446.797" y2="53.1064" gradientUnits="userSpaceOnUse">
<stop stop-color="#764BA2"/>
<stop offset="1" stop-color="#667EEA"/>
</linearGradient>
<linearGradient id="paint14_linear_417_2395" x1="519.072" y1="61.0207" x2="510.744" y2="53.1136" gradientUnits="userSpaceOnUse">
<stop stop-color="#764BA2"/>
<stop offset="1" stop-color="#667EEA"/>
</linearGradient>
<linearGradient id="paint15_linear_417_2395" x1="508.19" y1="47.7561" x2="497.646" y2="44.5451" gradientUnits="userSpaceOnUse">
<stop stop-color="#764BA2"/>
<stop offset="1" stop-color="#667EEA"/>
</linearGradient>
<linearGradient id="paint16_linear_417_2395" x1="203.908" y1="155.765" x2="190.86" y2="151.254" gradientUnits="userSpaceOnUse">
<stop stop-color="#764BA2"/>
<stop offset="1" stop-color="#667EEA"/>
</linearGradient>
<linearGradient id="paint17_linear_417_2395" x1="40.613" y1="196.955" x2="27.565" y2="192.443" gradientUnits="userSpaceOnUse">
<stop stop-color="#764BA2"/>
<stop offset="1" stop-color="#667EEA"/>
</linearGradient>
<linearGradient id="paint18_linear_417_2395" x1="501.997" y1="182.663" x2="483.08" y2="176.123" gradientUnits="userSpaceOnUse">
<stop stop-color="#764BA2"/>
<stop offset="1" stop-color="#667EEA"/>
</linearGradient>
<linearGradient id="paint19_linear_417_2395" x1="21" y1="39.8585" x2="-3.47179" y2="31.3979" gradientUnits="userSpaceOnUse">
<stop stop-color="#764BA2"/>
<stop offset="1" stop-color="#667EEA"/>
</linearGradient>
<linearGradient id="paint20_linear_417_2395" x1="390.652" y1="251.432" x2="381.01" y2="248.098" gradientUnits="userSpaceOnUse">
<stop stop-color="#764BA2"/>
<stop offset="1" stop-color="#667EEA"/>
</linearGradient>
<linearGradient id="paint21_linear_417_2395" x1="412.723" y1="237.728" x2="393.91" y2="231.224" gradientUnits="userSpaceOnUse">
<stop stop-color="#764BA2"/>
<stop offset="1" stop-color="#667EEA"/>
</linearGradient>
<linearGradient id="paint22_linear_417_2395" x1="107.33" y1="105.657" x2="12.5418" y2="73.643" gradientUnits="userSpaceOnUse">
<stop stop-color="#FF00CC"/>
<stop offset="1" stop-color="#333399"/>
</linearGradient>
<linearGradient id="paint23_linear_417_2395" x1="101.501" y1="90.0581" x2="25.8268" y2="57.7595" gradientUnits="userSpaceOnUse">
<stop stop-color="#FF00CC"/>
<stop offset="1" stop-color="#333399"/>
</linearGradient>
<linearGradient id="paint24_linear_417_2395" x1="53.8424" y1="80.8734" x2="32.9847" y2="74.2827" gradientUnits="userSpaceOnUse">
<stop stop-color="#FF00CC"/>
<stop offset="1" stop-color="#333399"/>
</linearGradient>
<linearGradient id="paint25_linear_417_2395" x1="81.4892" y1="102.537" x2="67.7339" y2="81.6857" gradientUnits="userSpaceOnUse">
<stop stop-color="#FF00CC"/>
<stop offset="1" stop-color="#333399"/>
</linearGradient>
<linearGradient id="paint26_linear_417_2395" x1="83.5649" y1="37.0223" x2="73.8678" y2="19.0767" gradientUnits="userSpaceOnUse">
<stop stop-color="#FF00CC"/>
<stop offset="1" stop-color="#333399"/>
</linearGradient>
<linearGradient id="paint27_linear_417_2395" x1="186.555" y1="56.8768" x2="161.922" y2="47.1839" gradientUnits="userSpaceOnUse">
<stop stop-color="#764BA2"/>
<stop offset="1" stop-color="#667EEA"/>
</linearGradient>
<clipPath id="clip0_417_2395">
<rect width="519" height="282" fill="white" transform="matrix(-1 0 0 1 519 0)"/>
</clipPath>
</defs>
</svg>
