<svg width="200" height="48" viewBox="0 0 200 48" fill="none" xmlns="http://www.w3.org/2000/svg">
<path d="M6.64046 15.8273H5.44647C5.3219 15.764 5.21669 15.6683 5.14196 15.5501C5.06722 15.4319 5.02573 15.2957 5.02187 15.1559C5.01398 15.0997 5.01884 15.0424 5.03608 14.9884C5.05333 14.9344 5.08252 14.8849 5.12149 14.8438C5.16045 14.8026 5.20818 14.7707 5.26113 14.7506C5.31408 14.7304 5.37088 14.7225 5.42731 14.7274C5.68591 14.7274 5.86788 14.9001 5.91577 15.2166H6.57342C6.51276 14.4236 6.07539 14.008 5.41774 14.008C5.27341 13.9966 5.12834 14.0166 4.99238 14.0664C4.85642 14.1162 4.73275 14.1947 4.62978 14.2966C4.52681 14.3985 4.44694 14.5214 4.39561 14.657C4.34428 14.7926 4.32268 14.9376 4.33229 15.0823C4.32912 15.359 4.43327 15.626 4.62281 15.8273H4.20459V16.5467H6.64046V15.8273Z" fill="url(#paint0_linear_417_2396)"/>
<path d="M8.72505 18.6219C8.72505 19.1718 8.50477 19.6227 7.78646 19.6227H3.51172C3.34785 19.631 3.18407 19.6047 3.03098 19.5456C2.8779 19.4864 2.73892 19.3958 2.62305 19.2794C2.50718 19.1631 2.417 19.0236 2.35836 18.8702C2.29971 18.7167 2.2739 18.5526 2.28261 18.3885V16.5595H0.89068V18.3885C0.879683 18.7368 0.939861 19.0837 1.06752 19.4078C1.19518 19.732 1.38763 20.0267 1.63307 20.2737C1.8785 20.5207 2.17174 20.7149 2.49479 20.8443C2.81785 20.9737 3.1639 21.0357 3.51172 21.0264H8.30045C8.54056 21.0321 8.77931 20.9889 9.00227 20.8995C9.22523 20.8101 9.42776 20.6763 9.59758 20.5062C9.76741 20.3361 9.90101 20.1332 9.99028 19.9099C10.0796 19.6866 10.1227 19.4475 10.117 19.207V12.5308H8.72505V18.6219Z" fill="url(#paint1_linear_417_2396)"/>
<path d="M12.4508 21.1734C12.4581 21.3373 12.4312 21.5009 12.3718 21.6538C12.3124 21.8066 12.2218 21.9454 12.1059 22.0613C11.9899 22.1771 11.8511 22.2675 11.6983 22.3266C11.5455 22.3856 11.3821 22.4122 11.2185 22.4045H10.6343V23.8081H11.2313C11.579 23.816 11.9248 23.7532 12.2476 23.6236C12.5705 23.4941 12.8639 23.3003 13.11 23.0541C13.3561 22.8079 13.5499 22.5144 13.6796 22.1912C13.8094 21.8679 13.8725 21.5217 13.8651 21.1734V15.1431H12.4508V21.1734Z" fill="url(#paint2_linear_417_2396)"/>
<path d="M29.2623 22.0016C29.1475 21.9945 29.0324 22.011 28.9242 22.0502C28.816 22.0893 28.717 22.1502 28.6332 22.2292C28.5493 22.3081 28.4825 22.4034 28.4369 22.5091C28.3912 22.6149 28.3677 22.7289 28.3677 22.8441C28.3677 22.9594 28.3912 23.0734 28.4369 23.1791C28.4825 23.2849 28.5493 23.3802 28.6332 23.4591C28.717 23.538 28.816 23.5989 28.9242 23.6381C29.0324 23.6772 29.1475 23.6937 29.2623 23.6867C29.3772 23.6937 29.4922 23.6772 29.6004 23.6381C29.7086 23.5989 29.8077 23.538 29.8915 23.4591C29.9753 23.3802 30.0421 23.2849 30.0878 23.1791C30.1335 23.0734 30.157 22.9594 30.157 22.8441C30.157 22.7289 30.1335 22.6149 30.0878 22.5091C30.0421 22.4034 29.9753 22.3081 29.8915 22.2292C29.8077 22.1502 29.7086 22.0893 29.6004 22.0502C29.4922 22.011 29.3772 21.9945 29.2623 22.0016Z" fill="url(#paint3_linear_417_2396)"/>
<path d="M34.9481 19.0728C34.9534 19.1431 34.9441 19.2138 34.9208 19.2803C34.8975 19.3469 34.8608 19.4079 34.8128 19.4596C34.7648 19.5112 34.7067 19.5524 34.6421 19.5804C34.5775 19.6085 34.5078 19.6229 34.4374 19.6227H32.8411C32.5857 19.5875 32.2952 19.5492 31.5992 17.976C30.3829 15.3477 28.4578 14.3246 26.2646 15.1303V16.4093C28.0907 15.6995 29.1761 16.4093 30.0636 18.1423C30.2824 18.6518 30.5441 19.1417 30.8458 19.6067H25.4186C25.3141 19.6109 25.2098 19.5931 25.1126 19.5546C25.0153 19.5161 24.9272 19.4576 24.8539 19.3829C24.7805 19.3082 24.7236 19.219 24.6867 19.121C24.6498 19.023 24.6337 18.9183 24.6396 18.8138V17.4612C24.6478 17.1075 24.5845 16.7557 24.4534 16.4272C24.3224 16.0986 24.1262 15.8 23.8769 15.5493C23.6275 15.2987 23.3301 15.1012 23.0025 14.9687C22.6749 14.8363 22.3239 14.7716 21.9707 14.7786H21.8366C21.4834 14.7716 21.1324 14.8363 20.8048 14.9687C20.4772 15.1012 20.1797 15.2987 19.9304 15.5493C19.681 15.8 19.4849 16.0986 19.3538 16.4272C19.2227 16.7557 19.1594 17.1075 19.1677 17.4612V18.8297C19.1735 18.9343 19.1575 19.039 19.1206 19.137C19.0837 19.235 19.0268 19.3242 18.9534 19.3989C18.88 19.4736 18.7919 19.532 18.6947 19.5706C18.5974 19.6091 18.4932 19.6269 18.3887 19.6227H17.3958C17.3254 19.6229 17.2557 19.6085 17.1911 19.5804C17.1265 19.5524 17.0684 19.5112 17.0204 19.4596C16.9724 19.4079 16.9356 19.3469 16.9123 19.2803C16.889 19.2138 16.8797 19.1431 16.885 19.0728V12.5308H15.4835V19.5652C15.481 19.7582 15.517 19.9498 15.5896 20.1286C15.6621 20.3074 15.7698 20.4699 15.906 20.6064C16.0423 20.7429 16.2045 20.8507 16.3831 20.9234C16.5617 20.996 16.753 21.0322 16.9457 21.0296H18.3951C18.7028 21.0349 19.0074 20.968 19.2846 20.8342C19.5618 20.7004 19.8038 20.5034 19.9913 20.259C20.5632 20.7348 21.2846 20.993 22.0281 20.988C22.3607 20.9866 22.6892 20.9139 22.9915 20.7749C23.2937 20.636 23.5629 20.4339 23.7808 20.1823C23.9607 20.449 24.2047 20.6661 24.4903 20.8136C24.776 20.9612 25.0941 21.0343 25.4154 21.0264H34.8907C35.0827 21.0286 35.2732 20.9921 35.4509 20.9191C35.6285 20.8461 35.7898 20.7381 35.925 20.6015C36.0602 20.4649 36.1666 20.3025 36.2379 20.1239C36.3092 19.9454 36.3439 19.7543 36.3401 19.562V12.5276H34.9386L34.9481 19.0728ZM23.2445 18.3054C23.2522 18.6348 23.1298 18.954 22.9038 19.1935C22.6778 19.433 22.3666 19.5735 22.0377 19.5843C21.7587 19.5934 21.4815 19.5374 21.2278 19.4209C20.974 19.3044 20.7508 19.1305 20.5756 18.9129V17.4612C20.5658 17.2907 20.5922 17.1201 20.6529 16.9605C20.7137 16.8009 20.8074 16.656 20.928 16.5352C21.0485 16.4145 21.1932 16.3206 21.3526 16.2598C21.5119 16.1989 21.6823 16.1725 21.8525 16.1823H21.9866C22.1569 16.1725 22.3273 16.1989 22.4866 16.2598C22.6459 16.3206 22.7906 16.4145 22.9112 16.5352C23.0318 16.656 23.1255 16.8009 23.1863 16.9605C23.247 17.1201 23.2734 17.2907 23.2636 17.4612L23.2445 18.3054Z" fill="url(#paint4_linear_417_2396)"/>
<path d="M39.4208 12.5308H38.0193V21.0232H39.4208V12.5308Z" fill="url(#paint5_linear_417_2396)"/>
<path d="M43.7085 14.7881H43.5744C43.2217 14.7798 42.8709 14.8432 42.5433 14.9746C42.2158 15.106 41.9182 15.3026 41.6687 15.5525C41.4192 15.8024 41.2229 16.1004 41.0917 16.4284C40.9606 16.7565 40.8972 17.1078 40.9055 17.4611V18.3276C40.8961 19.0258 41.162 19.6994 41.6456 20.2023C42.1292 20.7052 42.7913 20.9967 43.4882 21.0135H44.9632V21.2341C44.9632 22.2221 44.2193 22.7593 41.8058 22.3308V23.6386C44.7684 24.3324 46.3647 23.2837 46.3647 21.573V17.4611C46.3743 17.1086 46.3122 16.7577 46.1823 16.4299C46.0524 16.1021 45.8573 15.8041 45.6089 15.5542C45.3605 15.3042 45.0639 15.1073 44.7373 14.9757C44.4106 14.844 44.0606 14.7801 43.7085 14.7881ZM44.9632 19.6098H43.501C43.1769 19.5887 42.873 19.4447 42.6512 19.207C42.4294 18.9694 42.3063 18.6561 42.307 18.3308V17.4611C42.2973 17.2906 42.3237 17.12 42.3844 16.9604C42.4451 16.8008 42.5389 16.6559 42.6594 16.5351C42.78 16.4144 42.9247 16.3205 43.084 16.2597C43.2434 16.1988 43.4138 16.1724 43.584 16.1822H43.7181C43.8869 16.1742 44.0555 16.2019 44.2128 16.2637C44.3702 16.3254 44.5127 16.4197 44.6311 16.5405C44.7496 16.6612 44.8412 16.8056 44.9001 16.9643C44.959 17.1229 44.9837 17.2922 44.9727 17.4611L44.9632 19.6098Z" fill="url(#paint6_linear_417_2396)"/>
<path d="M51.7471 13.8001C51.9691 13.7976 52.1812 13.7082 52.3381 13.551C52.495 13.3939 52.5843 13.1814 52.5868 12.9592C52.588 12.791 52.5393 12.6263 52.4469 12.486C52.3544 12.3457 52.2223 12.2361 52.0675 12.1712C51.9126 12.1063 51.742 12.089 51.5773 12.1214C51.4126 12.1539 51.2613 12.2348 51.1426 12.3536C51.0239 12.4725 50.9432 12.6241 50.9107 12.789C50.8783 12.954 50.8956 13.1249 50.9604 13.28C51.0252 13.4351 51.1346 13.5673 51.2747 13.66C51.4148 13.7526 51.5793 13.8014 51.7471 13.8001Z" fill="url(#paint7_linear_417_2396)"/>
<path d="M54.135 13.8003C54.3577 13.8003 54.5713 13.7117 54.7287 13.554C54.8862 13.3963 54.9747 13.1824 54.9747 12.9593C54.9747 12.7363 54.8862 12.5224 54.7287 12.3647C54.5713 12.207 54.3577 12.1184 54.135 12.1184C53.9139 12.1233 53.7031 12.2135 53.5467 12.3701C53.3903 12.5268 53.3003 12.7378 53.2954 12.9593C53.2979 13.1816 53.3872 13.394 53.5441 13.5512C53.701 13.7084 53.9131 13.7978 54.135 13.8003Z" fill="url(#paint8_linear_417_2396)"/>
<path d="M58.8472 22.4045C58.679 22.4052 58.5147 22.4559 58.3753 22.5501C58.2359 22.6444 58.1275 22.778 58.064 22.934C58.0005 23.0901 57.9847 23.2615 58.0187 23.4265C58.0526 23.5915 58.1346 23.7427 58.2545 23.861C58.3743 23.9792 58.5266 24.0591 58.6918 24.0906C58.8571 24.1221 59.028 24.1037 59.1828 24.0377C59.3376 23.9718 59.4693 23.8613 59.5614 23.7202C59.6534 23.5792 59.7015 23.4139 59.6996 23.2455C59.6946 23.0218 59.6028 22.8089 59.4437 22.6519C59.2845 22.4949 59.0706 22.4061 58.8472 22.4045Z" fill="url(#paint9_linear_417_2396)"/>
<path d="M64.3926 22.1838C64.1768 22.1971 63.9742 22.2923 63.8261 22.4501C63.6779 22.6078 63.5955 22.8162 63.5955 23.0328C63.5955 23.2493 63.6779 23.4577 63.8261 23.6154C63.9742 23.7732 64.1768 23.8684 64.3926 23.8817C64.6084 23.8684 64.8111 23.7732 64.9592 23.6154C65.1073 23.4577 65.1898 23.2493 65.1898 23.0328C65.1898 22.8162 65.1073 22.6078 64.9592 22.4501C64.8111 22.2923 64.6084 22.1971 64.3926 22.1838Z" fill="url(#paint10_linear_417_2396)"/>
<path d="M64.9384 19.562V15.2422H63.5305V19.0792C63.5353 19.1494 63.5256 19.2199 63.5022 19.2862C63.4787 19.3526 63.4419 19.4134 63.394 19.465C63.3461 19.5165 63.2882 19.5577 63.2238 19.5859C63.1594 19.6141 63.09 19.6288 63.0197 19.6291H60.488C59.7793 19.6291 59.5494 19.1783 59.5494 18.6283V18.4205C59.5556 18.3065 59.5556 18.1923 59.5494 18.0784V15.2518H58.1352V18.6571C58.1352 19.1815 57.9149 19.6163 57.2093 19.6163H56.2356C56.1302 19.6218 56.0248 19.6051 55.9262 19.5672C55.8277 19.5293 55.7382 19.4711 55.6635 19.3963C55.5889 19.3216 55.5308 19.2319 55.4929 19.1332C55.4551 19.0345 55.4384 18.929 55.4439 18.8234V14.7786H52.676C52.3234 14.7715 51.973 14.8363 51.646 14.9689C51.3191 15.1015 51.0225 15.2992 50.7741 15.55C50.5257 15.8009 50.3308 16.0996 50.2012 16.4281C50.0715 16.7567 50.0098 17.1081 50.0198 17.4613V18.3054C50.0104 19.0054 50.2783 19.6806 50.7647 20.1833C51.2511 20.6861 51.9165 20.9754 52.6153 20.988C52.9698 21.0061 53.3238 20.9455 53.6522 20.8106C53.9806 20.6758 54.2751 20.4699 54.5149 20.2079C54.724 20.4683 54.9897 20.6774 55.2918 20.8192C55.5939 20.9611 55.9244 21.032 56.258 21.0264H57.2157C57.5233 21.0417 57.8304 20.9882 58.1148 20.8699C58.3992 20.7515 58.6537 20.5712 58.8599 20.3421C59.0423 20.5489 59.265 20.7161 59.5142 20.8338C59.7634 20.9514 60.0339 21.017 60.3093 21.0264H63.4762C63.6689 21.029 63.8602 20.9929 64.0388 20.9202C64.2173 20.8475 64.3796 20.7397 64.5158 20.6032C64.6521 20.4667 64.7597 20.3043 64.8323 20.1254C64.9049 19.9466 64.9409 19.755 64.9384 19.562ZM54.0839 18.9033C53.9113 19.1206 53.6903 19.2946 53.4387 19.4111C53.187 19.5277 52.9116 19.5838 52.6345 19.5748C52.472 19.5702 52.3119 19.5335 52.1637 19.4665C52.0154 19.3996 51.8819 19.3039 51.7709 19.185C51.6598 19.066 51.5734 18.9262 51.5167 18.7735C51.46 18.6209 51.4341 18.4585 51.4405 18.2958V17.4613C51.4295 17.2924 51.4543 17.123 51.5132 16.9644C51.572 16.8057 51.6637 16.6613 51.7821 16.5406C51.9005 16.4199 52.0431 16.3255 52.2004 16.2638C52.3578 16.202 52.5264 16.1743 52.6952 16.1823H54.0839V18.9033Z" fill="url(#paint11_linear_417_2396)"/>
<path d="M62.0045 22.184C61.8888 22.1769 61.7729 22.1935 61.6639 22.233C61.5549 22.2724 61.4551 22.3338 61.3707 22.4133C61.2863 22.4929 61.219 22.5889 61.173 22.6954C61.127 22.802 61.1033 22.9168 61.1033 23.0329C61.1033 23.149 61.127 23.2638 61.173 23.3704C61.219 23.4769 61.2863 23.5729 61.3707 23.6525C61.4551 23.732 61.5549 23.7934 61.6639 23.8328C61.7729 23.8722 61.8888 23.8889 62.0045 23.8818C62.2203 23.8685 62.4229 23.7733 62.5711 23.6156C62.7192 23.4578 62.8017 23.2494 62.8017 23.0329C62.8017 22.8163 62.7192 22.608 62.5711 22.4502C62.4229 22.2925 62.2203 22.1972 62.0045 22.184Z" fill="url(#paint12_linear_417_2396)"/>
<path d="M76.5497 14.0686C76.7164 14.0674 76.8791 14.0168 77.0173 13.9232C77.1554 13.8296 77.2628 13.6972 77.3261 13.5426C77.3893 13.3881 77.4055 13.2182 77.3727 13.0545C77.3398 12.8907 77.2594 12.7403 77.1415 12.6222C77.0235 12.5041 76.8734 12.4235 76.7099 12.3906C76.5464 12.3577 76.3768 12.374 76.2225 12.4373C76.0681 12.5006 75.9359 12.6082 75.8425 12.7466C75.7491 12.885 75.6985 13.0479 75.6973 13.2149C75.6973 13.4413 75.7871 13.6585 75.9469 13.8186C76.1068 13.9787 76.3236 14.0686 76.5497 14.0686Z" fill="url(#paint13_linear_417_2396)"/>
<path d="M81.6161 19.0728C81.6215 19.1445 81.6118 19.2165 81.5876 19.2842C81.5633 19.3519 81.5251 19.4137 81.4754 19.4656C81.4257 19.5175 81.3656 19.5583 81.2991 19.5854C81.2326 19.6124 81.1611 19.6252 81.0894 19.6227H79.7166V18.5452C79.7166 16.0448 78.6822 14.8713 76.6103 14.8713C75.2567 14.8713 74.0882 15.7986 73.1369 16.8857V15.4852H71.7354V19.6227H69.8007V15.1463H68.3864V21.1735C68.3951 21.3366 68.3695 21.4997 68.3114 21.6523C68.2533 21.805 68.1639 21.9437 68.0491 22.0597C67.9342 22.1756 67.7964 22.2662 67.6444 22.3256C67.4925 22.385 67.3298 22.4119 67.1669 22.4045H66.5571V23.8082H67.1669C67.5146 23.816 67.8604 23.7533 68.1833 23.6237C68.5061 23.4941 68.7995 23.3004 69.0456 23.0542C69.2917 22.808 69.4855 22.5144 69.6153 22.1912C69.745 21.868 69.8081 21.5218 69.8007 21.1735V21.0264H81.565C81.7561 21.0268 81.9454 20.9891 82.1217 20.9154C82.2981 20.8417 82.458 20.7335 82.5921 20.5971C82.7262 20.4607 82.8317 20.2989 82.9026 20.1212C82.9735 19.9434 83.0082 19.7533 83.0048 19.562V12.5276H81.6033L81.6161 19.0728ZM78.3662 19.6227H73.1369V18.2254C74.2223 16.9465 75.3301 16.2718 76.4379 16.2718C77.5457 16.2718 78.3534 16.9305 78.3534 18.5548L78.3662 19.6227Z" fill="url(#paint14_linear_417_2396)"/>
<path d="M86.0856 12.5308H84.6841V21.0232H86.0856V12.5308Z" fill="url(#paint15_linear_417_2396)"/>
<path d="M90.3731 14.7881H90.239C89.8862 14.7798 89.5354 14.8432 89.2079 14.9746C88.8803 15.106 88.5828 15.3026 88.3333 15.5525C88.0838 15.8024 87.8875 16.1004 87.7563 16.4284C87.6251 16.7565 87.5618 17.1078 87.5701 17.4611V18.3276C87.5606 19.0263 87.827 19.7005 88.3113 20.2034C88.7955 20.7064 89.4585 20.9975 90.156 21.0135H91.6245V21.2341C91.6245 22.2221 90.8839 22.7593 88.4703 22.3308V23.6386C91.4298 24.3324 93.026 23.2837 93.026 21.573V17.4611C93.0356 17.1088 92.9737 16.7583 92.844 16.4307C92.7142 16.1031 92.5194 15.8053 92.2714 15.5553C92.0233 15.3054 91.7271 15.1085 91.4008 14.9766C91.0745 14.8447 90.7249 14.7806 90.3731 14.7881ZM91.6245 19.6098H90.1624C89.8383 19.5887 89.5344 19.4447 89.3126 19.207C89.0908 18.9694 88.9677 18.6561 88.9684 18.3308V17.4611C88.9586 17.2906 88.985 17.12 89.0457 16.9604C89.1065 16.8008 89.2002 16.6559 89.3208 16.5351C89.4414 16.4144 89.5861 16.3205 89.7454 16.2597C89.9047 16.1988 90.0751 16.1724 90.2454 16.1822H90.3795C90.5483 16.1742 90.7168 16.2019 90.8742 16.2637C91.0315 16.3254 91.1741 16.4197 91.2925 16.5405C91.4109 16.6612 91.5026 16.8056 91.5615 16.9643C91.6203 17.1229 91.6451 17.2922 91.6341 17.4611L91.6245 19.6098Z" fill="url(#paint16_linear_417_2396)"/>
<path d="M100.777 13.9727C100.993 13.9595 101.196 13.8643 101.344 13.7065C101.492 13.5488 101.575 13.3404 101.575 13.1238C101.575 12.9073 101.492 12.6989 101.344 12.5411C101.196 12.3834 100.993 12.2882 100.777 12.2749C100.562 12.2882 100.359 12.3834 100.211 12.5411C100.063 12.6989 99.9802 12.9073 99.9802 13.1238C99.9802 13.3404 100.063 13.5488 100.211 13.7065C100.359 13.8643 100.562 13.9595 100.777 13.9727Z" fill="url(#paint17_linear_417_2396)"/>
<path d="M98.3893 13.9728C98.5566 13.9721 98.7199 13.922 98.8589 13.8287C98.9978 13.7354 99.1062 13.6031 99.1703 13.4484C99.2345 13.2937 99.2516 13.1234 99.2194 12.959C99.1873 12.7946 99.1075 12.6433 98.9898 12.5242C98.8722 12.4051 98.7221 12.3234 98.5583 12.2894C98.3945 12.2554 98.2244 12.2706 98.0692 12.3332C97.914 12.3957 97.7807 12.5027 97.686 12.6408C97.5913 12.7789 97.5394 12.9419 97.5369 13.1095C97.5357 13.2224 97.5568 13.3344 97.599 13.4391C97.6413 13.5438 97.7039 13.639 97.7832 13.7193C97.8625 13.7996 97.9568 13.8634 98.0609 13.9069C98.1649 13.9504 98.2766 13.9728 98.3893 13.9728Z" fill="url(#paint18_linear_417_2396)"/>
<path d="M99.4366 14.7786H99.2419C98.9002 14.7777 98.5617 14.8443 98.2457 14.9745C97.9297 15.1047 97.6424 15.2959 97.4002 15.5373C97.158 15.7787 96.9656 16.0655 96.8341 16.3813C96.7026 16.6972 96.6344 17.0359 96.6336 17.3781V18.4141C96.6315 18.7571 96.6976 19.0972 96.828 19.4144C96.9585 19.7315 97.1508 20.0195 97.3936 20.2615C97.6364 20.5035 97.9248 20.6946 98.2422 20.8238C98.5595 20.9529 98.8993 21.0174 99.2419 21.0136H99.5451C99.8734 21.0127 100.198 20.947 100.501 20.8201C100.804 20.6933 101.079 20.5078 101.31 20.2743C101.541 20.0408 101.724 19.7639 101.848 19.4595C101.971 19.1551 102.034 18.8291 102.032 18.5004V17.3781C102.033 17.0365 101.966 16.6981 101.836 16.3823C101.706 16.0665 101.515 15.7796 101.274 15.5381C101.033 15.2965 100.746 15.1051 100.431 14.9747C100.116 14.8444 99.7777 14.7777 99.4366 14.7786ZM100.631 18.5611C100.631 18.8357 100.524 19.0996 100.333 19.2958C100.141 19.4921 99.8799 19.6049 99.6058 19.6099H99.2514C98.9336 19.6065 98.6299 19.4777 98.4064 19.2514C98.1828 19.0251 98.0574 18.7196 98.0574 18.4013V17.3781C98.0526 17.2197 98.0801 17.062 98.1384 16.9148C98.1967 16.7675 98.2845 16.6337 98.3963 16.5217C98.5082 16.4096 98.6418 16.3217 98.7888 16.2633C98.9359 16.205 99.0933 16.1774 99.2514 16.1822H99.4462C99.6043 16.1774 99.7617 16.205 99.9088 16.2633C100.056 16.3217 100.189 16.4096 100.301 16.5217C100.413 16.6337 100.501 16.7675 100.559 16.9148C100.617 17.062 100.645 17.2197 100.64 17.3781L100.631 18.5611Z" fill="url(#paint19_linear_417_2396)"/>
<path d="M116.903 14.0335C117.071 14.0354 117.236 13.9872 117.377 13.8951C117.517 13.8029 117.628 13.6709 117.694 13.5159C117.759 13.3608 117.778 13.1897 117.746 13.0242C117.715 12.8587 117.635 12.7062 117.517 12.5862C117.399 12.4662 117.248 12.3839 117.083 12.35C116.919 12.316 116.747 12.3318 116.592 12.3954C116.436 12.459 116.302 12.5675 116.208 12.7072C116.114 12.8468 116.064 13.0113 116.063 13.1798C116.064 13.4038 116.152 13.6185 116.309 13.7781C116.466 13.9376 116.679 14.0293 116.903 14.0335Z" fill="url(#paint20_linear_417_2396)"/>
<path d="M119.792 19.0728C119.797 19.1434 119.788 19.2143 119.764 19.2811C119.741 19.3479 119.704 19.4091 119.655 19.4608C119.607 19.5124 119.549 19.5535 119.484 19.5814C119.419 19.6093 119.349 19.6234 119.278 19.6227H117.634V15.1463H116.223V21.1735C116.231 21.3366 116.206 21.4997 116.148 21.6523C116.089 21.805 116 21.9437 115.885 22.0597C115.77 22.1756 115.633 22.2662 115.481 22.3256C115.329 22.385 115.166 22.4119 115.003 22.4045H114.393V23.8082H115.003C115.351 23.8156 115.696 23.7525 116.018 23.6227C116.341 23.4929 116.634 23.2991 116.88 23.053C117.125 22.8068 117.319 22.5134 117.449 22.1904C117.578 21.8674 117.641 21.5215 117.634 21.1735V21.0264H119.741C119.933 21.0286 120.124 20.9921 120.301 20.9191C120.479 20.8462 120.641 20.7383 120.776 20.6017C120.912 20.4652 121.018 20.3028 121.09 20.1242C121.162 19.9456 121.197 19.7544 121.193 19.562V12.5276H119.792V19.0728Z" fill="url(#paint21_linear_417_2396)"/>
<path d="M124.261 12.5308H122.86V21.0232H124.261V12.5308Z" fill="url(#paint22_linear_417_2396)"/>
<path d="M129.877 13.8001C130.099 13.7976 130.311 13.7082 130.468 13.551C130.625 13.3939 130.714 13.1814 130.717 12.9592C130.718 12.791 130.669 12.6263 130.577 12.486C130.484 12.3457 130.352 12.2361 130.197 12.1712C130.042 12.1063 129.872 12.089 129.707 12.1214C129.542 12.1539 129.391 12.2348 129.272 12.3536C129.154 12.4725 129.073 12.6241 129.04 12.789C129.008 12.954 129.025 13.1249 129.09 13.28C129.155 13.4351 129.264 13.5673 129.405 13.66C129.545 13.7526 129.709 13.8014 129.877 13.8001Z" fill="url(#paint23_linear_417_2396)"/>
<path d="M132.265 13.8003C132.488 13.8003 132.701 13.7117 132.859 13.554C133.016 13.3963 133.105 13.1824 133.105 12.9593C133.105 12.7363 133.016 12.5224 132.859 12.3647C132.701 12.207 132.488 12.1184 132.265 12.1184C132.044 12.1233 131.833 12.2135 131.677 12.3701C131.52 12.5268 131.43 12.7378 131.425 12.9593C131.428 13.1816 131.517 13.394 131.674 13.5512C131.831 13.7084 132.043 13.7978 132.265 13.8003Z" fill="url(#paint24_linear_417_2396)"/>
<path d="M137.941 13.3749H136.664C136.535 13.3091 136.426 13.2095 136.349 13.0868C136.272 12.9641 136.23 12.8228 136.227 12.6779C136.218 12.6199 136.223 12.5608 136.24 12.5048C136.257 12.4488 136.286 12.3973 136.325 12.3541C136.365 12.3109 136.414 12.2771 136.468 12.2551C136.522 12.2331 136.58 12.2235 136.639 12.227C136.774 12.2294 136.903 12.284 136.998 12.3794C137.094 12.4747 137.149 12.6034 137.153 12.7386H137.871C137.81 11.8849 137.335 11.4596 136.629 11.4596C136.475 11.4457 136.319 11.4656 136.174 11.518C136.028 11.5704 135.895 11.6539 135.785 11.7629C135.674 11.8718 135.589 12.0036 135.535 12.1489C135.481 12.2942 135.458 12.4496 135.47 12.6043C135.467 12.893 135.572 13.1725 135.764 13.3877H135.323V14.1807H137.932L137.941 13.3749Z" fill="url(#paint25_linear_417_2396)"/>
<path d="M140.083 22.1614C139.916 22.1608 139.751 22.2101 139.612 22.3031C139.472 22.3961 139.363 22.5286 139.299 22.6837C139.234 22.8389 139.218 23.0097 139.25 23.1744C139.283 23.3392 139.364 23.4904 139.483 23.609C139.602 23.7275 139.753 23.8081 139.918 23.8403C140.082 23.8725 140.253 23.855 140.408 23.79C140.562 23.725 140.694 23.6154 140.786 23.4751C140.879 23.3349 140.927 23.1703 140.926 23.0023C140.921 22.7803 140.831 22.5688 140.674 22.412C140.517 22.2553 140.305 22.1655 140.083 22.1614Z" fill="url(#paint26_linear_417_2396)"/>
<path d="M142.471 22.1614C142.304 22.1608 142.14 22.2101 142 22.3031C141.86 22.3961 141.751 22.5286 141.687 22.6837C141.623 22.8389 141.606 23.0097 141.639 23.1744C141.671 23.3392 141.752 23.4904 141.871 23.609C141.99 23.7275 142.141 23.8081 142.306 23.8403C142.471 23.8725 142.641 23.855 142.796 23.79C142.95 23.725 143.082 23.6154 143.174 23.4751C143.267 23.3349 143.315 23.1703 143.314 23.0023C143.312 22.7795 143.222 22.5666 143.064 22.4093C142.907 22.2521 142.694 22.163 142.471 22.1614Z" fill="url(#paint27_linear_417_2396)"/>
<path d="M147.065 14.9959V15.7057C146.586 15.8202 146.159 16.0933 145.853 16.4809C145.548 16.8685 145.382 17.3479 145.383 17.8416V18.4811C145.381 18.8994 145.533 19.3037 145.811 19.6162H143.142C142.436 19.6162 142.203 19.1654 142.203 18.6154V18.4076C142.209 18.2936 142.209 18.1794 142.203 18.0654V15.2517H140.792V18.657C140.792 19.1813 140.575 19.6162 139.866 19.6162H138.369C137.651 19.6162 137.43 19.1654 137.43 18.6154V15.2517H136.029V18.6218C136.029 19.1717 135.834 19.6226 135.103 19.6226H134.404C134.298 19.6281 134.193 19.6114 134.094 19.5735C133.996 19.5356 133.906 19.4774 133.832 19.4026C133.757 19.3278 133.699 19.2382 133.661 19.1395C133.623 19.0408 133.607 18.9352 133.612 18.8296V14.7785H130.822C130.469 14.7714 130.119 14.8361 129.792 14.9687C129.465 15.1013 129.168 15.299 128.92 15.5499C128.672 15.8007 128.477 16.0995 128.347 16.428C128.217 16.7565 128.156 17.108 128.166 17.4611V18.3052C128.156 19.0052 128.424 19.6805 128.911 20.1832C129.397 20.6859 130.062 20.9753 130.761 20.9879C131.116 21.0059 131.47 20.9454 131.798 20.8105C132.126 20.6756 132.421 20.4698 132.661 20.2077C132.87 20.4681 133.136 20.6772 133.438 20.8191C133.74 20.961 134.07 21.0318 134.404 21.0263H135.122C135.43 21.0413 135.737 20.9877 136.021 20.8694C136.305 20.7511 136.56 20.5709 136.766 20.342C136.946 20.5486 137.166 20.716 137.414 20.8337C137.661 20.9514 137.929 21.017 138.203 21.0263H139.873C140.18 21.0413 140.487 20.9877 140.772 20.8694C141.056 20.7511 141.31 20.5709 141.517 20.342C141.699 20.549 141.922 20.7165 142.171 20.8342C142.42 20.9518 142.691 21.0172 142.966 21.0263H150.775C151.119 21.0267 151.46 20.9591 151.778 20.8273C152.097 20.6955 152.386 20.5022 152.629 20.2583C152.873 20.0145 153.066 19.7249 153.197 19.4062C153.329 19.0876 153.396 18.746 153.396 18.4012V17.5602C153.342 15.5586 150.855 14.0686 147.065 14.9959ZM132.204 18.9032C132.032 19.1205 131.811 19.2944 131.559 19.411C131.307 19.5276 131.032 19.5836 130.755 19.5746C130.592 19.5701 130.432 19.5333 130.284 19.4664C130.136 19.3995 130.002 19.3038 129.891 19.1848C129.78 19.0659 129.694 18.926 129.637 18.7734C129.58 18.6208 129.554 18.4584 129.561 18.2957V17.4611C129.55 17.2922 129.575 17.1229 129.633 16.9643C129.692 16.8056 129.784 16.6612 129.902 16.5405C130.021 16.4197 130.163 16.3254 130.321 16.2637C130.478 16.2019 130.647 16.1741 130.815 16.1821H132.204V18.9032ZM148.942 19.6226H147.723C147.42 19.6052 147.135 19.4753 146.923 19.2582C146.711 19.0412 146.587 18.7526 146.577 18.4491V17.9056C146.577 17.1861 146.992 16.7577 147.771 16.7577C147.926 16.7423 148.083 16.7612 148.231 16.813C148.378 16.8649 148.512 16.9485 148.624 17.0579C148.736 17.1673 148.822 17.2999 148.877 17.4464C148.932 17.5928 148.954 17.7495 148.942 17.9056V19.6226ZM150.733 19.6226H150.136V17.9375C150.163 17.5049 150.033 17.0772 149.771 16.7322C149.509 16.3872 149.133 16.1478 148.709 16.0574C150.551 15.8752 151.94 16.5946 151.975 17.5602V18.366C151.975 18.6971 151.845 19.0148 151.612 19.25C151.38 19.4853 151.064 19.6192 150.733 19.6226Z" fill="url(#paint28_linear_417_2396)"/>
<path d="M113.653 18.6955C113.653 19.3118 113.409 19.9029 112.974 20.3392C112.54 20.7756 111.95 21.0216 111.335 21.0233H105.011C104.818 21.0263 104.627 20.9906 104.449 20.9182C104.27 20.8458 104.108 20.7383 103.972 20.602C103.836 20.4657 103.729 20.3034 103.657 20.1248C103.584 19.9461 103.549 19.7548 103.552 19.562V12.5277H104.95V19.076C104.945 19.1466 104.955 19.2175 104.979 19.2841C105.003 19.3508 105.04 19.4117 105.089 19.4631C105.137 19.5145 105.196 19.5552 105.261 19.5827C105.326 19.6102 105.397 19.6238 105.467 19.6228H111.249C111.389 19.6201 111.528 19.5888 111.656 19.5306C111.784 19.4725 111.899 19.3888 111.994 19.2846C112.089 19.1805 112.161 19.0581 112.207 18.9249C112.253 18.7917 112.271 18.6506 112.261 18.5101C112.261 17.7427 111.686 17.3526 110.92 17.3526H107.268L107 16.307L109.145 12.5181L110.46 13.0201L108.791 15.9457H110.933C111.292 15.9449 111.649 16.0156 111.981 16.1538C112.313 16.292 112.614 16.4949 112.867 16.7507C113.12 17.0066 113.32 17.3103 113.455 17.6442C113.59 17.978 113.657 18.3354 113.653 18.6955Z" fill="url(#paint29_linear_417_2396)"/>
<path d="M6.02096 33.3974V34.5101H0.890625V33.618L4.21082 28.6939H1.09175V27.5908H5.88049V28.4925L2.58584 33.3974H6.02096Z" fill="url(#paint30_linear_417_2396)"/>
<path d="M7.50551 30.4013L7.29161 29.5828C8.93894 28.8953 11.1737 28.8442 11.1737 31.0152V34.4941H9.93819V33.8546C9.73695 34.0787 9.49076 34.2578 9.21569 34.3801C8.94063 34.5024 8.64289 34.5652 8.34194 34.5644C8.15791 34.573 7.97415 34.5424 7.80274 34.4748C7.63133 34.4072 7.47615 34.304 7.3474 34.172C7.21865 34.04 7.11924 33.8823 7.0557 33.7091C6.99216 33.5359 6.96594 33.3512 6.97875 33.1671C6.97875 32.016 8.09931 31.2263 9.95734 31.3062V31.0344C9.94776 29.8162 8.66438 29.9569 7.50551 30.4013ZM8.10889 33.0232C8.10889 33.4357 8.4441 33.6403 8.85593 33.6403C9.06066 33.6392 9.26303 33.5964 9.45072 33.5145C9.63842 33.4326 9.80753 33.3133 9.94776 33.1639V32.0096C8.69631 31.8786 8.10889 32.5372 8.10889 33.0232Z" fill="url(#paint31_linear_417_2396)"/>
<path d="M18.0536 30.4013L17.8397 29.5828C19.4743 28.8953 21.709 28.8442 21.709 31.0152V34.4941H20.4863V33.8546C20.285 34.0787 20.0389 34.2578 19.7638 34.3801C19.4887 34.5024 19.191 34.5652 18.89 34.5644C18.706 34.573 18.5222 34.5424 18.3508 34.4748C18.1794 34.4072 18.0243 34.304 17.8955 34.172C17.7667 34.04 17.6673 33.8823 17.6038 33.7091C17.5403 33.5359 17.514 33.3512 17.5268 33.1671C17.5268 32.016 18.6474 31.2263 20.5054 31.3062V31.0344C20.4959 29.8162 19.2125 29.9569 18.0536 30.4013ZM18.657 33.0232C18.657 33.4357 18.9922 33.6403 19.404 33.6403C19.6088 33.6392 19.8111 33.5964 19.9988 33.5145C20.1865 33.4326 20.3556 33.3133 20.4959 33.1639V32.0096C19.2444 31.8786 18.657 32.5372 18.657 33.0232Z" fill="url(#paint32_linear_417_2396)"/>
<path d="M24.4545 33.1831C24.4464 33.2528 24.4541 33.3234 24.477 33.3897C24.5 33.4561 24.5375 33.5163 24.5869 33.5661C24.6363 33.6159 24.6962 33.6539 24.7623 33.6772C24.8284 33.7006 24.8989 33.7087 24.9685 33.7011C25.1221 33.7012 25.2753 33.684 25.425 33.6499V34.5324C25.1082 34.5831 24.7881 34.6098 24.4673 34.6123C23.5287 34.6123 23.2254 34.1263 23.2254 33.2982V30.4525H22.5869L22.7497 29.5316H23.2318V28.2974L24.4545 27.9968V29.5316H25.4857L25.3229 30.4525H24.4545V33.1831Z" fill="url(#paint33_linear_417_2396)"/>
<path d="M27.2831 36.179H26.5457C26.736 35.4615 26.8705 34.7303 26.9479 33.9919L26.9703 33.6274H27.8769L27.8386 33.9824C27.73 34.7319 27.5438 35.4681 27.2831 36.179Z" fill="url(#paint34_linear_417_2396)"/>
<path d="M32.7486 28.6939V34.5101H31.4173V28.6939H29.5273V27.5908H34.6353V28.6939H32.7486Z" fill="url(#paint35_linear_417_2396)"/>
<path d="M36.1742 30.4012L35.9603 29.5826C37.5981 28.8952 39.8296 28.844 39.8296 31.0087V34.4875H38.6069V33.848C38.4057 34.0721 38.1595 34.2512 37.8844 34.3735C37.6093 34.4959 37.3116 34.5587 37.0106 34.5578C36.8266 34.5664 36.6429 34.5359 36.4714 34.4683C36.3 34.4006 36.1449 34.2974 36.0161 34.1655C35.8873 34.0335 35.7879 33.8757 35.7244 33.7025C35.6609 33.5293 35.6346 33.3446 35.6474 33.1606C35.6474 32.0095 36.768 31.2197 38.626 31.2997V31.0279C38.6292 29.816 37.3522 29.9567 36.1742 30.4012ZM36.7808 33.0231C36.7808 33.4355 37.1 33.6402 37.5278 33.6402C37.7321 33.6392 37.934 33.5964 38.1212 33.5145C38.3084 33.4326 38.4769 33.3132 38.6165 33.1638V32.0095C37.3522 31.8784 36.7808 32.5371 36.7808 33.0231Z" fill="url(#paint36_linear_417_2396)"/>
<path d="M42.3133 29.4165L43.0316 30.5004L43.4434 31.2582L43.8808 30.4813L44.5863 29.4165H45.8633L44.2096 31.9073L45.9144 34.5164H44.449L43.7371 33.4357L43.3125 32.6587L42.8879 33.4453L42.2015 34.51H40.8479L42.5655 31.9009L40.8639 29.4165H42.3133Z" fill="url(#paint37_linear_417_2396)"/>
<path d="M49.5634 30.4012L49.3527 29.5826C50.9872 28.8952 53.2188 28.844 53.2188 31.0087V34.4875H51.996V33.848C51.7951 34.0725 51.5489 34.2518 51.2738 34.3741C50.9987 34.4964 50.7008 34.5591 50.3998 34.5578C50.2158 34.5664 50.032 34.5359 49.8606 34.4683C49.6892 34.4006 49.534 34.2974 49.4053 34.1655C49.2765 34.0335 49.1771 33.8757 49.1136 33.7025C49.05 33.5293 49.0238 33.3446 49.0366 33.1606C49.0366 32.0095 50.1572 31.2197 52.0152 31.2997V31.0279C52.0088 29.816 50.7254 29.9567 49.5634 30.4012ZM50.1699 33.0231C50.1699 33.4355 50.4892 33.6402 50.917 33.6402C51.1217 33.639 51.3241 33.5962 51.5118 33.5143C51.6995 33.4324 51.8686 33.3132 52.0088 33.1638V32.0095C50.7606 31.8784 50.1699 32.5371 50.1699 33.0231Z" fill="url(#paint38_linear_417_2396)"/>
<path d="M54.5342 34.4877V29.4166H55.7537V29.8834C56.226 29.5122 56.8102 29.3127 57.4106 29.3175C58.4194 29.3175 58.9366 29.9026 58.9366 30.9641V34.4813H57.7139V31.3638C57.7139 30.8075 57.4617 30.4941 56.887 30.4941C56.4698 30.5248 56.0731 30.6871 55.7537 30.9578V34.4749L54.5342 34.4877Z" fill="url(#paint39_linear_417_2396)"/>
<path d="M62.0652 34.5707C60.7339 34.5707 60.1082 33.4356 60.1082 31.92C60.1082 30.4044 60.7945 29.2693 62.1354 29.2693C62.3823 29.2696 62.6266 29.3208 62.8529 29.4199C63.0792 29.5189 63.2827 29.6635 63.4507 29.8448V27.5491H64.6606V34.4875H63.4507V33.9631C63.273 34.1533 63.0585 34.3052 62.8203 34.4097C62.5821 34.5141 62.3252 34.5689 62.0652 34.5707ZM62.5089 30.2605C61.7938 30.2605 61.3788 30.8584 61.3788 31.92C61.3788 32.9815 61.7938 33.5794 62.5089 33.5794C62.8528 33.5741 63.1847 33.4524 63.4507 33.2341V30.6058C63.182 30.3924 62.8517 30.2713 62.5089 30.2605Z" fill="url(#paint40_linear_417_2396)"/>
<path d="M71.2851 34.6092C69.0759 34.6092 68.166 33.1639 68.166 31.0504C68.166 28.9369 69.0759 27.498 71.2851 27.498C72.0917 27.5046 72.8876 27.6845 73.6188 28.0256V29.0456C72.9142 28.7919 72.1764 28.6421 71.4287 28.6012C70.1517 28.6012 69.4973 29.4325 69.4973 31.06C69.4973 32.6875 70.1645 33.506 71.4287 33.506C72.1761 33.4694 72.914 33.3229 73.6188 33.0712V34.0944C72.8861 34.4297 72.0906 34.6052 71.2851 34.6092Z" fill="url(#paint41_linear_417_2396)"/>
<path d="M79.3143 29.4165V34.5324H78.0916V34.0368C77.626 34.4235 77.0395 34.634 76.4347 34.6315C75.4163 34.6315 74.9119 34.0368 74.9119 32.9849V29.4165H76.1346V32.5628C76.1346 33.1191 76.3868 33.4325 76.9614 33.4325C77.3766 33.3974 77.7711 33.2355 78.0916 32.9689V29.4165H79.3143Z" fill="url(#paint42_linear_417_2396)"/>
<path d="M80.4763 34.2126V33.3013C81.0268 33.5608 81.6242 33.7055 82.2322 33.7266C82.9888 33.7266 83.1899 33.3621 83.1899 33.1095C83.1899 32.7066 82.7047 32.5531 82.1492 32.3517C81.4309 32.1087 80.5721 31.7857 80.5721 30.7753C80.5721 29.7649 81.3447 29.0967 82.7781 29.0967C83.3781 29.0968 83.9697 29.2381 84.5052 29.5092V30.4108C84.0803 30.1552 83.5961 30.0152 83.1005 30.0048C82.3024 30.0048 81.9704 30.3693 81.9704 30.673C81.9704 31.0983 82.5163 31.2582 83.1229 31.482C83.8284 31.7346 84.617 32.0671 84.617 32.9784C84.617 34.0399 83.7167 34.6474 82.4844 34.6474C81.7919 34.646 81.1075 34.4978 80.4763 34.2126Z" fill="url(#paint43_linear_417_2396)"/>
<path d="M87.1296 33.1831C87.1214 33.2531 87.1291 33.324 87.1522 33.3906C87.1753 33.4572 87.2132 33.5177 87.2629 33.5675C87.3127 33.6173 87.3731 33.6553 87.4395 33.6784C87.506 33.7015 87.5769 33.7093 87.6468 33.7011C87.7993 33.7012 87.9514 33.6841 88.1001 33.6499V34.5324C87.7833 34.5832 87.4631 34.6099 87.1423 34.6123C86.2006 34.6123 85.9005 34.1263 85.9005 33.2982V30.4525H85.262L85.4248 29.5316H85.91V28.2974L87.1296 27.9968V29.5316H88.1607L87.9979 30.4525H87.1296V33.1831Z" fill="url(#paint44_linear_417_2396)"/>
<path d="M88.978 31.92C88.978 30.4236 89.7251 29.2693 91.3532 29.2693C92.9814 29.2693 93.7253 30.4236 93.7253 31.92C93.7253 33.4164 92.9782 34.5706 91.3532 34.5706C89.7283 34.5706 88.978 33.4164 88.978 31.92ZM90.1082 31.92C90.1082 32.9112 90.504 33.6882 91.3532 33.6882C92.2024 33.6882 92.5728 32.9112 92.5728 31.92C92.5728 30.9288 92.1993 30.1486 91.3532 30.1486C90.5072 30.1486 90.1082 30.9288 90.1082 31.92Z" fill="url(#paint45_linear_417_2396)"/>
<path d="M102.428 30.9577V34.4749H101.202V31.3638C101.202 30.8074 100.95 30.4941 100.372 30.4941C99.9599 30.5287 99.5702 30.6958 99.2609 30.9705C99.2798 31.1007 99.2872 31.2323 99.2833 31.3638V34.4877H98.0701V31.3638C98.0701 30.8074 97.8179 30.4941 97.2433 30.4941C96.8383 30.5243 96.4546 30.6873 96.1514 30.9577V34.4749H94.9319V29.4166H96.1514V30.088C96.3505 29.8514 96.5974 29.6599 96.8759 29.5259C97.1543 29.392 97.458 29.3187 97.7668 29.311C98.4532 29.311 98.9097 29.5828 99.1204 30.1488C99.7174 29.5732 100.263 29.311 100.899 29.311C101.923 29.311 102.428 29.8962 102.428 30.9577Z" fill="url(#paint46_linear_417_2396)"/>
<path d="M103.59 34.2126V33.3013C104.142 33.5605 104.74 33.7052 105.349 33.7266C106.106 33.7266 106.307 33.3621 106.307 33.1095C106.307 32.7066 105.822 32.5531 105.266 32.3517C104.551 32.1087 103.692 31.7857 103.692 30.7753C103.692 29.7649 104.458 29.0967 105.895 29.0967C106.494 29.0964 107.085 29.2377 107.619 29.5092V30.4108C107.195 30.1553 106.712 30.0153 106.217 30.0048C105.419 30.0048 105.084 30.3693 105.084 30.673C105.084 31.0983 105.63 31.2582 106.237 31.482C106.942 31.7346 107.731 32.0671 107.731 32.9784C107.731 34.0399 106.834 34.6474 105.601 34.6474C104.908 34.6464 104.222 34.4982 103.59 34.2126Z" fill="url(#paint47_linear_417_2396)"/>
<path d="M112.628 32.8409L112.095 34.51H110.779L113.353 27.5396H114.444L116.938 34.51H115.584L115.041 32.8409H112.628ZM112.87 31.8497H114.821L113.863 28.9368L112.87 31.8497Z" fill="url(#paint48_linear_417_2396)"/>
<path d="M122.333 29.4165V34.5324H121.11V34.0368C120.646 34.423 120.06 34.6335 119.457 34.6315C118.435 34.6315 117.931 34.0368 117.931 32.9849V29.4165H119.153V32.5628C119.153 33.1191 119.406 33.4325 119.98 33.4325C120.395 33.3974 120.79 33.2355 121.11 32.9689V29.4165H122.333Z" fill="url(#paint49_linear_417_2396)"/>
<path d="M125.082 33.1831C125.073 33.2529 125.08 33.3238 125.103 33.3904C125.126 33.457 125.163 33.5176 125.213 33.5675C125.262 33.6174 125.323 33.6554 125.389 33.6785C125.455 33.7017 125.526 33.7094 125.596 33.7011C125.748 33.7012 125.9 33.6841 126.049 33.6499V34.5324C125.732 34.5832 125.412 34.6099 125.091 34.6123C124.153 34.6123 123.85 34.1263 123.85 33.2982V30.4525H123.211L123.374 29.5316H123.869V28.2974L125.091 27.9968V29.5316H126.103L125.944 30.4525H125.082V33.1831Z" fill="url(#paint50_linear_417_2396)"/>
<path d="M131.432 30.9577V34.4749H130.209V31.3638C130.209 30.7979 129.947 30.5133 129.462 30.5037C129.021 30.5246 128.598 30.6834 128.252 30.9577V34.4749H127.029V27.5908H128.252V29.829C128.69 29.4796 129.228 29.2781 129.787 29.2535C130.745 29.2503 131.432 29.8258 131.432 30.9577Z" fill="url(#paint51_linear_417_2396)"/>
<path d="M132.603 31.92C132.603 30.4236 133.35 29.2693 134.978 29.2693C136.607 29.2693 137.351 30.4236 137.351 31.92C137.351 33.4164 136.603 34.5706 134.978 34.5706C133.354 34.5706 132.603 33.4164 132.603 31.92ZM133.733 31.92C133.733 32.9112 134.129 33.6882 134.978 33.6882C135.828 33.6882 136.198 32.9112 136.198 31.92C136.198 30.9288 135.824 30.1486 134.978 30.1486C134.132 30.1486 133.733 30.9288 133.733 31.92Z" fill="url(#paint52_linear_417_2396)"/>
<path d="M138.554 34.4876V29.4165H139.774V30.3757C139.947 30.0738 140.2 29.825 140.504 29.656C140.809 29.487 141.153 29.4042 141.501 29.4165V30.3757C140.814 30.2926 139.937 30.8393 139.783 31.3062V34.5036L138.554 34.4876Z" fill="url(#paint53_linear_417_2396)"/>
<path d="M142.35 28.3197C142.35 28.1932 142.387 28.0695 142.458 27.9644C142.528 27.8592 142.627 27.7773 142.744 27.7289C142.861 27.6805 142.989 27.6678 143.113 27.6925C143.237 27.7171 143.351 27.778 143.44 27.8675C143.529 27.9569 143.59 28.0709 143.615 28.1949C143.639 28.319 143.627 28.4475 143.578 28.5644C143.53 28.6812 143.448 28.7811 143.343 28.8514C143.238 28.9216 143.115 28.9592 142.988 28.9592C142.819 28.9592 142.657 28.8918 142.537 28.7719C142.417 28.6519 142.35 28.4893 142.35 28.3197ZM143.611 34.4875H142.385V29.5443H143.608L143.611 34.4875Z" fill="url(#paint54_linear_417_2396)"/>
<path d="M146.701 33.1831C146.693 33.2529 146.7 33.3238 146.723 33.3904C146.745 33.457 146.783 33.5176 146.832 33.5675C146.882 33.6174 146.942 33.6554 147.008 33.6785C147.075 33.7017 147.146 33.7094 147.215 33.7011C147.369 33.701 147.522 33.6839 147.672 33.6499V34.5324C147.355 34.5831 147.035 34.6098 146.714 34.6123C145.776 34.6123 145.472 34.1263 145.472 33.2982V30.4525H144.834L144.993 29.5316H145.479V28.2974L146.701 27.9968V29.5316H147.733L147.57 30.4525H146.701V33.1831Z" fill="url(#paint55_linear_417_2396)"/>
<path d="M153.428 29.4165L150.973 36.3358H149.811L150.328 34.8681L148.307 29.4325H149.68L150.883 33.3781L152.113 29.4165H153.428Z" fill="url(#paint56_linear_417_2396)"/>
<path d="M16.719 34.4845H15.2856L13.6734 32.144V34.4845H12.4539V27.5908H13.6734V31.5173L15.1962 29.2951H16.5658L14.7429 31.7539L16.719 34.4845Z" fill="url(#paint57_linear_417_2396)"/>
<path d="M180.236 2.9473L162.687 14.9319L162.914 15.2647L180.462 3.28015L180.236 2.9473Z" fill="url(#paint58_linear_417_2396)"/>
<path d="M176.772 3.16394L162.709 12.7646L162.936 13.0975L176.999 3.49684L176.772 3.16394Z" fill="url(#paint59_linear_417_2396)"/>
<path d="M172.5 3.87054L162.716 10.5728L162.943 10.9053L172.728 4.20308L172.5 3.87054Z" fill="url(#paint60_linear_417_2396)"/>
<path d="M166.789 5.58677L162.731 8.39478L162.959 8.72624L167.017 5.91823L166.789 5.58677Z" fill="url(#paint61_linear_417_2396)"/>
<path d="M189.267 18.4268L189.264 18.4236L186.419 20.3677L186.422 20.3709L171.788 30.3629L172.091 30.8073L170.102 32.1982L170.259 32.422L166.026 35.3797L166.255 35.7122L170.926 32.4444L172.468 31.3637L187.332 21.2118L187.026 20.7641L189.644 18.9768L189.494 18.7593L199.042 12.2398L198.816 11.9072L189.267 18.4268Z" fill="url(#paint62_linear_417_2396)"/>
<path d="M190.075 20.0416V20.0384L187.029 22.1167L187.032 22.1199L172.87 31.7922L173.17 32.2334L171.041 33.7202L171.191 33.9345L167.041 36.8441L167.274 37.1735L171.421 34.267L171.424 34.2702L173.547 32.7866L173.55 32.7898L187.76 23.0855L187.454 22.6411L190.451 20.5947L190.301 20.3741L199.03 14.4141L198.803 14.0815L190.075 20.0416Z" fill="url(#paint63_linear_417_2396)"/>
<path d="M190.853 21.6787L190.85 21.6755L188.331 23.3957V23.3989L173.876 33.2694L174.176 33.7107L172.225 35.076L172.375 35.2902L168.184 38.2319L168.413 38.5612L172.605 35.6195L172.608 35.6259L174.553 34.267L174.556 34.2702L189.018 24.3933L188.715 23.9489L191.227 22.2319L191.08 22.0112L199.017 16.5916L198.79 16.259L190.853 21.6787Z" fill="url(#paint64_linear_417_2396)"/>
<path d="M192.041 23.0344V23.0312L189.541 24.7355L189.545 24.7419L174.926 34.6795L175.236 35.1336L172.742 36.8762L172.896 37.0968L169.435 39.5205L169.668 39.8498L173.62 37.084V37.0808L176.277 35.2231L190.352 25.6532L190.049 25.2023L192.418 23.5844L192.268 23.367L199.004 18.7691L198.777 18.4365L192.041 23.0344Z" fill="url(#paint65_linear_417_2396)"/>
<path d="M193.51 24.195L193.507 24.1886L190.774 26.0559V26.0591L178.093 34.721L178.393 35.159L175.396 37.2597L175.549 37.4803L170.865 40.7577L171.095 41.0871L176.194 37.5187L178.77 35.7154L178.773 35.7186L191.53 27.0055L191.227 26.5579L193.883 24.7449L193.736 24.5275L198.991 20.9368L198.765 20.6042L193.51 24.195Z" fill="url(#paint66_linear_417_2396)"/>
<path d="M196.76 24.3007L196.686 24.1888L193.478 26.379L181.203 34.7627L181.509 35.2103L178.202 37.5253L178.355 37.7459L172.551 41.8099L172.781 42.1392L178.993 37.7907L182.189 35.5525L194.158 27.3798L193.854 26.9354L197.063 24.7451L196.874 24.4669L196.989 24.6332L198.982 23.2231L198.748 22.8938L196.76 24.3007Z" fill="url(#paint67_linear_417_2396)"/>
<path d="M196.814 26.2735V26.2671L195.007 27.5013H195.004L187.786 32.4317L188.092 32.8794L185.037 35.0185L185.19 35.2391L174.179 42.9481L174.409 43.2775L185.854 35.2647L188.533 33.391L188.529 33.3878L195.684 28.5021L195.384 28.0576L197.191 26.8234L197.041 26.606L198.934 25.3142L198.707 24.9817L196.814 26.2735Z" fill="url(#paint68_linear_417_2396)"/>
<path d="M197.175 28.2717L197.136 28.2173L195.435 29.378H195.432L189.701 33.2885L190.004 33.7361L187.339 35.6034L187.492 35.8272L175.887 43.9487L176.117 44.2781L188.315 35.7409V35.7377L190.659 34.1006L196.112 30.3756L195.811 29.9343L197.513 28.7705L197.325 28.4955L198.624 27.6066L198.474 27.386L197.175 28.2717Z" fill="url(#paint69_linear_417_2396)"/>
<path d="M164.305 17.4772L165.936 16.3357L172.104 12.1247L171.801 11.6802L174.511 9.83211L174.364 9.61469L183.495 3.37648L183.268 3.04395L174.138 9.27896L174.134 9.27576L171.424 11.1271V11.1239L164.892 15.5843L165.199 16.032L163.647 17.1159L163.804 17.3365L162.67 18.1327L162.9 18.462L164.305 17.4772Z" fill="url(#paint70_linear_417_2396)"/>
<path d="M165.33 18.9448V18.9416L166.939 17.8161L174.562 12.6075L174.262 12.1662L176.366 10.7274L176.226 10.5227L186.164 3.67382L185.934 3.34448L175.999 10.1902L175.989 10.1742L173.885 11.6099L165.773 17.1478L166.08 17.5987L164.685 18.5739L164.838 18.7945L162.654 20.3229L162.887 20.6522L165.33 18.9448Z" fill="url(#paint71_linear_417_2396)"/>
<path d="M165.69 20.8697L167.829 19.3733L176.13 13.7043L175.82 13.2502L178.052 11.725L177.911 11.5172L188.628 4.13112L188.398 3.79858L177.684 11.1847L177.675 11.1719L175.348 12.761L175.354 12.7706L166.654 18.7115L166.961 19.1623L165.081 20.4796L165.234 20.7003L162.641 22.5132L162.875 22.8426L165.69 20.8697Z" fill="url(#paint72_linear_417_2396)"/>
<path d="M166.546 22.4556L168.876 20.8249L177.697 14.8009L177.394 14.3533L179.747 12.745L179.59 12.5148L191.067 4.76417L190.844 4.43164L179.211 12.2846L179.217 12.2942L177.008 13.8065L167.532 20.2782L167.842 20.729L165.678 22.2446L165.831 22.4652L162.657 24.6842L162.887 25.0168L166.546 22.4556Z" fill="url(#paint73_linear_417_2396)"/>
<path d="M167.59 23.8913L169.093 22.8393V22.8425L179.262 15.8945L178.958 15.4501L181.589 13.6531L181.442 13.4357L192.983 5.55397L192.756 5.22144L181.215 13.1031L181.212 13.0999L178.566 14.9065V14.9097L168.413 21.8417L168.714 22.2862L166.772 23.6451L166.929 23.8689L162.843 26.721L163.076 27.0504L167.593 23.8945L167.59 23.8913Z" fill="url(#paint74_linear_417_2396)"/>
<path d="M168.602 25.3686L170.316 24.1695L180.829 16.9913L180.526 16.5468L183.437 14.558L183.287 14.3406L195.144 6.24147L194.918 5.90894L183.061 14.0081L183.057 14.0017L179.974 16.1088V16.112L169.291 23.4053L169.598 23.8562L167.765 25.1384L167.919 25.359L163.203 28.6587L163.433 28.9881L168.605 25.3718L168.602 25.3686Z" fill="url(#paint75_linear_417_2396)"/>
<path d="M168.896 27.3509L171.354 25.6307L183.763 17.2055L183.456 16.7546L186.202 14.8809L186.052 14.6635L197.063 7.1431L196.836 6.80737L185.825 14.3278L185.822 14.3246L182.994 16.259L182.997 16.2654L170.109 25.0136L170.415 25.4676L168.117 27.076L168.273 27.2966L163.714 30.4844L163.944 30.817L168.896 27.3541V27.3509Z" fill="url(#paint76_linear_417_2396)"/>
<path d="M169.199 29.3013L171.376 27.7793L184.848 18.5771L184.548 18.1358L187.307 16.2557L187.157 16.0351L198.806 8.07985L198.579 7.74731L186.93 15.7026L186.927 15.6994L184.172 17.5826L184.168 17.5794L170.396 26.9863L170.699 27.434L168.369 29.0647L168.522 29.2853L164.359 32.1982L164.589 32.5307L169.202 29.3013H169.199Z" fill="url(#paint77_linear_417_2396)"/>
<path d="M169.627 31.1656L171.472 29.877H171.475L185.854 20.0576L185.554 19.6132L188.185 17.8162L188.035 17.5988L199.055 10.072L198.828 9.7395L187.808 17.2663L187.805 17.2599L185.174 19.0568L170.792 28.8794L171.095 29.3206L168.921 30.8426L169.084 31.0728L165.122 33.8194L165.352 34.1488L169.636 31.1784L169.627 31.1656Z" fill="url(#paint78_linear_417_2396)"/>
<path d="M197.451 31.0382L177.557 44.9221L177.787 45.2527L197.681 31.3688L197.451 31.0382Z" fill="url(#paint79_linear_417_2396)"/>
<path d="M195.901 34.7726L179.145 46.4387L179.374 46.7691L196.131 35.103L195.901 34.7726Z" fill="url(#paint80_linear_417_2396)"/>
<path d="M192.439 39.3806L185.077 44.5056L185.306 44.836L192.668 39.711L192.439 39.3806Z" fill="url(#paint81_linear_417_2396)"/>
<defs>
<linearGradient id="paint0_linear_417_2396" x1="4.20459" y1="16.5467" x2="7.15859" y2="15.5669" gradientUnits="userSpaceOnUse">
<stop stop-color="#764BA2"/>
<stop offset="1" stop-color="#667EEA"/>
</linearGradient>
<linearGradient id="paint1_linear_417_2396" x1="0.889404" y1="21.0273" x2="11.7734" y2="16.9354" gradientUnits="userSpaceOnUse">
<stop stop-color="#764BA2"/>
<stop offset="1" stop-color="#667EEA"/>
</linearGradient>
<linearGradient id="paint2_linear_417_2396" x1="10.6343" y1="23.8088" x2="14.9129" y2="23.2565" gradientUnits="userSpaceOnUse">
<stop stop-color="#764BA2"/>
<stop offset="1" stop-color="#667EEA"/>
</linearGradient>
<linearGradient id="paint3_linear_417_2396" x1="28.3677" y1="23.6883" x2="30.4906" y2="22.9094" gradientUnits="userSpaceOnUse">
<stop stop-color="#764BA2"/>
<stop offset="1" stop-color="#667EEA"/>
</linearGradient>
<linearGradient id="paint4_linear_417_2396" x1="15.4834" y1="21.0299" x2="31.7972" y2="7.17726" gradientUnits="userSpaceOnUse">
<stop stop-color="#764BA2"/>
<stop offset="1" stop-color="#667EEA"/>
</linearGradient>
<linearGradient id="paint5_linear_417_2396" x1="38.0193" y1="21.0232" x2="39.8998" y2="20.9157" gradientUnits="userSpaceOnUse">
<stop stop-color="#764BA2"/>
<stop offset="1" stop-color="#667EEA"/>
</linearGradient>
<linearGradient id="paint6_linear_417_2396" x1="40.9048" y1="23.8552" x2="47.9498" y2="22.3867" gradientUnits="userSpaceOnUse">
<stop stop-color="#764BA2"/>
<stop offset="1" stop-color="#667EEA"/>
</linearGradient>
<linearGradient id="paint7_linear_417_2396" x1="50.8948" y1="13.8001" x2="52.9294" y2="13.0969" gradientUnits="userSpaceOnUse">
<stop stop-color="#764BA2"/>
<stop offset="1" stop-color="#667EEA"/>
</linearGradient>
<linearGradient id="paint8_linear_417_2396" x1="53.2954" y1="13.8003" x2="55.3147" y2="13.1024" gradientUnits="userSpaceOnUse">
<stop stop-color="#764BA2"/>
<stop offset="1" stop-color="#667EEA"/>
</linearGradient>
<linearGradient id="paint9_linear_417_2396" x1="58.0012" y1="24.1056" x2="60.0436" y2="23.3997" gradientUnits="userSpaceOnUse">
<stop stop-color="#764BA2"/>
<stop offset="1" stop-color="#667EEA"/>
</linearGradient>
<linearGradient id="paint10_linear_417_2396" x1="63.5955" y1="23.8817" x2="65.5366" y2="23.2507" gradientUnits="userSpaceOnUse">
<stop stop-color="#764BA2"/>
<stop offset="1" stop-color="#667EEA"/>
</linearGradient>
<linearGradient id="paint11_linear_417_2396" x1="50.0188" y1="21.029" x2="61.9552" y2="11.1672" gradientUnits="userSpaceOnUse">
<stop stop-color="#764BA2"/>
<stop offset="1" stop-color="#667EEA"/>
</linearGradient>
<linearGradient id="paint12_linear_417_2396" x1="61.1033" y1="23.8834" x2="63.1456" y2="23.1776" gradientUnits="userSpaceOnUse">
<stop stop-color="#764BA2"/>
<stop offset="1" stop-color="#667EEA"/>
</linearGradient>
<linearGradient id="paint13_linear_417_2396" x1="75.6973" y1="14.0686" x2="77.7319" y2="13.3654" gradientUnits="userSpaceOnUse">
<stop stop-color="#764BA2"/>
<stop offset="1" stop-color="#667EEA"/>
</linearGradient>
<linearGradient id="paint14_linear_417_2396" x1="66.5571" y1="23.8088" x2="84.2038" y2="14.9029" gradientUnits="userSpaceOnUse">
<stop stop-color="#764BA2"/>
<stop offset="1" stop-color="#667EEA"/>
</linearGradient>
<linearGradient id="paint15_linear_417_2396" x1="84.6841" y1="21.0232" x2="86.5646" y2="20.9157" gradientUnits="userSpaceOnUse">
<stop stop-color="#764BA2"/>
<stop offset="1" stop-color="#667EEA"/>
</linearGradient>
<linearGradient id="paint16_linear_417_2396" x1="87.5693" y1="23.8552" x2="94.6105" y2="22.3883" gradientUnits="userSpaceOnUse">
<stop stop-color="#764BA2"/>
<stop offset="1" stop-color="#667EEA"/>
</linearGradient>
<linearGradient id="paint17_linear_417_2396" x1="99.9802" y1="13.9727" x2="101.921" y2="13.3418" gradientUnits="userSpaceOnUse">
<stop stop-color="#764BA2"/>
<stop offset="1" stop-color="#667EEA"/>
</linearGradient>
<linearGradient id="paint18_linear_417_2396" x1="97.5369" y1="13.9728" x2="99.5792" y2="13.2669" gradientUnits="userSpaceOnUse">
<stop stop-color="#764BA2"/>
<stop offset="1" stop-color="#667EEA"/>
</linearGradient>
<linearGradient id="paint19_linear_417_2396" x1="96.6335" y1="21.0137" x2="103.302" y2="19.0152" gradientUnits="userSpaceOnUse">
<stop stop-color="#764BA2"/>
<stop offset="1" stop-color="#667EEA"/>
</linearGradient>
<linearGradient id="paint20_linear_417_2396" x1="116.063" y1="14.0336" x2="118.105" y2="13.3277" gradientUnits="userSpaceOnUse">
<stop stop-color="#764BA2"/>
<stop offset="1" stop-color="#667EEA"/>
</linearGradient>
<linearGradient id="paint21_linear_417_2396" x1="114.393" y1="23.8087" x2="123.166" y2="21.9784" gradientUnits="userSpaceOnUse">
<stop stop-color="#764BA2"/>
<stop offset="1" stop-color="#667EEA"/>
</linearGradient>
<linearGradient id="paint22_linear_417_2396" x1="122.86" y1="21.0232" x2="124.74" y2="20.9157" gradientUnits="userSpaceOnUse">
<stop stop-color="#764BA2"/>
<stop offset="1" stop-color="#667EEA"/>
</linearGradient>
<linearGradient id="paint23_linear_417_2396" x1="129.025" y1="13.8001" x2="131.059" y2="13.0969" gradientUnits="userSpaceOnUse">
<stop stop-color="#764BA2"/>
<stop offset="1" stop-color="#667EEA"/>
</linearGradient>
<linearGradient id="paint24_linear_417_2396" x1="131.425" y1="13.8003" x2="133.445" y2="13.1024" gradientUnits="userSpaceOnUse">
<stop stop-color="#764BA2"/>
<stop offset="1" stop-color="#667EEA"/>
</linearGradient>
<linearGradient id="paint25_linear_417_2396" x1="135.323" y1="14.1807" x2="138.497" y2="13.1256" gradientUnits="userSpaceOnUse">
<stop stop-color="#764BA2"/>
<stop offset="1" stop-color="#667EEA"/>
</linearGradient>
<linearGradient id="paint26_linear_417_2396" x1="139.234" y1="23.856" x2="141.269" y2="23.1528" gradientUnits="userSpaceOnUse">
<stop stop-color="#764BA2"/>
<stop offset="1" stop-color="#667EEA"/>
</linearGradient>
<linearGradient id="paint27_linear_417_2396" x1="141.622" y1="23.856" x2="143.657" y2="23.1528" gradientUnits="userSpaceOnUse">
<stop stop-color="#764BA2"/>
<stop offset="1" stop-color="#667EEA"/>
</linearGradient>
<linearGradient id="paint28_linear_417_2396" x1="128.165" y1="21.0287" x2="139.825" y2="4.90165" gradientUnits="userSpaceOnUse">
<stop stop-color="#764BA2"/>
<stop offset="1" stop-color="#667EEA"/>
</linearGradient>
<linearGradient id="paint29_linear_417_2396" x1="103.552" y1="21.0234" x2="115.184" y2="16.2414" gradientUnits="userSpaceOnUse">
<stop stop-color="#764BA2"/>
<stop offset="1" stop-color="#667EEA"/>
</linearGradient>
<linearGradient id="paint30_linear_417_2396" x1="0.890625" y1="34.5101" x2="7.37001" y2="32.8471" gradientUnits="userSpaceOnUse">
<stop stop-color="#764BA2"/>
<stop offset="1" stop-color="#667EEA"/>
</linearGradient>
<linearGradient id="paint31_linear_417_2396" x1="6.97559" y1="34.5658" x2="12.2458" y2="33.1487" gradientUnits="userSpaceOnUse">
<stop stop-color="#764BA2"/>
<stop offset="1" stop-color="#667EEA"/>
</linearGradient>
<linearGradient id="paint32_linear_417_2396" x1="17.5237" y1="34.5658" x2="22.78" y2="33.1568" gradientUnits="userSpaceOnUse">
<stop stop-color="#764BA2"/>
<stop offset="1" stop-color="#667EEA"/>
</linearGradient>
<linearGradient id="paint33_linear_417_2396" x1="22.5869" y1="34.6123" x2="26.4014" y2="34.0338" gradientUnits="userSpaceOnUse">
<stop stop-color="#764BA2"/>
<stop offset="1" stop-color="#667EEA"/>
</linearGradient>
<linearGradient id="paint34_linear_417_2396" x1="26.5457" y1="36.179" x2="28.2811" y2="35.8656" gradientUnits="userSpaceOnUse">
<stop stop-color="#764BA2"/>
<stop offset="1" stop-color="#667EEA"/>
</linearGradient>
<linearGradient id="paint35_linear_417_2396" x1="29.5273" y1="34.5101" x2="35.982" y2="32.8607" gradientUnits="userSpaceOnUse">
<stop stop-color="#764BA2"/>
<stop offset="1" stop-color="#667EEA"/>
</linearGradient>
<linearGradient id="paint36_linear_417_2396" x1="35.6443" y1="34.5593" x2="40.8998" y2="33.1488" gradientUnits="userSpaceOnUse">
<stop stop-color="#764BA2"/>
<stop offset="1" stop-color="#667EEA"/>
</linearGradient>
<linearGradient id="paint37_linear_417_2396" x1="40.8479" y1="34.5164" x2="46.9469" y2="32.4191" gradientUnits="userSpaceOnUse">
<stop stop-color="#764BA2"/>
<stop offset="1" stop-color="#667EEA"/>
</linearGradient>
<linearGradient id="paint38_linear_417_2396" x1="49.0334" y1="34.5593" x2="54.289" y2="33.1488" gradientUnits="userSpaceOnUse">
<stop stop-color="#764BA2"/>
<stop offset="1" stop-color="#667EEA"/>
</linearGradient>
<linearGradient id="paint39_linear_417_2396" x1="54.5342" y1="34.4877" x2="59.9868" y2="32.8806" gradientUnits="userSpaceOnUse">
<stop stop-color="#764BA2"/>
<stop offset="1" stop-color="#667EEA"/>
</linearGradient>
<linearGradient id="paint40_linear_417_2396" x1="60.1082" y1="34.5707" x2="65.9426" y2="33.2612" gradientUnits="userSpaceOnUse">
<stop stop-color="#764BA2"/>
<stop offset="1" stop-color="#667EEA"/>
</linearGradient>
<linearGradient id="paint41_linear_417_2396" x1="68.166" y1="34.6092" x2="75.0232" y2="32.7891" gradientUnits="userSpaceOnUse">
<stop stop-color="#764BA2"/>
<stop offset="1" stop-color="#667EEA"/>
</linearGradient>
<linearGradient id="paint42_linear_417_2396" x1="74.9119" y1="34.6316" x2="80.372" y2="33.036" gradientUnits="userSpaceOnUse">
<stop stop-color="#764BA2"/>
<stop offset="1" stop-color="#667EEA"/>
</linearGradient>
<linearGradient id="paint43_linear_417_2396" x1="80.4763" y1="34.6474" x2="85.7018" y2="33.2981" gradientUnits="userSpaceOnUse">
<stop stop-color="#764BA2"/>
<stop offset="1" stop-color="#667EEA"/>
</linearGradient>
<linearGradient id="paint44_linear_417_2396" x1="85.262" y1="34.6123" x2="89.0764" y2="34.0338" gradientUnits="userSpaceOnUse">
<stop stop-color="#764BA2"/>
<stop offset="1" stop-color="#667EEA"/>
</linearGradient>
<linearGradient id="paint45_linear_417_2396" x1="88.978" y1="34.5706" x2="94.8083" y2="32.7634" gradientUnits="userSpaceOnUse">
<stop stop-color="#764BA2"/>
<stop offset="1" stop-color="#667EEA"/>
</linearGradient>
<linearGradient id="paint46_linear_417_2396" x1="94.9319" y1="34.4877" x2="102.996" y2="30.4455" gradientUnits="userSpaceOnUse">
<stop stop-color="#764BA2"/>
<stop offset="1" stop-color="#667EEA"/>
</linearGradient>
<linearGradient id="paint47_linear_417_2396" x1="103.59" y1="34.6474" x2="108.816" y2="33.2981" gradientUnits="userSpaceOnUse">
<stop stop-color="#764BA2"/>
<stop offset="1" stop-color="#667EEA"/>
</linearGradient>
<linearGradient id="paint48_linear_417_2396" x1="110.779" y1="34.51" x2="118.36" y2="32.1916" gradientUnits="userSpaceOnUse">
<stop stop-color="#764BA2"/>
<stop offset="1" stop-color="#667EEA"/>
</linearGradient>
<linearGradient id="paint49_linear_417_2396" x1="117.931" y1="34.6315" x2="123.391" y2="33.036" gradientUnits="userSpaceOnUse">
<stop stop-color="#764BA2"/>
<stop offset="1" stop-color="#667EEA"/>
</linearGradient>
<linearGradient id="paint50_linear_417_2396" x1="123.211" y1="34.6123" x2="127.017" y2="34.0363" gradientUnits="userSpaceOnUse">
<stop stop-color="#764BA2"/>
<stop offset="1" stop-color="#667EEA"/>
</linearGradient>
<linearGradient id="paint51_linear_417_2396" x1="127.029" y1="34.4749" x2="132.679" y2="33.2243" gradientUnits="userSpaceOnUse">
<stop stop-color="#764BA2"/>
<stop offset="1" stop-color="#667EEA"/>
</linearGradient>
<linearGradient id="paint52_linear_417_2396" x1="132.603" y1="34.5706" x2="138.434" y2="32.7634" gradientUnits="userSpaceOnUse">
<stop stop-color="#764BA2"/>
<stop offset="1" stop-color="#667EEA"/>
</linearGradient>
<linearGradient id="paint53_linear_417_2396" x1="138.554" y1="34.5036" x2="142.368" y2="33.7392" gradientUnits="userSpaceOnUse">
<stop stop-color="#764BA2"/>
<stop offset="1" stop-color="#667EEA"/>
</linearGradient>
<linearGradient id="paint54_linear_417_2396" x1="142.35" y1="34.4875" x2="144.062" y2="34.3764" gradientUnits="userSpaceOnUse">
<stop stop-color="#764BA2"/>
<stop offset="1" stop-color="#667EEA"/>
</linearGradient>
<linearGradient id="paint55_linear_417_2396" x1="144.834" y1="34.6123" x2="148.648" y2="34.0338" gradientUnits="userSpaceOnUse">
<stop stop-color="#764BA2"/>
<stop offset="1" stop-color="#667EEA"/>
</linearGradient>
<linearGradient id="paint56_linear_417_2396" x1="148.307" y1="36.3358" x2="154.776" y2="34.6786" gradientUnits="userSpaceOnUse">
<stop stop-color="#764BA2"/>
<stop offset="1" stop-color="#667EEA"/>
</linearGradient>
<linearGradient id="paint57_linear_417_2396" x1="12.4539" y1="34.4845" x2="17.9436" y2="33.3088" gradientUnits="userSpaceOnUse">
<stop stop-color="#764BA2"/>
<stop offset="1" stop-color="#667EEA"/>
</linearGradient>
<linearGradient id="paint58_linear_417_2396" x1="187.704" y1="-5.16508" x2="152.312" y2="26.0547" gradientUnits="userSpaceOnUse">
<stop stop-color="#62B34F"/>
<stop offset="0.46" stop-color="#51BAB4"/>
<stop offset="1" stop-color="#0094D3"/>
</linearGradient>
<linearGradient id="paint59_linear_417_2396" x1="186.463" y1="-6.57977" x2="151.07" y2="24.64" gradientUnits="userSpaceOnUse">
<stop stop-color="#62B34F"/>
<stop offset="0.46" stop-color="#51BAB4"/>
<stop offset="1" stop-color="#0094D3"/>
</linearGradient>
<linearGradient id="paint60_linear_417_2396" x1="185.161" y1="-8.04733" x2="149.772" y2="23.1724" gradientUnits="userSpaceOnUse">
<stop stop-color="#62B34F"/>
<stop offset="0.46" stop-color="#51BAB4"/>
<stop offset="1" stop-color="#0094D3"/>
</linearGradient>
<linearGradient id="paint61_linear_417_2396" x1="183.798" y1="-9.59424" x2="148.409" y2="21.6255" gradientUnits="userSpaceOnUse">
<stop stop-color="#62B34F"/>
<stop offset="0.46" stop-color="#51BAB4"/>
<stop offset="1" stop-color="#0094D3"/>
</linearGradient>
<linearGradient id="paint62_linear_417_2396" x1="199.789" y1="8.54032" x2="164.4" y2="39.7601" gradientUnits="userSpaceOnUse">
<stop stop-color="#62B34F"/>
<stop offset="0.46" stop-color="#51BAB4"/>
<stop offset="1" stop-color="#0094D3"/>
</linearGradient>
<linearGradient id="paint63_linear_417_2396" x1="200.913" y1="9.80976" x2="165.521" y2="41.0327" gradientUnits="userSpaceOnUse">
<stop stop-color="#62B34F"/>
<stop offset="0.46" stop-color="#51BAB4"/>
<stop offset="1" stop-color="#0094D3"/>
</linearGradient>
<linearGradient id="paint64_linear_417_2396" x1="202.043" y1="11.092" x2="166.651" y2="42.3117" gradientUnits="userSpaceOnUse">
<stop stop-color="#62B34F"/>
<stop offset="0.46" stop-color="#51BAB4"/>
<stop offset="1" stop-color="#0094D3"/>
</linearGradient>
<linearGradient id="paint65_linear_417_2396" x1="203.17" y1="12.3742" x2="167.781" y2="43.5939" gradientUnits="userSpaceOnUse">
<stop stop-color="#62B34F"/>
<stop offset="0.46" stop-color="#51BAB4"/>
<stop offset="1" stop-color="#0094D3"/>
</linearGradient>
<linearGradient id="paint66_linear_417_2396" x1="204.326" y1="13.6818" x2="168.937" y2="44.9015" gradientUnits="userSpaceOnUse">
<stop stop-color="#62B34F"/>
<stop offset="0.46" stop-color="#51BAB4"/>
<stop offset="1" stop-color="#0094D3"/>
</linearGradient>
<linearGradient id="paint67_linear_417_2396" x1="205.52" y1="15.0345" x2="170.131" y2="46.2543" gradientUnits="userSpaceOnUse">
<stop stop-color="#62B34F"/>
<stop offset="0.46" stop-color="#51BAB4"/>
<stop offset="1" stop-color="#0094D3"/>
</linearGradient>
<linearGradient id="paint68_linear_417_2396" x1="206.743" y1="16.4221" x2="171.354" y2="47.6419" gradientUnits="userSpaceOnUse">
<stop stop-color="#62B34F"/>
<stop offset="0.46" stop-color="#51BAB4"/>
<stop offset="1" stop-color="#0094D3"/>
</linearGradient>
<linearGradient id="paint69_linear_417_2396" x1="207.924" y1="17.7585" x2="172.535" y2="48.9814" gradientUnits="userSpaceOnUse">
<stop stop-color="#62B34F"/>
<stop offset="0.46" stop-color="#51BAB4"/>
<stop offset="1" stop-color="#0094D3"/>
</linearGradient>
<linearGradient id="paint70_linear_417_2396" x1="189.034" y1="-3.6515" x2="153.645" y2="27.5683" gradientUnits="userSpaceOnUse">
<stop stop-color="#62B34F"/>
<stop offset="0.46" stop-color="#51BAB4"/>
<stop offset="1" stop-color="#0094D3"/>
</linearGradient>
<linearGradient id="paint71_linear_417_2396" x1="190.273" y1="-2.24784" x2="154.884" y2="28.9719" gradientUnits="userSpaceOnUse">
<stop stop-color="#62B34F"/>
<stop offset="0.46" stop-color="#51BAB4"/>
<stop offset="1" stop-color="#0094D3"/>
</linearGradient>
<linearGradient id="paint72_linear_417_2396" x1="191.508" y1="-0.847298" x2="156.119" y2="30.3724" gradientUnits="userSpaceOnUse">
<stop stop-color="#62B34F"/>
<stop offset="0.46" stop-color="#51BAB4"/>
<stop offset="1" stop-color="#0094D3"/>
</linearGradient>
<linearGradient id="paint73_linear_417_2396" x1="192.779" y1="0.59471" x2="157.39" y2="31.8145" gradientUnits="userSpaceOnUse">
<stop stop-color="#62B34F"/>
<stop offset="0.46" stop-color="#51BAB4"/>
<stop offset="1" stop-color="#0094D3"/>
</linearGradient>
<linearGradient id="paint74_linear_417_2396" x1="193.963" y1="1.93447" x2="158.574" y2="33.1542" gradientUnits="userSpaceOnUse">
<stop stop-color="#62B34F"/>
<stop offset="0.46" stop-color="#51BAB4"/>
<stop offset="1" stop-color="#0094D3"/>
</linearGradient>
<linearGradient id="paint75_linear_417_2396" x1="195.167" y1="3.29982" x2="159.778" y2="34.5196" gradientUnits="userSpaceOnUse">
<stop stop-color="#62B34F"/>
<stop offset="0.46" stop-color="#51BAB4"/>
<stop offset="1" stop-color="#0094D3"/>
</linearGradient>
<linearGradient id="paint76_linear_417_2396" x1="196.373" y1="4.66828" x2="160.984" y2="35.8881" gradientUnits="userSpaceOnUse">
<stop stop-color="#62B34F"/>
<stop offset="0.46" stop-color="#51BAB4"/>
<stop offset="1" stop-color="#0094D3"/>
</linearGradient>
<linearGradient id="paint77_linear_417_2396" x1="197.555" y1="6.00471" x2="162.166" y2="37.2245" gradientUnits="userSpaceOnUse">
<stop stop-color="#62B34F"/>
<stop offset="0.46" stop-color="#51BAB4"/>
<stop offset="1" stop-color="#0094D3"/>
</linearGradient>
<linearGradient id="paint78_linear_417_2396" x1="198.672" y1="7.27108" x2="163.28" y2="38.4909" gradientUnits="userSpaceOnUse">
<stop stop-color="#62B34F"/>
<stop offset="0.46" stop-color="#51BAB4"/>
<stop offset="1" stop-color="#0094D3"/>
</linearGradient>
<linearGradient id="paint79_linear_417_2396" x1="208.862" y1="18.8567" x2="173.557" y2="50.0751" gradientUnits="userSpaceOnUse">
<stop stop-color="#62B34F"/>
<stop offset="0.46" stop-color="#51BAB4"/>
<stop offset="1" stop-color="#0094D3"/>
</linearGradient>
<linearGradient id="paint80_linear_417_2396" x1="210.163" y1="20.9165" x2="174.759" y2="52.0224" gradientUnits="userSpaceOnUse">
<stop stop-color="#62B34F"/>
<stop offset="0.46" stop-color="#51BAB4"/>
<stop offset="1" stop-color="#0094D3"/>
</linearGradient>
<linearGradient id="paint81_linear_417_2396" x1="211.361" y1="22.2833" x2="175.957" y2="53.3893" gradientUnits="userSpaceOnUse">
<stop stop-color="#62B34F"/>
<stop offset="0.46" stop-color="#51BAB4"/>
<stop offset="1" stop-color="#0094D3"/>
</linearGradient>
</defs>
</svg>
