<svg width="28" height="18" viewBox="0 0 28 18" fill="none" xmlns="http://www.w3.org/2000/svg">
<path fill-rule="evenodd" clip-rule="evenodd" d="M13.9737 15.0369C12.4937 16.2845 10.5738 17.0376 8.47586 17.0376C3.79477 17.0376 0 13.288 0 8.6626C0 4.03721 3.79477 0.287598 8.47586 0.287598C10.5738 0.287598 12.4937 1.04072 13.9737 2.28827C15.4538 1.04072 17.3737 0.287598 19.4716 0.287598C24.1527 0.287598 27.9474 4.03721 27.9474 8.6626C27.9474 13.288 24.1527 17.0376 19.4716 17.0376C17.3737 17.0376 15.4538 16.2845 13.9737 15.0369Z" fill="#ED0006"/>
<path fill-rule="evenodd" clip-rule="evenodd" d="M13.9736 15.037C15.7961 13.5008 16.9517 11.2151 16.9517 8.6626C16.9517 6.11012 15.7961 3.82435 13.9736 2.28822C15.4537 1.0407 17.3735 0.287598 19.4714 0.287598C24.1525 0.287598 27.9473 4.03721 27.9473 8.6626C27.9473 13.288 24.1525 17.0376 19.4714 17.0376C17.3735 17.0376 15.4537 16.2845 13.9736 15.037Z" fill="#F9A000"/>
<path fill-rule="evenodd" clip-rule="evenodd" d="M13.9736 15.0369C15.796 13.5008 16.9516 11.2151 16.9516 8.66264C16.9516 6.1102 15.796 3.82446 13.9736 2.28833C12.1512 3.82446 10.9956 6.1102 10.9956 8.66264C10.9956 11.2151 12.1512 13.5008 13.9736 15.0369Z" fill="#FD6020"/>
</svg>
