<svg width="74" height="108" viewBox="0 0 74 108" fill="none" xmlns="http://www.w3.org/2000/svg">
<path d="M33.4645 40.5355C35.4171 42.4882 38.5829 42.4882 40.5355 40.5355L72.3553 8.71573C74.308 6.76311 74.308 3.59728 72.3553 1.64466C70.4027 -0.307962 67.2369 -0.307962 65.2843 1.64466L37 29.9289L8.71573 1.64466C6.76311 -0.307959 3.59728 -0.307959 1.64466 1.64466C-0.307962 3.59728 -0.307962 6.76311 1.64466 8.71573L33.4645 40.5355ZM32 35L32 37L42 37L42 35L32 35Z" fill="#5B3795"/>
<path opacity="0.8" d="M33.4645 62.5355C35.4171 64.4882 38.5829 64.4882 40.5355 62.5355L72.3553 30.7157C74.308 28.7631 74.308 25.5973 72.3553 23.6447C70.4027 21.692 67.2369 21.692 65.2843 23.6447L37 51.9289L8.71573 23.6447C6.76311 21.692 3.59728 21.692 1.64466 23.6447C-0.307962 25.5973 -0.307962 28.7631 1.64466 30.7157L33.4645 62.5355ZM32 57L32 59L42 59L42 57L32 57Z" fill="#5B3795"/>
<path opacity="0.5" d="M33.4645 84.5355C35.4171 86.4882 38.5829 86.4882 40.5355 84.5355L72.3553 52.7157C74.308 50.7631 74.308 47.5973 72.3553 45.6447C70.4027 43.692 67.2369 43.692 65.2843 45.6447L37 73.9289L8.71573 45.6447C6.76311 43.692 3.59728 43.692 1.64466 45.6447C-0.307962 47.5973 -0.307962 50.7631 1.64466 52.7157L33.4645 84.5355ZM32 79L32 81L42 81L42 79L32 79Z" fill="#5B3795"/>
<path opacity="0.2" d="M33.4645 106.536C35.4171 108.488 38.5829 108.488 40.5355 106.536L72.3553 74.7157C74.308 72.7631 74.308 69.5973 72.3553 67.6447C70.4027 65.692 67.2369 65.692 65.2843 67.6447L37 95.9289L8.71573 67.6447C6.76311 65.692 3.59728 65.692 1.64466 67.6447C-0.307962 69.5973 -0.307962 72.7631 1.64466 74.7157L33.4645 106.536ZM32 101L32 103L42 103L42 101L32 101Z" fill="#5B3795"/>
</svg>
