<svg width="156" height="243" viewBox="0 0 156 243" fill="none" xmlns="http://www.w3.org/2000/svg">
<g style="mix-blend-mode:multiply" opacity="0.29">
<path d="M77.5 243C120.302 243 155 234.941 155 225C155 215.059 120.302 207 77.5 207C34.6979 207 0 215.059 0 225C0 234.941 34.6979 243 77.5 243Z" fill="#B2B2B2"/>
</g>
<path d="M30.916 207.099C30.916 207.099 29.2346 216.171 30.4278 217.209C31.621 218.247 51.9593 219.958 51.9954 218.324C52.122 213.154 49.6272 214.48 44.0229 212.269C42.432 211.635 40.8411 209.636 39.0694 209.367C37.9666 209.175 38.4004 207.195 37.388 207.099C35.2324 206.967 33.0716 206.967 30.916 207.099Z" fill="#262335"/>
<path d="M18 30H20L19.6545 32L18 30Z" fill="#D2D2D2"/>
<path d="M19.1209 207.122C19.1209 207.122 17.0683 218.468 18.5183 219.753C19.9683 221.039 44.8817 223.202 44.9947 221.161C45.1453 214.693 42.0947 216.427 35.2214 213.591C33.3383 212.795 31.3046 210.306 29.1202 209.938C27.7643 209.734 28.3104 207.224 27.0487 207.122C24.4082 206.959 21.7614 206.959 19.1209 207.122Z" fill="#2E2C3E"/>
<path d="M18 103L25.8516 158.673L20.8131 210H40.9496L42 158.233V107.988L18 103Z" fill="#423A3E"/>
<path d="M13 104L21.236 160.184L15.9627 212H34.205L40 159.74L39.6087 104H13Z" fill="#554B50"/>
<g style="mix-blend-mode:multiply" opacity="0.12">
<path d="M25 159.129L16.9168 104H13L21.4864 160.184L16.0528 212H19.5472L25 159.129Z" fill="#7A665A"/>
</g>
<path d="M18 33.0096L20.724 25L32 29.5425V35L18 33.0096Z" fill="#E6B59E"/>
<path d="M17.1683 35C12.6442 44.7547 13.0069 112.387 13.0069 112.387L45 116L40.2087 59.6215L33.1457 41.0335C33.1457 41.0335 21.5015 36.8606 17.1683 35Z" fill="#35405E"/>
<path d="M30.5176 37L30 41.3249L33.5675 43.8857V51.7388L39.0573 76L40 58.928L33.1608 39.428L30.5176 37Z" fill="#28314C"/>
<path d="M19.1635 30L33 35.6042V40L18 34.2207L19.1635 30Z" fill="#E4E4E4"/>
<g style="mix-blend-mode:multiply" opacity="0.12">
<path d="M18 49C18 49 25.7321 64.0802 29.0954 67.9207C32.4587 71.7612 39.4973 82.5429 39.4973 82.5429L40 87L31.5571 81.0102C27.6147 78.196 24.6477 74.1884 23.0796 69.5591L18 49Z" fill="#7A665A"/>
</g>
<g style="mix-blend-mode:multiply" opacity="0.12">
<path d="M21.0232 25C21.0232 25 19.9728 32.1053 32 34V31.6316L21.0232 25Z" fill="#7A665A"/>
</g>
<path d="M36.7731 17.6224C36.7731 17.6224 39.3085 21.8033 39.929 22.6125C40.5496 23.4217 36.8972 24.8668 36.8972 24.8668C36.096 26.8575 35.6105 28.9811 35.4611 31.1478C35.2838 33.3057 25.9577 30.9359 24.2734 28.7972C21.4011 25.1558 22.1635 22.9208 20.7273 21.9189C19.2912 20.917 10.8694 15.503 17.5359 8.16227C24.2025 0.821546 31.2058 2.38217 34.0958 6.23557C36.3298 9.26049 37.3759 10.8404 37.1809 13.1139C36.9858 15.3874 36.7731 17.6224 36.7731 17.6224Z" fill="#EFC7B1"/>
<path d="M21.0088 25C21.9606 22.1489 24.6695 17.6855 23.791 15.1908C22.9124 12.696 21.503 8.24963 30.0873 12.136C33.8578 13.8331 38.1774 12.136 37.9944 10.2692C37.1158 1.78369 20.35 -2.45905 14.5478 8.91151C11.4545 14.9701 12.6991 22.7259 21.0088 25Z" fill="#554B50"/>
<path d="M23 19.4027C23 19.4027 20.3094 17.5798 19.0906 18.0902C18.4568 18.7419 18.0814 19.5281 18.0118 20.3491C17.9422 21.1701 18.1816 21.989 18.6997 22.7021C20.0105 24.2516 21.2062 25.1448 22.0801 24.9807C22.954 24.8167 23 19.4027 23 19.4027Z" fill="#EFC7B1"/>
<path d="M34.9252 28.2532C34.9252 28.2532 35.3544 33.1437 34.1564 33.9179C32.9583 34.6921 20.5309 29.8204 21.0137 26.516C21.4158 23.6358 22.0134 20.7898 22.8018 18C22.8018 18 21.7647 24.7221 22.8018 26.516C24.3575 28.763 31.5099 31.3499 33.0477 30.4058C33.8906 29.9392 34.5541 29.1785 34.9252 28.2532Z" fill="#554B50"/>
<path d="M81.7835 96.215C83.0938 94.9934 68.9842 99.0587 72.5923 106.328C74.0528 108.296 75.9159 109.891 78.0425 110.994C79.2959 111.235 92 103.745 92 103.745L84.7269 96.215H81.7835Z" fill="#E6B59E"/>
<path d="M69 103.354C71.1041 106.132 73.594 108.487 76.368 110.325C78.5863 111.712 81.787 111.074 84.9243 107.351C85.875 106.219 77.5564 100.234 77.5564 100.234L74.5299 96L69 103.354Z" fill="#EFC7B1"/>
<path d="M19.8108 40.9522C19.8108 40.9522 9.90036 48.5271 36.4492 77.8591C43.0137 85.1363 63.2164 106 63.2164 106L77 92.1715C77 92.1715 52.0149 70.6378 49.1419 66.2827C41.4681 54.4642 32.3215 43.9486 28.7574 41.6222C27.4642 40.6941 25.9496 40.1418 24.3744 40.0239C22.7992 39.9059 21.2222 40.2267 19.8108 40.9522Z" fill="#28314C"/>
<g style="mix-blend-mode:multiply" opacity="0.12">
<path d="M37.8194 75.8045C18.4245 53.1065 20.1861 43.0289 21.2914 40C20.7445 40.1467 20.2166 40.3665 19.7198 40.6544C19.7198 40.6544 10.3073 48.264 35.5224 77.7303C41.7571 85.0408 60.9448 106 60.9448 106L63 103.812C60.8066 101.438 43.6569 82.6289 37.8194 75.8045Z" fill="#7A665A"/>
</g>
<path d="M82.2094 94C81.85 94 75.8654 98.7387 74.5997 98.8639C73.3341 98.989 74.0997 102.154 76.631 100.545C79.1624 98.9354 85.5688 101.028 84.9594 98.1307C84.7732 97.2631 84.433 96.4486 83.9599 95.7379C83.4868 95.0272 82.8909 94.4357 82.2094 94Z" fill="#E6B59E"/>
<path d="M69.0729 106C69.0729 106 68.4311 106.677 70.9556 108.273C73.4802 109.87 74.9778 110.837 76.561 110.95C77.3754 111.044 78.207 111.005 79 110.837L69.0729 106Z" fill="#E6B59E"/>
<path d="M134.844 48.9885C134.844 48.9885 145.508 58.8469 119.405 83.8942C112.94 90.1159 93.395 106 93.395 106L80 92.2374C80 92.2374 103.372 73.1979 106.196 69.3472C113.776 59.0252 121.263 44.2464 124.774 42.4459C129.623 39.9144 134.844 48.9885 134.844 48.9885Z" fill="#F1F2F2"/>
<path d="M130.087 207.094C130.087 207.094 131.759 216.174 130.578 217.217C129.396 218.26 109.041 219.941 109.005 218.338C108.877 213.16 111.367 214.474 116.965 212.272C118.583 211.634 120.146 209.644 121.927 209.355C123.035 209.181 122.599 207.191 123.617 207.114C125.771 206.969 127.932 206.962 130.087 207.094Z" fill="#423A3E"/>
<path d="M141.901 207.118C141.901 207.118 143.904 218.459 142.502 219.751C141.1 221.043 117.006 223.196 117.006 221.166C116.843 214.706 119.793 216.429 126.403 213.599C128.224 212.778 130.173 210.297 132.267 209.948C133.578 209.723 133.068 207.241 134.252 207.139C136.799 206.961 139.353 206.954 141.901 207.118Z" fill="#554B50"/>
<path d="M144.297 98.1599C144.297 98.1599 150.13 39.3037 136.314 32C132.089 33.8537 120.741 38.0803 120.741 38.0803L115.73 57.044L112.477 114.603L109 213.258L154 214L144.297 98.1599Z" fill="#FCFCFC"/>
<g style="mix-blend-mode:multiply" opacity="0.36">
<path d="M144.297 98.1599C144.297 98.1599 150.13 39.3037 136.314 32C135.361 32.4264 134.033 32.9825 132.575 33.5571C137.174 53.0029 133.772 87.5009 133.772 87.5009C133.772 87.5009 153.907 190.754 142.222 203.248C136.875 208.976 109.374 202.785 109.374 202.785L109 213.258L154 214L144.297 98.1599Z" fill="#D8D8D8"/>
</g>
<path d="M117.467 15.6351C117.467 15.6351 114.725 19.5247 114.073 20.281C113.421 21.0373 117.333 22.3698 117.333 22.3698C118.188 24.2266 118.706 26.2047 118.867 28.2222C119.077 30.203 129.105 28.0061 130.907 26.0253C133.994 22.6399 134.224 21.5955 135.681 20.6231C137.139 19.6507 145.268 13.6363 138.059 6.8115C130.85 -0.0132797 123.353 1.4093 120.247 5.01077C117.85 7.81991 116.719 9.29651 116.93 11.4034C117.141 13.5102 117.467 15.6351 117.467 15.6351Z" fill="#EFC7B1"/>
<path d="M135.78 27L121.114 32.3716L121 37L137 31.0372L135.78 27Z" fill="#E5E5E5"/>
<path d="M101.107 161.653L152.759 162.992C153.294 163.039 153.826 162.877 154.245 162.54C154.664 162.203 154.938 161.717 155.01 161.182L156 131.337C155.991 131.067 155.928 130.801 155.816 130.555C155.704 130.309 155.545 130.088 155.347 129.905C155.149 129.721 154.918 129.579 154.665 129.486C154.412 129.393 154.144 129.352 153.875 129.364L102.223 128.007C101.689 127.964 101.159 128.128 100.741 128.464C100.323 128.8 100.048 129.284 99.9723 129.816L99 159.644C99.0046 159.915 99.063 160.184 99.1719 160.432C99.2807 160.681 99.4377 160.906 99.6338 161.093C99.8299 161.28 100.061 161.426 100.314 161.522C100.567 161.618 100.836 161.662 101.107 161.653Z" fill="#423A3E"/>
<path d="M103.633 126L101.363 128.363C101.363 128.363 99.8111 144.699 100.019 147.8C100.171 149.691 155.781 150.768 155.876 149.35C156.254 144.359 155.649 129.649 155.649 129.649L152.905 127.04L103.633 126Z" fill="#2D282B"/>
<path d="M122.231 145.738L122.129 150.622L131.287 150.814L131.389 145.93L122.231 145.738Z" fill="#5F5459"/>
<g style="mix-blend-mode:multiply" opacity="0.12">
<path d="M147.358 156.703C151.733 151.053 152.075 128.001 152.075 128.001H153.875C154.145 127.991 154.414 128.037 154.667 128.136C154.919 128.234 155.151 128.384 155.348 128.577C155.545 128.769 155.705 129 155.816 129.257C155.928 129.514 155.991 129.791 156 130.073L155.01 161.11C154.934 161.664 154.659 162.167 154.241 162.517C153.822 162.867 153.293 163.037 152.759 162.993L101.107 161.581C100.839 161.593 100.571 161.55 100.32 161.453C100.068 161.356 99.8374 161.208 99.6413 161.017C99.4452 160.826 99.2875 160.596 99.1774 160.34C99.0672 160.084 99.0069 159.808 99 159.528V157.645C99 157.645 144.009 161.053 147.358 156.703Z" fill="#7A665A"/>
</g>
<path d="M129.19 118.903C124.82 118.903 119.99 123.134 119.913 127.365H117C117.134 121.018 122.616 115.835 129.248 116.004C135.88 116.173 141.132 121.547 140.997 128H138.161C138.276 123.663 133.58 119.029 129.19 118.903Z" fill="#2D282B"/>
<path opacity="0.46" d="M104.915 128C104.468 127.998 104.035 128.169 103.702 128.48C103.369 128.791 103.16 129.22 103.116 129.683L102 144.776L102.666 145C102.666 145 103.35 129.664 104.717 129.085C106.877 128.15 151 129.908 151 129.908V129.085L104.915 128Z" fill="#5F5459"/>
<path d="M135.265 115.257C135.916 117.721 136.137 120.281 135.918 122.821C135.918 124.697 133.091 126.453 127.535 125.895C121.98 125.336 122 123.36 122 123.36L124.689 114L135.265 115.257Z" fill="#EFC7B1"/>
<path d="M135.972 35C135.972 35 146.806 35.1675 143.302 74.7693C142.431 84.5767 138.87 118 138.87 118L119 115.711C119 115.711 127.6 77.6724 127.24 72.443C126.179 58.374 127.543 45.1052 129.134 41.104C129.609 39.5762 130.495 38.2027 131.699 37.1284C132.902 36.0541 134.378 35.3188 135.972 35Z" fill="#F1F2F2"/>
<g style="mix-blend-mode:multiply" opacity="0.36">
<path d="M135.45 35C134.204 35.1855 133.022 35.638 132 36.3213C133.271 36.4702 143.197 38.9453 139.686 76.0534C138.879 84.5767 135.934 110.779 135.147 117.628L138.536 118C138.536 118 142.329 84.5022 143.257 74.7693C146.989 35.1675 135.45 35 135.45 35Z" fill="#D8D8D8"/>
</g>
<path d="M126 28.5201C126 28.5201 122.016 30.521 119.753 29.8696C119.62 29.824 119.502 29.7457 119.41 29.6424C119.318 29.5391 119.255 29.4143 119.227 29.2801C118.985 28.5435 118.936 27.7598 119.083 27L126 28.5201Z" fill="#554B50"/>
<path d="M147.985 65.6997C148.218 78.9909 145.761 86.8541 144.668 89.8655C143.538 79.8274 147.267 40.1954 137.496 38.3923C125.412 36.143 128.998 86.2593 120.357 95.5166C113.49 102.952 129.536 22.2197 126.614 16.9776C123.691 11.7354 116 10.9547 116 10.9547C116 10.9547 116.287 -1.5186 132.136 0.154418C145.618 1.5486 147.249 21.5319 147.985 65.6997Z" fill="#E6D9D5"/>
<path d="M117.357 5.03247C123.897 7.49964 135.937 10.4154 144.483 9.11044C146.193 8.86576 146.341 11.2718 145.505 11.4757C139.132 13.2088 122.634 10.3338 116.54 7.39769C115.258 6.66366 116.558 4.72662 117.357 5.03247Z" fill="#423A3E"/>
<path d="M118.265 3.03031C126.16 5.88285 134.382 7.32004 142.649 7.29243C144.206 7.29243 144.279 9.42349 143.565 9.57266C138.417 11.1283 123.798 8.12354 117.569 5.58758C116.323 5.01219 117.386 2.71065 118.265 3.03031Z" fill="#423A3E"/>
<path d="M117 22C117 22 123.126 22 124.209 23.9692C125.293 25.9384 126 27 126 27L124.233 26.8288C123.983 25.7747 123.366 24.7846 122.442 23.9521C120.935 23.3797 119.266 23.069 117.565 23.0445L117 22Z" fill="#554B50"/>
<path d="M124 37L121.076 59H119L122.411 37.5016L124 37Z" fill="#E5E5E5"/>
</svg>
